<svg width="64" height="64" viewBox="0 0 64 64" fill="none" xmlns="http://www.w3.org/2000/svg">
<path d="M53.511 25.503C54.473 28.157 55 31.018 55 34C55 47.785 43.785 59 30 59C16.215 59 5 47.785 5 34C5 20.215 16.215 9 30 9C35.683 9 40.927 10.91 45.131 14.117L46.657 12.774C42.065 9.162 36.282 7 30 7C15.112 7 3 19.112 3 34C3 48.888 15.112 61 30 61C44.888 61 57 48.888 57 34C57 30.438 56.3 27.037 55.041 23.92L53.511 25.503Z" fill="#111111"/>
<path d="M57 9L32 31L21 23L17 27L32 42L61 12L57 9Z" fill="#1B7EC2"/>
</svg>
