<svg width="64" height="64" viewBox="0 0 64 64" fill="none" xmlns="http://www.w3.org/2000/svg">
<path d="M31.9999 62.6667C15.0904 62.6667 1.33325 48.9095 1.33325 32C1.33325 15.0905 15.0904 1.33334 31.9999 1.33334C48.9094 1.33334 62.6666 15.0905 62.6666 32C62.6666 48.9095 48.9094 62.6667 31.9999 62.6667Z" fill="#1B7EC2"/>
<path d="M56.4245 42.6667C57.8582 39.3967 58.6666 35.793 58.6666 32C58.6666 17.2961 46.7039 5.33334 31.9999 5.33334C17.2961 5.33334 5.33325 17.2961 5.33325 32C5.33325 35.793 6.1416 39.3967 7.57536 42.6667H56.4245Z" fill="white"/>
<path d="M34.8304 34.8304C33.2709 36.3899 30.733 36.3899 29.1735 34.8304C27.614 33.2709 24 24 24 24C24 24 33.2709 27.614 34.8304 29.1735C36.3899 30.733 36.3899 33.2709 34.8304 34.8304Z" fill="#1B7EC2"/>
<path d="M32 12C26.486 12 21.486 14.243 17.8645 17.8645L21.634 21.634C24.2897 18.9782 27.9564 17.3333 32 17.3333C40.0872 17.3333 46.6667 23.9128 46.6667 32H52C52 20.972 43.028 12 32 12Z" fill="#E86C60"/>
<path d="M12 32H17.3333C17.3333 27.9564 18.9782 24.2897 21.6339 21.634L17.8645 17.8645C14.243 21.486 12 26.486 12 32Z" fill="#EFD358"/>
</svg>
