<svg width="50" height="50" viewBox="0 0 50 50" fill="none" xmlns="http://www.w3.org/2000/svg">
<circle cx="25" cy="25" r="25" fill="#F3F3F3"/>
<path d="M37.0627 18.6248C39.1913 18.6248 40.9168 17.0392 40.9168 15.0832C40.9168 13.1272 39.1913 11.5415 37.0627 11.5415C34.9341 11.5415 33.2085 13.1272 33.2085 15.0832C33.2085 17.0392 34.9341 18.6248 37.0627 18.6248Z" fill="#1B7EC2"/>
<path d="M13.9377 18.6248C16.0663 18.6248 17.7918 17.0392 17.7918 15.0832C17.7918 13.1272 16.0663 11.5415 13.9377 11.5415C11.8091 11.5415 10.0835 13.1272 10.0835 15.0832C10.0835 17.0392 11.8091 18.6248 13.9377 18.6248Z" fill="#1B7EC2"/>
<path fill-rule="evenodd" clip-rule="evenodd" d="M34.7476 20.0415C32.6204 20.0415 30.896 21.6208 30.896 23.5859V28.3967C30.896 28.7896 31.2175 29.2264 31.615 29.3725L33.2085 29.9582L33.9149 37.7481C33.9505 38.1403 34.3285 38.4582 34.7479 38.4582H39.3775C39.8019 38.4582 40.1753 38.1353 40.2104 37.7481L40.9168 29.9582L42.4976 29.474C42.9017 29.3502 43.2293 28.9329 43.2293 28.5426V23.5885C43.2293 21.6296 41.5014 20.0415 39.3777 20.0415H34.7476Z" fill="#1B7EC2"/>
<path fill-rule="evenodd" clip-rule="evenodd" d="M11.6226 20.0415C9.49542 20.0415 7.771 21.6208 7.771 23.5859V28.3967C7.771 28.7896 8.09254 29.2264 8.49001 29.3725L10.0835 29.9582L10.7899 37.7481C10.8255 38.1403 11.2035 38.4582 11.6229 38.4582H16.2525C16.6769 38.4582 17.0503 38.1353 17.0854 37.7481L17.7918 29.9582L19.3726 29.474C19.7767 29.3502 20.1043 28.9329 20.1043 28.5426V23.5885C20.1043 21.6296 18.3764 20.0415 16.2527 20.0415H11.6226Z" fill="#1B7EC2"/>
<path d="M25.5 17.2083C28.0543 17.2083 30.125 15.3055 30.125 12.9583C30.125 10.611 28.0543 8.70825 25.5 8.70825C22.9457 8.70825 20.875 10.611 20.875 12.9583C20.875 15.3055 22.9457 17.2083 25.5 17.2083Z" fill="#5A7A84"/>
<path fill-rule="evenodd" clip-rule="evenodd" d="M22.4175 18.625C19.8629 18.625 17.792 20.5219 17.792 22.8774V29.2494C17.792 29.6409 18.0989 30.0993 18.4763 30.2727L20.8753 31.375L21.6492 40.6421C21.6824 41.0098 22.0154 41.2917 22.417 41.2917H28.5837C28.9853 41.2917 29.3183 41.0098 29.3514 40.6421L30.0768 31.2305L32.498 30.247C32.8905 30.0876 33.2087 29.6434 33.2087 29.2494V22.8774C33.2087 20.5288 31.1455 18.625 28.5831 18.625H22.4175Z" fill="black"/>
</svg>
