<svg width="251" height="239" viewBox="0 0 251 239" fill="none" xmlns="http://www.w3.org/2000/svg">
<path d="M49.9973 179.284C49.9973 179.284 117.425 217.706 171.743 192.336C226.061 166.965 231.265 121.958 247.945 74.8419C264.626 27.7254 209.634 45.9589 164.405 31.0588C119.175 16.1586 92.8745 -11.953 49.9973 5.56485C7.12017 23.0827 4.99319 58.3477 0.288409 93.6852C-4.41637 129.023 49.9973 179.284 49.9973 179.284Z" fill="#BDE2FC"/>
<path d="M29.267 218.416C44.2241 215.632 48.0793 213.697 83.7597 214.039C119.44 214.381 144.777 214.634 180.773 220.038C216.769 225.441 212.037 236.659 195.392 233.012C178.747 229.365 176.568 239.731 139.429 238.959C102.29 238.187 102.953 236.459 74.0788 233.012C45.2051 229.565 34.2169 228.646 23.9324 225.173C13.648 221.701 14.3103 221.2 29.267 218.416Z" fill="url(#paint0_linear)"/>
<g clip-path="url(#clip0)">
<path d="M154.134 26H84.8464C75.8811 26 68.6133 32.8224 68.6133 41.2383V202.169C68.6133 210.585 75.8811 217.407 84.8464 217.407H154.134C163.099 217.407 170.367 210.585 170.367 202.169V41.2383C170.367 32.8224 163.099 26 154.134 26Z" fill="#1B7EC2"/>
<path d="M88.0133 30.46C88.0133 30.46 90.0722 30.2028 90.7571 31.8597C91.4421 33.5166 91.1412 36.9069 94.4056 37.0871C97.67 37.2674 143.563 37.6279 145.675 37.0871C147.787 36.5464 147.373 33.5166 148.363 31.8597C149.353 30.2028 151.362 30.46 151.362 30.46C155.667 30.46 159.796 32.0654 162.84 34.9232C165.885 37.7809 167.595 41.6568 167.595 45.6982V199.196C167.595 203.237 165.885 207.113 162.84 209.971C159.796 212.829 155.667 214.434 151.362 214.434H88.0133C83.7081 214.434 79.5791 212.829 76.5348 209.971C73.4905 207.113 71.7803 203.237 71.7803 199.196V45.6982C71.7803 41.6568 73.4905 37.7809 76.5348 34.9232C79.5791 32.0654 83.7081 30.46 88.0133 30.46Z" fill="white"/>
<path d="M69.009 52.3882H67.4253V59.8215H69.009V52.3882Z" fill="black"/>
<path d="M69.009 67.2548H67.4253V81.7497H69.009V67.2548Z" fill="black"/>
<path d="M102.069 34.92C102.834 34.92 103.455 34.3376 103.455 33.6191C103.455 32.9007 102.834 32.3183 102.069 32.3183C101.304 32.3183 100.683 32.9007 100.683 33.6191C100.683 34.3376 101.304 34.92 102.069 34.92Z" fill="white"/>
<path d="M88.8055 82.1214C90.9921 82.1214 92.7648 80.4574 92.7648 78.4048C92.7648 76.3521 90.9921 74.6881 88.8055 74.6881C86.6188 74.6881 84.8462 76.3521 84.8462 78.4048C84.8462 80.4574 86.6188 82.1214 88.8055 82.1214Z" fill="#FF8484"/>
<path d="M153.342 76.5464H96.7241V80.2631H153.342V76.5464Z" fill="#FF8484"/>
<path d="M88.8055 96.988C90.9921 96.988 92.7648 95.324 92.7648 93.2713C92.7648 91.2187 90.9921 89.5547 88.8055 89.5547C86.6188 89.5547 84.8462 91.2187 84.8462 93.2713C84.8462 95.324 86.6188 96.988 88.8055 96.988Z" fill="#FF8484"/>
<path d="M153.342 91.413H96.7241V95.1297H153.342V91.413Z" fill="#FF8484"/>
<path d="M88.8055 111.855C90.9921 111.855 92.7648 110.191 92.7648 108.138C92.7648 106.085 90.9921 104.421 88.8055 104.421C86.6188 104.421 84.8462 106.085 84.8462 108.138C84.8462 110.191 86.6188 111.855 88.8055 111.855Z" fill="#FF8484"/>
<path d="M153.342 106.28H96.7241V109.996H153.342V106.28Z" fill="#FF8484"/>
<path d="M82.8667 133.039C86.1466 133.039 88.8056 130.543 88.8056 127.464C88.8056 124.385 86.1466 121.889 82.8667 121.889C79.5867 121.889 76.9277 124.385 76.9277 127.464C76.9277 130.543 79.5867 133.039 82.8667 133.039Z" fill="#1B7EC2"/>
<path d="M116.917 124.12H91.1812V126.721H116.917V124.12Z" fill="#1B7EC2"/>
<path d="M114.145 128.951H91.1812V130.438H114.145V128.951Z" fill="#1B7EC2"/>
<path d="M154.134 124.12H142.652V126.721H154.134V124.12Z" fill="#1B7EC2"/>
<g filter="url(#filter0_d)">
<path d="M168.066 81.0064L157.688 82.6647L162.404 77.7119C158.991 74.904 156.905 71.1521 156.905 67.0318C156.905 58.3281 166.202 51.2732 177.671 51.2732C189.139 51.2732 198.438 58.3281 198.438 67.0318C198.438 75.7354 189.141 82.7904 177.673 82.7904C174.376 82.8034 171.109 82.1968 168.066 81.0064Z" fill="#1B7EC2"/>
</g>
<path d="M166.407 68.7414C167.282 68.7414 167.991 68.159 167.991 67.4406C167.991 66.7222 167.282 66.1398 166.407 66.1398C165.533 66.1398 164.824 66.7222 164.824 67.4406C164.824 68.159 165.533 68.7414 166.407 68.7414Z" fill="white"/>
<path d="M176.702 68.7414C177.577 68.7414 178.286 68.159 178.286 67.4406C178.286 66.7222 177.577 66.1398 176.702 66.1398C175.827 66.1398 175.118 66.7222 175.118 67.4406C175.118 68.159 175.827 68.7414 176.702 68.7414Z" fill="white"/>
<path d="M186.996 68.7414C187.87 68.7414 188.58 68.159 188.58 67.4406C188.58 66.7222 187.87 66.1398 186.996 66.1398C186.121 66.1398 185.412 66.7222 185.412 67.4406C185.412 68.159 186.121 68.7414 186.996 68.7414Z" fill="white"/>
<path d="M95.9323 174.666H82.8667V201.054H95.9323V174.666Z" fill="#1B7EC2"/>
<path d="M116.917 167.976H103.851V201.054H116.917V167.976Z" fill="#FF8484"/>
<path d="M137.901 158.313H124.835V201.054H137.901V158.313Z" fill="#1B7EC2"/>
<path d="M158.178 149.669L145.112 149.877L146.041 201.167L159.107 200.959L158.178 149.669Z" fill="#FF8484"/>
<path d="M140.813 140.948L143.469 145.589L145.931 141.398L140.813 140.948Z" fill="#111111"/>
<path d="M83.0645 168.162L142.85 142.889" stroke="#707070"/>
<path d="M169.205 231.981C165.7 231.981 162.076 231.135 159.262 229.659C156.28 228.096 154.469 225.982 154.163 223.708C154.015 222.603 154.049 221.48 154.266 220.372C154.44 219.485 154.731 218.605 155.129 217.756C155.777 216.377 156.505 215.528 156.578 215.445H179.503C179.586 215.523 180.543 216.441 181.383 217.863C181.896 218.732 182.266 219.616 182.482 220.491C182.752 221.585 182.781 222.667 182.569 223.707C182.108 225.969 180.557 228.046 178.203 229.555C177.01 230.32 175.649 230.917 174.16 231.33C172.6 231.762 170.933 231.981 169.205 231.981Z" fill="#FFE287"/>
<path d="M156.588 215.464C156.489 215.578 155.78 216.418 155.148 217.764C154.75 218.611 154.46 219.49 154.287 220.375C154.07 221.482 154.035 222.603 154.183 223.706C154.488 225.974 156.296 228.083 159.272 229.644C162.084 231.117 165.704 231.963 169.206 231.963C170.932 231.963 172.597 231.744 174.155 231.313C175.642 230.901 177.001 230.304 178.192 229.54C180.542 228.034 182.09 225.961 182.55 223.704C182.762 222.666 182.733 221.587 182.463 220.496C182.248 219.623 181.879 218.741 181.367 217.873C180.544 216.48 179.608 215.572 179.495 215.464H156.588ZM156.569 215.427H179.511C179.511 215.427 183.522 219.136 182.589 223.711C181.657 228.286 176.317 232 169.206 232C162.095 232 154.797 228.566 154.144 223.711C153.491 218.857 156.569 215.427 156.569 215.427Z" fill="#707070"/>
<path d="M157.315 216.026C156.735 216.595 156.248 217.241 155.869 217.943C155.505 218.708 155.246 219.514 155.099 220.341" stroke="white"/>
<path d="M158.621 217.184H179.651" stroke="white" stroke-width="2"/>
<path d="M170.172 207.937C166.31 207.843 157.839 204.32 156.11 200.175C154.382 196.031 164.231 191.758 164.429 187.831C164.627 183.903 153.702 178.292 155.187 170.156C156.672 162.02 161.672 150.329 167.4 146.122C173.127 141.916 175.92 158.357 178.097 160.843C180.274 163.329 188.988 163.278 188.988 168.753C188.988 174.229 178.097 182.744 178.097 182.744C178.097 182.744 174.562 185.95 175.834 189.689C177.107 193.428 182.857 195.19 181.858 199.333C180.858 203.477 174.034 208.031 170.172 207.937Z" fill="#00AF46"/>
<path d="M168.543 215.403V165.839V215.403Z" fill="white"/>
<path d="M168.543 215.403V165.839" stroke="white" stroke-width="3"/>
<path d="M168.543 200.258C169.526 199.401 170.715 198.778 172.008 198.443C174.114 197.917 176.967 198.153 176.967 198.153" stroke="white" stroke-width="3"/>
<path d="M168.643 175.07C169.851 173.803 171.297 172.754 172.908 171.975C175.398 170.839 178.604 170.524 178.604 170.524" stroke="white" stroke-width="3"/>
<path d="M168.544 202.178C168.544 202.178 167.198 200.462 165.424 199.809C163.65 199.156 161.445 199.566 161.445 199.566" stroke="white" stroke-width="3"/>
<path d="M168.643 170.861C167.86 170.186 166.96 169.641 165.983 169.248C164.772 168.813 163.516 168.501 162.235 168.315" stroke="white" stroke-width="3"/>
<path d="M53.5678 133.783C57.0664 133.783 59.9026 131.037 59.9026 127.65C59.9026 124.263 57.0664 121.518 53.5678 121.518C50.0691 121.518 47.2329 124.263 47.2329 127.65C47.2329 131.037 50.0691 133.783 53.5678 133.783Z" fill="#FFE287"/>
<path d="M55.867 134.293C58.8851 134.958 61.1943 135.077 63.0563 136.644C64.9184 138.211 65.5509 139.207 66.494 145.059C67.4371 150.911 65.8681 169.686 64.6602 171.48C63.4522 173.275 45.6904 172.796 41.1179 171.48C36.5453 170.164 42.5109 144.121 41.4399 143.858C40.369 143.596 35.1049 159.547 33.7112 159.36C32.3175 159.174 38.437 139.762 40.4103 137.494C42.3836 135.226 50.9844 133.983 50.9844 133.983C50.9844 133.983 52.8488 133.627 55.867 134.293Z" fill="#1B7EC2"/>
<path d="M40.3726 170.762L38.9258 217.486H45.2537L51.945 180.178L54.476 217.486H59.3571L64.7814 171.828L40.3726 170.762Z" fill="#FF8484"/>
<path d="M69.207 102.191C69.9724 102.191 70.5928 101.526 70.5928 100.705C70.5928 99.8836 69.9724 99.218 69.207 99.218C68.4417 99.218 67.8213 99.8836 67.8213 100.705C67.8213 101.526 68.4417 102.191 69.207 102.191Z" fill="white"/>
<path d="M62.0196 137.445C62.1384 138.579 63.6946 140 63.6946 140C63.6946 140 80.5037 138.687 85.7541 137.445C91.0045 136.204 90.6289 135.035 84.6951 135.035C78.7613 135.035 61.9028 136.311 62.0196 137.445Z" fill="#1B7EC2"/>
<path d="M52.5107 124.677C52.5107 124.677 53.6949 123.143 54.7753 123.015C55.8558 122.888 55.9759 123.529 56.8161 123.82L58.2873 124.33C58.2873 124.33 59.7868 126.238 59.6835 125.761C59.6819 124.654 59.3013 123.576 58.5978 122.687C57.41 121.15 55.9726 120.024 53.4259 120.143C50.8793 120.262 48.514 121.892 48.0999 123.164C47.6857 124.436 47.0652 126.821 47.4267 126.98C47.7882 127.138 49.7021 125.337 49.7021 125.337L51.3052 123.482L52.5107 124.677Z" fill="black"/>
<path d="M67.4254 220.381H31V222.239H67.4254V220.381Z" fill="#D6D6D6"/>
<path d="M42.1564 220.771L39.2769 217.892L44.8143 217.709L43.4538 220.771L42.1564 220.771Z" fill="black"/>
<path d="M56.806 220.771L53.9264 217.892L59.4638 217.709L58.8128 220.287L56.806 220.771Z" fill="black"/>
</g>
<defs>
<filter id="filter0_d" x="150.905" y="48.2732" width="53.5329" height="43.5174" filterUnits="userSpaceOnUse" color-interpolation-filters="sRGB">
<feFlood flood-opacity="0" result="BackgroundImageFix"/>
<feColorMatrix in="SourceAlpha" type="matrix" values="0 0 0 0 0 0 0 0 0 0 0 0 0 0 0 0 0 0 127 0"/>
<feOffset dy="3"/>
<feGaussianBlur stdDeviation="3"/>
<feColorMatrix type="matrix" values="0 0 0 0 0 0 0 0 0 0 0 0 0 0 0 0 0 0 0.161 0"/>
<feBlend mode="normal" in2="BackgroundImageFix" result="effect1_dropShadow"/>
<feBlend mode="normal" in="SourceGraphic" in2="effect1_dropShadow" result="shape"/>
</filter>
<linearGradient id="paint0_linear" x1="112.5" y1="214" x2="112.464" y2="273.601" gradientUnits="userSpaceOnUse">
<stop stop-color="#F1F1F1"/>
<stop offset="1" stop-color="#797979"/>
</linearGradient>
<clipPath id="clip0">
<rect x="31" y="26" width="171" height="206" fill="white"/>
</clipPath>
</defs>
</svg>
