<svg width="287" height="226" viewBox="0 0 287 226" fill="none" xmlns="http://www.w3.org/2000/svg">
<path d="M41.0855 206.12C55.8213 203.523 59.6195 201.718 94.772 202.036C129.925 202.355 154.887 202.591 190.35 207.633C225.814 212.675 221.151 223.141 204.753 219.738C188.354 216.336 186.207 226.007 149.618 225.287C113.028 224.567 113.681 222.954 85.2343 219.738C56.7878 216.523 45.9622 215.665 35.8299 212.425C25.6976 209.185 26.3501 208.717 41.0855 206.12Z" fill="url(#paint0_linear)"/>
<path d="M91.6958 209.839L201.683 204.973C201.683 204.973 237.061 185.817 256.289 157.503C275.517 129.189 292.822 121.246 285.131 93.5863C277.44 65.9264 183.012 -20.5269 143.371 4.48764C103.73 29.5022 25.3637 46.77 4.02088 86.1104C-17.322 125.451 53.2422 172.828 53.2422 172.828L91.6958 209.839Z" fill="#BDE2FC"/>
<path d="M276.462 59.8875H244.606C242.895 59.8875 241.508 61.2353 241.508 62.8979V118.806C241.508 120.469 242.895 121.816 244.606 121.816H276.462C278.173 121.816 279.56 120.469 279.56 118.806V62.8979C279.56 61.2353 278.173 59.8875 276.462 59.8875Z" fill="#1B7EC2"/>
<path d="M244.7 62.3737H252.191C252.191 62.3737 253.178 64.057 254.094 64.2346C255.009 64.4122 266.986 64.4019 267.748 64.2346C268.511 64.0673 269.241 62.3737 269.241 62.3737H276.531C276.849 62.3773 277.152 62.5035 277.374 62.7244C277.596 62.9452 277.719 63.2428 277.715 63.5517V118.186C277.719 118.495 277.596 118.793 277.374 119.014C277.152 119.234 276.849 119.361 276.531 119.364H244.7C244.382 119.361 244.079 119.234 243.857 119.014C243.635 118.793 243.512 118.495 243.516 118.186V63.5517C243.512 63.2428 243.635 62.9452 243.857 62.7244C244.079 62.5035 244.382 62.3773 244.7 62.3737V62.3737Z" fill="white"/>
<path d="M187.971 100.314H65.8524C59.9877 100.314 55.2334 104.935 55.2334 110.635V180.735C55.2334 186.436 59.9877 191.057 65.8524 191.057H187.971C193.836 191.057 198.59 186.436 198.59 180.735V110.635C198.59 104.935 193.836 100.314 187.971 100.314Z" fill="#1B7EC2"/>
<path d="M65.4099 100.314H188.413C191.112 100.314 193.701 101.356 195.609 103.211C197.518 105.066 198.59 107.582 198.59 110.205V174.284H55.2334V110.205C55.2334 107.582 56.3056 105.066 58.214 103.211C60.1225 101.356 62.711 100.314 65.4099 100.314V100.314Z" fill="black"/>
<path d="M70.2771 103.754H185.316C188.015 103.754 190.604 104.796 192.512 106.651C194.421 108.506 195.493 111.022 195.493 113.646V170.414H60.1006V113.646C60.1006 111.022 61.1728 108.506 63.0812 106.651C64.9897 104.796 67.5781 103.754 70.2771 103.754V103.754Z" fill="white"/>
<path d="M70.2771 103.969H185.316C186.624 103.969 187.918 104.22 189.126 104.706C190.334 105.192 191.431 105.905 192.356 106.803C193.28 107.702 194.013 108.769 194.514 109.943C195.014 111.117 195.271 112.375 195.271 113.646V169.984C195.271 170.041 195.248 170.095 195.207 170.136C195.165 170.176 195.109 170.199 195.05 170.199H60.543C60.4843 170.199 60.4281 170.176 60.3866 170.136C60.3451 170.095 60.3218 170.041 60.3218 169.984V113.646C60.3218 111.079 61.3706 108.618 63.2376 106.803C65.1046 104.989 67.6368 103.969 70.2771 103.969V103.969Z" stroke="#707070"/>
<path d="M126.912 185.466C128.867 185.466 130.451 184.022 130.451 182.241C130.451 180.459 128.867 179.015 126.912 179.015C124.957 179.015 123.372 180.459 123.372 182.241C123.372 184.022 124.957 185.466 126.912 185.466Z" fill="white"/>
<path d="M126.912 185.251C128.744 185.251 130.23 183.903 130.23 182.241C130.23 180.578 128.744 179.23 126.912 179.23C125.079 179.23 123.593 180.578 123.593 182.241C123.593 183.903 125.079 185.251 126.912 185.251Z" stroke="#707070"/>
<path d="M134.433 191.057H119.39V207.829H134.433V191.057Z" fill="#1B7EC2"/>
<g filter="url(#filter0_d)">
<path d="M172.927 207.831H82.666V210.841H172.927V207.831Z" fill="url(#paint1_linear)"/>
</g>
<path d="M134.433 191.057H119.39V203.959H134.433V191.057Z" fill="url(#paint2_linear)"/>
<path d="M186.643 106.765H70.7194C67.0539 106.765 64.0825 109.653 64.0825 113.216V160.952C64.0825 164.515 67.0539 167.403 70.7194 167.403H186.643C190.309 167.403 193.28 164.515 193.28 160.952V113.216C193.28 109.653 190.309 106.765 186.643 106.765Z" fill="#BDE2FC"/>
<path d="M126.027 118.806H91.515C88.827 118.806 86.6479 120.924 86.6479 123.537V149.341C86.6479 151.953 88.827 154.071 91.515 154.071H126.027C128.715 154.071 130.894 151.953 130.894 149.341V123.537C130.894 120.924 128.715 118.806 126.027 118.806Z" fill="white"/>
<path d="M128.681 156.652H117.62C116.398 156.652 115.408 157.615 115.408 158.802C115.408 159.99 116.398 160.952 117.62 160.952H128.681C129.903 160.952 130.894 159.99 130.894 158.802C130.894 157.615 129.903 156.652 128.681 156.652Z" fill="white"/>
<path d="M99.9217 156.652H88.8602C87.6384 156.652 86.6479 157.615 86.6479 158.802C86.6479 159.99 87.6384 160.952 88.8602 160.952H99.9217C101.144 160.952 102.134 159.99 102.134 158.802C102.134 157.615 101.144 156.652 99.9217 156.652Z" fill="white"/>
<path d="M175.582 118.806H145.938C142.761 118.806 140.186 121.309 140.186 124.397V155.362C140.186 158.449 142.761 160.952 145.938 160.952H175.582C178.759 160.952 181.334 158.449 181.334 155.362V124.397C181.334 121.309 178.759 118.806 175.582 118.806Z" fill="white"/>
<path d="M67.1799 106.765H74.7017C76.4619 106.765 78.15 107.444 79.3947 108.654C80.6393 109.864 81.3385 111.505 81.3385 113.216V160.952C81.3385 162.663 80.6393 164.304 79.3947 165.514C78.15 166.724 76.4619 167.403 74.7017 167.403H63.1978V110.635C63.1978 109.609 63.6173 108.624 64.3641 107.898C65.1109 107.172 66.1238 106.765 67.1799 106.765V106.765Z" fill="#1B7EC2"/>
<path d="M179.564 108.485H89.7452C88.0346 108.485 86.6479 109.833 86.6479 111.495C86.6479 113.158 88.0346 114.506 89.7452 114.506H179.564C181.275 114.506 182.661 113.158 182.661 111.495C182.661 109.833 181.275 108.485 179.564 108.485Z" fill="white"/>
<path d="M92.1794 110.572L93.3103 111.601L92.2039 112.654L91.0744 111.627L92.1794 110.572Z" fill="#75BFF2"/>
<path d="M90.5148 110.028C90.7254 109.881 91.409 110.273 91.409 110.273L92.1457 110.715L91.2528 111.549C91.2528 111.549 90.832 111.01 90.7794 110.912C90.7267 110.814 90.3046 110.175 90.5148 110.028Z" fill="#75BFF2" stroke="#777777"/>
<path d="M92.1399 110.781L93.0965 111.653L92.243 112.448L91.3076 111.575L92.1399 110.781Z" fill="#75BFF2"/>
<path d="M90.4947 113.188C90.3363 112.991 90.7562 112.353 90.7562 112.353L91.2283 111.665L92.1256 112.498C92.1256 112.498 91.5477 112.891 91.4424 112.941C91.3371 112.99 90.6527 113.384 90.4947 113.188Z" fill="#75BFF2" stroke="#777777"/>
<path d="M93.8766 110.05C94.0359 110.245 93.62 110.886 93.62 110.886L93.1505 111.576L92.251 110.748C92.251 110.748 92.8262 110.352 92.9315 110.302C93.0368 110.252 93.7169 109.855 93.8766 110.05Z" fill="#75BFF2" stroke="#777777"/>
<path d="M93.8761 113.196C93.6646 113.342 92.9836 112.944 92.9836 112.944L92.2505 112.497L93.1513 111.669C93.1513 111.669 93.5681 112.212 93.6199 112.311C93.6717 112.409 94.0876 113.05 93.8761 113.196Z" fill="#75BFF2" stroke="#777777"/>
<path d="M94.2395 111.955C94.2395 111.875 94.2827 111.835 94.3691 111.835H94.5266C94.5424 111.833 94.5584 111.835 94.5736 111.839C94.5887 111.844 94.6029 111.851 94.6151 111.861C94.6368 111.885 94.6493 111.915 94.6505 111.947C94.6555 111.987 94.6707 112.026 94.6948 112.059C94.7076 112.075 94.7244 112.088 94.7437 112.096C94.7631 112.105 94.7843 112.108 94.8054 112.107C94.8253 112.108 94.8451 112.105 94.8638 112.098C94.8824 112.091 94.8995 112.081 94.9138 112.067C94.9298 112.05 94.942 112.029 94.9496 112.007C94.9572 111.985 94.9601 111.962 94.958 111.938V111.194H94.6328C94.5464 111.194 94.5032 111.154 94.5032 111.073V110.987C94.5032 110.907 94.5464 110.867 94.6328 110.867H95.2381C95.3245 110.867 95.3677 110.907 95.3677 110.987V111.952C95.3696 112.03 95.3526 112.107 95.3182 112.177C95.2882 112.238 95.2446 112.292 95.1908 112.335C95.1371 112.378 95.0755 112.41 95.0093 112.429C94.9431 112.45 94.874 112.46 94.8045 112.46C94.7334 112.46 94.6627 112.45 94.5948 112.429C94.5287 112.408 94.4673 112.376 94.4134 112.333C94.3604 112.289 94.317 112.236 94.2859 112.175C94.2531 112.106 94.2372 112.031 94.2395 111.955ZM95.9208 112.078C95.9206 112.09 95.9231 112.103 95.9279 112.114C95.9328 112.126 95.94 112.137 95.9491 112.146C95.9612 112.156 95.9753 112.163 95.9905 112.168C96.0056 112.173 96.0217 112.175 96.0376 112.174C96.0661 112.174 96.0942 112.168 96.1199 112.156C96.1443 112.144 96.1666 112.127 96.1858 112.108C96.2049 112.09 96.2199 112.068 96.2301 112.045C96.2407 112.023 96.2463 111.999 96.2465 111.974V111.944H96.208C96.1748 111.944 96.1417 111.946 96.1089 111.95C96.0774 111.954 96.0466 111.962 96.0168 111.972C95.9914 111.982 95.9683 111.997 95.9487 112.015C95.9401 112.023 95.9333 112.033 95.9286 112.044C95.924 112.054 95.9216 112.066 95.9217 112.078H95.9208ZM95.5177 112.113C95.5151 112.045 95.5377 111.978 95.5814 111.925C95.6274 111.873 95.6846 111.833 95.7487 111.806C95.8192 111.776 95.8937 111.755 95.9699 111.745C96.0471 111.733 96.125 111.727 96.2031 111.727H96.2385V111.707C96.2405 111.688 96.2366 111.669 96.2274 111.652C96.2182 111.635 96.2041 111.62 96.1867 111.611C96.1499 111.591 96.1084 111.582 96.0664 111.583C96.0273 111.583 95.9885 111.588 95.9509 111.598C95.9156 111.608 95.881 111.619 95.8474 111.633C95.8327 111.642 95.8162 111.648 95.799 111.65C95.7818 111.652 95.7644 111.651 95.7479 111.646C95.7313 111.641 95.7161 111.632 95.7032 111.621C95.6903 111.61 95.68 111.596 95.673 111.581L95.6447 111.526C95.6284 111.498 95.6233 111.466 95.6306 111.434C95.6355 111.419 95.644 111.404 95.6554 111.392C95.6668 111.38 95.6809 111.37 95.6965 111.364C95.7522 111.34 95.8097 111.32 95.8686 111.305C95.9454 111.285 96.0246 111.275 96.104 111.276C96.247 111.268 96.3881 111.312 96.5 111.399C96.549 111.441 96.5877 111.493 96.613 111.551C96.6383 111.61 96.6495 111.673 96.646 111.737V112.312C96.646 112.392 96.6028 112.432 96.5164 112.432H96.4031C96.3858 112.435 96.368 112.434 96.3514 112.428C96.3347 112.423 96.3194 112.414 96.3069 112.403C96.2943 112.391 96.2847 112.376 96.2789 112.36C96.2731 112.344 96.2713 112.327 96.2734 112.31V112.286C96.2733 112.285 96.2735 112.283 96.2739 112.282C96.2743 112.281 96.2749 112.28 96.2757 112.279H96.2708C96.2463 112.314 96.2164 112.344 96.1823 112.369C96.1477 112.395 96.1096 112.417 96.069 112.433C96.0186 112.451 95.965 112.46 95.9111 112.459C95.8565 112.46 95.8023 112.451 95.7509 112.433C95.7049 112.417 95.6625 112.392 95.6261 112.361C95.5915 112.33 95.5635 112.292 95.5438 112.251C95.5258 112.207 95.5173 112.16 95.5191 112.113H95.5177ZM96.8681 111.423C96.8681 111.342 96.9113 111.302 96.9978 111.302H97.1305C97.1475 111.3 97.165 111.301 97.1814 111.306C97.1978 111.311 97.2128 111.32 97.2252 111.331C97.2375 111.343 97.2469 111.357 97.2526 111.373C97.2583 111.389 97.2601 111.406 97.2579 111.423V111.442C97.2579 111.445 97.2571 111.448 97.2557 111.451V111.471H97.2606C97.2747 111.452 97.292 111.431 97.3123 111.407C97.3354 111.383 97.3616 111.361 97.3902 111.344C97.4219 111.324 97.4559 111.307 97.4915 111.295C97.5333 111.282 97.5771 111.275 97.6212 111.276C97.6919 111.274 97.7618 111.291 97.8238 111.324C97.8844 111.355 97.9325 111.405 97.9605 111.466H97.9654C97.9826 111.441 98.0032 111.418 98.0265 111.398C98.0534 111.374 98.0831 111.354 98.115 111.337C98.1489 111.318 98.1854 111.303 98.2234 111.294C98.2655 111.282 98.3091 111.276 98.353 111.276C98.4049 111.276 98.4565 111.283 98.5061 111.298C98.5532 111.312 98.596 111.336 98.6309 111.37C98.6692 111.407 98.6983 111.452 98.7158 111.502C98.7378 111.565 98.7481 111.632 98.7463 111.699V112.312C98.7463 112.392 98.7031 112.432 98.6167 112.432H98.4689C98.3825 112.432 98.3393 112.392 98.3393 112.312V111.762C98.3406 111.727 98.3341 111.692 98.3203 111.659C98.3137 111.646 98.3029 111.635 98.2893 111.627C98.2758 111.62 98.2603 111.618 98.245 111.62C98.2061 111.618 98.1676 111.628 98.1344 111.648C98.1045 111.667 98.0796 111.692 98.0614 111.722C98.0431 111.756 98.0304 111.792 98.0238 111.83C98.0158 111.87 98.0118 111.911 98.0119 111.952V112.312C98.0119 112.392 97.9687 112.432 97.8822 112.432H97.734C97.6476 112.432 97.6044 112.392 97.6044 112.312V111.762C97.6057 111.727 97.5992 111.692 97.5853 111.659C97.5788 111.646 97.5679 111.635 97.5544 111.627C97.5409 111.62 97.5254 111.618 97.5101 111.62C97.4693 111.618 97.4289 111.629 97.3946 111.65C97.3649 111.67 97.3406 111.697 97.3238 111.729C97.3058 111.762 97.2931 111.797 97.2862 111.834C97.28 111.873 97.2769 111.913 97.2769 111.952V112.312C97.2769 112.392 97.2337 112.432 97.1473 112.432H96.9991C96.9127 112.432 96.8694 112.392 96.8694 112.312L96.8681 111.423ZM99.3671 111.863C99.3669 111.899 99.3716 111.935 99.3813 111.971C99.3913 112.002 99.4062 112.033 99.4255 112.06C99.4457 112.085 99.4705 112.106 99.4985 112.122C99.53 112.137 99.5648 112.144 99.5998 112.144C99.632 112.144 99.6639 112.138 99.6935 112.126C99.7231 112.114 99.7498 112.096 99.772 112.074C99.7969 112.046 99.816 112.014 99.8282 111.98C99.8403 111.945 99.8453 111.909 99.8428 111.872C99.8466 111.8 99.8232 111.729 99.7768 111.673C99.7568 111.648 99.731 111.628 99.7015 111.615C99.6721 111.601 99.6398 111.595 99.6074 111.596C99.5758 111.596 99.5446 111.602 99.5153 111.614C99.4869 111.624 99.4612 111.64 99.4401 111.662C99.4168 111.686 99.3985 111.714 99.3861 111.745C99.3731 111.783 99.367 111.823 99.368 111.863H99.3671ZM98.9711 110.984C98.9711 110.904 99.0143 110.864 99.1008 110.864H99.249C99.3354 110.864 99.3786 110.904 99.3786 110.984V111.323C99.3788 111.336 99.378 111.349 99.3764 111.362V111.393C99.375 111.402 99.3743 111.41 99.3742 111.419H99.3791C99.4024 111.392 99.4302 111.368 99.4614 111.349C99.4937 111.329 99.5285 111.313 99.5649 111.301C99.6123 111.284 99.6626 111.276 99.7131 111.277C99.7892 111.275 99.8647 111.29 99.9343 111.32C99.9995 111.347 100.057 111.388 100.104 111.44C100.152 111.494 100.19 111.557 100.214 111.624C100.242 111.7 100.256 111.78 100.255 111.861C100.256 111.945 100.241 112.029 100.21 112.109C100.184 112.178 100.144 112.242 100.093 112.297C100.043 112.348 99.9825 112.388 99.9158 112.415C99.8458 112.444 99.7705 112.459 99.6945 112.458C99.6385 112.46 99.5826 112.452 99.5295 112.434C99.4924 112.421 99.4576 112.403 99.426 112.38C99.3958 112.358 99.3695 112.331 99.3481 112.301H99.3432V112.316C99.344 112.317 99.3446 112.318 99.345 112.319C99.3454 112.32 99.3455 112.322 99.3454 112.323V112.331C99.3457 112.345 99.3429 112.359 99.3372 112.371C99.3315 112.384 99.3229 112.395 99.3123 112.404C99.2848 112.424 99.2504 112.434 99.2158 112.432H99.1016C99.0152 112.432 98.972 112.392 98.972 112.312L98.9711 110.984ZM100.774 111.869C100.773 111.908 100.78 111.947 100.795 111.983C100.809 112.016 100.83 112.045 100.856 112.069C100.882 112.093 100.912 112.112 100.944 112.124C101.013 112.147 101.088 112.147 101.156 112.124C101.189 112.112 101.219 112.093 101.245 112.069C101.271 112.045 101.291 112.016 101.304 111.983C101.319 111.947 101.327 111.909 101.327 111.869C101.327 111.83 101.319 111.792 101.304 111.756C101.291 111.723 101.271 111.694 101.245 111.67C101.22 111.645 101.19 111.625 101.156 111.612C101.088 111.586 101.013 111.586 100.944 111.612C100.911 111.625 100.881 111.645 100.856 111.67C100.83 111.694 100.809 111.723 100.795 111.756C100.781 111.792 100.774 111.831 100.775 111.869H100.774ZM100.361 111.869C100.36 111.785 100.379 111.702 100.415 111.626C100.45 111.555 100.5 111.491 100.561 111.44C100.626 111.386 100.701 111.345 100.783 111.319C100.956 111.261 101.144 111.261 101.317 111.319C101.399 111.345 101.474 111.386 101.539 111.44C101.635 111.521 101.701 111.63 101.728 111.751C101.755 111.872 101.74 111.998 101.687 112.11C101.651 112.182 101.601 112.245 101.539 112.297C101.475 112.349 101.401 112.389 101.322 112.415C101.147 112.47 100.959 112.47 100.785 112.415C100.704 112.389 100.629 112.349 100.564 112.297C100.503 112.244 100.453 112.181 100.418 112.11C100.381 112.035 100.362 111.953 100.363 111.869H100.361ZM101.898 112.3C101.886 112.291 101.875 112.282 101.865 112.271C101.856 112.26 101.848 112.247 101.844 112.234C101.84 112.219 101.84 112.203 101.844 112.188C101.85 112.168 101.861 112.149 101.874 112.133L101.947 112.035C101.955 112.021 101.967 112.009 101.98 112C101.994 111.991 102.009 111.985 102.025 111.982C102.061 111.979 102.096 111.988 102.126 112.006L102.176 112.032L102.244 112.065C102.273 112.076 102.302 112.085 102.332 112.091C102.366 112.099 102.4 112.102 102.434 112.102C102.48 112.105 102.527 112.095 102.567 112.072C102.58 112.063 102.591 112.051 102.599 112.038C102.606 112.024 102.61 112.009 102.611 111.993C102.61 111.974 102.605 111.956 102.595 111.94C102.585 111.924 102.571 111.91 102.554 111.901C102.512 111.871 102.466 111.847 102.417 111.829C102.363 111.805 102.304 111.781 102.24 111.756C102.178 111.731 102.119 111.698 102.063 111.66C102.009 111.623 101.962 111.576 101.925 111.522C101.887 111.46 101.868 111.388 101.871 111.316C101.869 111.248 101.885 111.182 101.915 111.121C101.946 111.061 101.989 111.009 102.042 110.967C102.099 110.923 102.163 110.891 102.233 110.871C102.31 110.847 102.39 110.835 102.471 110.836C102.563 110.835 102.654 110.848 102.742 110.875C102.806 110.893 102.868 110.918 102.925 110.952C102.94 110.96 102.953 110.971 102.963 110.984C102.973 110.997 102.98 111.012 102.984 111.028C102.988 111.058 102.981 111.088 102.965 111.114L102.909 111.218C102.885 111.26 102.858 111.282 102.826 111.283C102.793 111.283 102.761 111.274 102.732 111.259C102.693 111.242 102.652 111.226 102.609 111.211C102.564 111.194 102.515 111.186 102.466 111.187C102.416 111.183 102.367 111.194 102.325 111.22C102.311 111.228 102.3 111.239 102.292 111.253C102.285 111.266 102.281 111.281 102.28 111.296C102.28 111.315 102.285 111.334 102.295 111.35C102.304 111.367 102.318 111.38 102.334 111.39C102.378 111.418 102.425 111.442 102.473 111.46L102.65 111.531C102.713 111.554 102.772 111.585 102.827 111.623C102.882 111.659 102.929 111.706 102.964 111.761C103.004 111.821 103.023 111.893 103.02 111.965C103.021 112.029 103.007 112.093 102.98 112.153C102.954 112.212 102.916 112.265 102.867 112.309C102.812 112.355 102.749 112.391 102.681 112.414C102.6 112.441 102.514 112.455 102.428 112.453C102.371 112.454 102.313 112.448 102.256 112.438C102.205 112.428 102.155 112.416 102.105 112.401C102.06 112.385 102.018 112.368 101.981 112.35C101.952 112.336 101.925 112.319 101.899 112.301L101.898 112.3ZM103.335 110.979C103.335 110.962 103.338 110.946 103.345 110.931C103.352 110.916 103.362 110.903 103.374 110.892C103.387 110.881 103.402 110.873 103.418 110.868C103.434 110.863 103.451 110.861 103.467 110.863H103.679C103.712 110.86 103.744 110.869 103.77 110.887C103.797 110.905 103.816 110.931 103.825 110.961L104.035 111.525C104.044 111.55 104.054 111.577 104.063 111.608C104.073 111.639 104.082 111.666 104.092 111.691L104.12 111.783H104.128L104.156 111.691C104.164 111.665 104.173 111.637 104.182 111.608C104.192 111.579 104.202 111.551 104.213 111.525L104.423 110.961C104.432 110.931 104.451 110.905 104.478 110.887C104.504 110.869 104.536 110.86 104.569 110.863H104.781C104.797 110.861 104.814 110.863 104.83 110.868C104.846 110.873 104.861 110.881 104.874 110.892C104.886 110.903 104.896 110.916 104.903 110.931C104.91 110.946 104.913 110.962 104.913 110.979L105.029 112.305C105.031 112.321 105.03 112.338 105.025 112.354C105.02 112.37 105.012 112.384 105 112.397C104.988 112.408 104.973 112.417 104.957 112.423C104.941 112.429 104.923 112.431 104.906 112.429H104.753C104.736 112.431 104.719 112.43 104.703 112.425C104.687 112.42 104.673 112.411 104.66 112.4C104.647 112.389 104.637 112.376 104.631 112.361C104.624 112.346 104.62 112.33 104.62 112.313L104.576 111.724C104.573 111.695 104.571 111.665 104.569 111.634C104.568 111.603 104.568 111.574 104.571 111.548C104.571 111.519 104.573 111.49 104.576 111.462H104.57C104.56 111.494 104.548 111.525 104.537 111.556L104.507 111.642C104.496 111.673 104.486 111.7 104.476 111.725L104.337 112.083C104.327 112.113 104.307 112.138 104.28 112.156C104.253 112.173 104.221 112.181 104.189 112.179H104.056C104.024 112.181 103.992 112.173 103.965 112.156C103.938 112.138 103.918 112.113 103.908 112.083L103.769 111.725C103.76 111.7 103.75 111.673 103.739 111.642L103.708 111.556C103.697 111.525 103.686 111.494 103.675 111.462H103.67C103.67 111.49 103.671 111.519 103.672 111.548V111.634C103.674 111.664 103.673 111.694 103.67 111.724L103.626 112.313C103.626 112.33 103.622 112.346 103.616 112.361C103.609 112.376 103.599 112.389 103.586 112.4C103.574 112.411 103.559 112.42 103.543 112.425C103.527 112.43 103.51 112.431 103.493 112.429H103.338C103.321 112.431 103.303 112.428 103.287 112.423C103.271 112.418 103.256 112.409 103.243 112.398C103.232 112.385 103.224 112.371 103.22 112.355C103.215 112.339 103.214 112.322 103.217 112.306L103.335 110.979ZM105.274 112.3C105.262 112.292 105.251 112.283 105.241 112.272C105.232 112.261 105.225 112.248 105.22 112.235C105.217 112.219 105.217 112.204 105.22 112.189C105.227 112.169 105.237 112.15 105.25 112.134L105.323 112.035C105.332 112.022 105.343 112.01 105.357 112.001C105.37 111.992 105.385 111.986 105.401 111.983C105.437 111.98 105.472 111.989 105.503 112.007L105.552 112.033L105.62 112.066C105.649 112.077 105.679 112.086 105.709 112.092C105.742 112.1 105.776 112.103 105.81 112.103C105.857 112.106 105.903 112.096 105.943 112.072C105.956 112.064 105.967 112.052 105.975 112.038C105.983 112.025 105.987 112.009 105.987 111.994C105.987 111.975 105.981 111.957 105.971 111.94C105.961 111.924 105.947 111.911 105.931 111.902C105.888 111.872 105.842 111.848 105.794 111.829C105.739 111.806 105.68 111.782 105.617 111.757C105.554 111.731 105.495 111.699 105.44 111.661C105.385 111.623 105.338 111.577 105.301 111.523C105.263 111.461 105.244 111.389 105.247 111.317C105.246 111.249 105.261 111.182 105.291 111.122C105.322 111.062 105.366 111.01 105.419 110.968C105.475 110.924 105.54 110.891 105.609 110.872C105.686 110.848 105.767 110.836 105.847 110.836C105.939 110.835 106.031 110.849 106.118 110.876C106.183 110.894 106.244 110.919 106.302 110.953C106.316 110.961 106.329 110.972 106.339 110.985C106.349 110.998 106.357 111.013 106.361 111.029C106.364 111.059 106.357 111.089 106.342 111.115L106.285 111.218C106.261 111.261 106.234 111.283 106.203 111.284C106.17 111.283 106.137 111.275 106.108 111.26C106.069 111.243 106.028 111.227 105.986 111.212C105.94 111.195 105.891 111.187 105.842 111.188C105.793 111.184 105.743 111.195 105.701 111.221C105.688 111.229 105.677 111.24 105.669 111.253C105.661 111.267 105.657 111.282 105.657 111.297C105.657 111.316 105.662 111.334 105.671 111.351C105.681 111.367 105.694 111.381 105.711 111.391C105.754 111.419 105.801 111.443 105.85 111.461L106.027 111.531C106.089 111.555 106.149 111.585 106.204 111.623C106.258 111.66 106.305 111.707 106.34 111.762C106.38 111.822 106.4 111.893 106.397 111.965C106.397 112.03 106.383 112.094 106.357 112.154C106.331 112.213 106.292 112.266 106.243 112.309C106.189 112.356 106.126 112.392 106.057 112.415C105.976 112.442 105.891 112.456 105.805 112.454C105.747 112.454 105.69 112.449 105.633 112.439C105.582 112.429 105.531 112.417 105.482 112.401C105.436 112.385 105.395 112.369 105.357 112.351C105.328 112.336 105.301 112.32 105.274 112.301V112.3Z" fill="#75BFF2"/>
<path d="M70.2767 117.946H81.3382V122.247H70.2767C69.69 122.247 69.1273 122.02 68.7124 121.617C68.2975 121.214 68.0645 120.667 68.0645 120.097V120.097C68.0645 119.526 68.2975 118.979 68.7124 118.576C69.1273 118.173 69.69 117.946 70.2767 117.946V117.946Z" fill="white"/>
<path d="M198.59 136.257C198.59 136.257 220.303 139.984 224.014 136.257C227.725 132.531 221.006 87.0721 224.014 84.2819C227.023 81.4916 241.308 84.2819 241.308 84.2819" stroke="#1B7EC2" stroke-width="4"/>
<path d="M200.36 138.589C201.582 138.589 202.572 137.626 202.572 136.439C202.572 135.251 201.582 134.288 200.36 134.288C199.138 134.288 198.147 135.251 198.147 136.439C198.147 137.626 199.138 138.589 200.36 138.589Z" fill="#1B7EC2"/>
<path d="M200.36 138.481C201.521 138.481 202.462 137.567 202.462 136.439C202.462 135.31 201.521 134.396 200.36 134.396C199.199 134.396 198.258 135.31 198.258 136.439C198.258 137.567 199.199 138.481 200.36 138.481Z" stroke="white" stroke-width="0.5"/>
<path d="M241.951 86.5513C243.172 86.5513 244.163 85.5886 244.163 84.401C244.163 83.2135 243.172 82.2507 241.951 82.2507C240.729 82.2507 239.738 83.2135 239.738 84.401C239.738 85.5886 240.729 86.5513 241.951 86.5513Z" fill="#1B7EC2"/>
<path d="M241.951 86.4439C243.112 86.4439 244.052 85.5293 244.052 84.4011C244.052 83.2729 243.112 82.3583 241.951 82.3583C240.79 82.3583 239.849 83.2729 239.849 84.4011C239.849 85.5293 240.79 86.4439 241.951 86.4439Z" stroke="white" stroke-width="0.5"/>
<g filter="url(#filter1_d)">
<path d="M108.028 146.517H124.273C124.75 146.517 125.137 146.769 125.137 147.08V150.069C125.137 150.38 124.75 150.633 124.273 150.633H108.028C107.551 150.633 107.164 150.381 107.164 150.069V147.08C107.164 146.769 107.551 146.517 108.028 146.517Z" fill="white"/>
</g>
<path opacity="0.66" d="M122.929 146.76H114.08C113.836 146.76 113.638 146.953 113.638 147.19C113.638 147.428 113.836 147.62 114.08 147.62H122.929C123.174 147.62 123.372 147.428 123.372 147.19C123.372 146.953 123.174 146.76 122.929 146.76Z" fill="#F6B1B1"/>
<path opacity="0.66" d="M123.151 148.05H113.859C113.737 148.05 113.638 148.146 113.638 148.265C113.638 148.384 113.737 148.48 113.859 148.48H123.151C123.273 148.48 123.372 148.384 123.372 148.265C123.372 148.146 123.273 148.05 123.151 148.05Z" fill="#F6B1B1"/>
<path opacity="0.66" d="M122.929 148.91H114.08C113.836 148.91 113.638 149.103 113.638 149.34C113.638 149.578 113.836 149.77 114.08 149.77H122.929C123.174 149.77 123.372 149.578 123.372 149.34C123.372 149.103 123.174 148.91 122.929 148.91Z" fill="#F6B1B1"/>
<path opacity="0.66" d="M110.319 146.76H109.877C109.021 146.76 108.328 147.434 108.328 148.265C108.328 149.097 109.021 149.77 109.877 149.77H110.319C111.174 149.77 111.868 149.097 111.868 148.265C111.868 147.434 111.174 146.76 110.319 146.76Z" fill="#F6B1B1"/>
<g filter="url(#filter2_d)">
<path d="M112.247 121.88H128.492C128.969 121.88 129.356 122.133 129.356 122.444V125.433C129.356 125.744 128.969 125.997 128.492 125.997H112.247C111.77 125.997 111.383 125.745 111.383 125.433V122.444C111.383 122.133 111.77 121.88 112.247 121.88Z" fill="white"/>
</g>
<path opacity="0.66" d="M128.018 122.677H117.841C117.719 122.677 117.62 122.773 117.62 122.892C117.62 123.01 117.719 123.107 117.841 123.107H128.018C128.14 123.107 128.239 123.01 128.239 122.892C128.239 122.773 128.14 122.677 128.018 122.677Z" fill="#EC4D4D"/>
<path opacity="0.66" d="M127.797 123.537H118.063C117.818 123.537 117.62 123.729 117.62 123.967C117.62 124.204 117.818 124.397 118.063 124.397H127.797C128.041 124.397 128.239 124.204 128.239 123.967C128.239 123.729 128.041 123.537 127.797 123.537Z" fill="#EC4D4D"/>
<path opacity="0.66" d="M127.797 124.397H118.063C117.818 124.397 117.62 124.589 117.62 124.827C117.62 125.064 117.818 125.257 118.063 125.257H127.797C128.041 125.257 128.239 125.064 128.239 124.827C128.239 124.589 128.041 124.397 127.797 124.397Z" fill="#EC4D4D"/>
<path opacity="0.66" d="M114.965 122.677H114.08C113.347 122.677 112.753 123.254 112.753 123.967C112.753 124.679 113.347 125.257 114.08 125.257H114.965C115.698 125.257 116.293 124.679 116.293 123.967C116.293 123.254 115.698 122.677 114.965 122.677Z" fill="#EC4D4D"/>
<g filter="url(#filter3_d)">
<path d="M90.099 126.076H106.343C106.821 126.076 107.207 126.329 107.207 126.64V129.628C107.207 129.94 106.821 130.192 106.343 130.192H90.099C89.6216 130.193 89.2349 129.94 89.2349 129.628V126.64C89.2349 126.329 89.6216 126.076 90.099 126.076Z" fill="white"/>
</g>
<path opacity="0.66" d="M105.452 126.977H95.2759C95.1537 126.977 95.0547 127.073 95.0547 127.192C95.0547 127.311 95.1537 127.407 95.2759 127.407H105.452C105.575 127.407 105.674 127.311 105.674 127.192C105.674 127.073 105.575 126.977 105.452 126.977Z" fill="#4EB6FF"/>
<path opacity="0.66" d="M105.452 127.837H95.2759C95.1537 127.837 95.0547 127.934 95.0547 128.052C95.0547 128.171 95.1537 128.267 95.2759 128.267H105.452C105.575 128.267 105.674 128.171 105.674 128.052C105.674 127.934 105.575 127.837 105.452 127.837Z" fill="#4EB6FF"/>
<path opacity="0.66" d="M105.231 128.697H95.4971C95.2528 128.697 95.0547 128.89 95.0547 129.127C95.0547 129.365 95.2528 129.558 95.4971 129.558H105.231C105.476 129.558 105.674 129.365 105.674 129.127C105.674 128.89 105.476 128.697 105.231 128.697Z" fill="#4EB6FF"/>
<path opacity="0.66" d="M92.3998 126.977H91.5149C90.7818 126.977 90.1875 127.555 90.1875 128.267C90.1875 128.98 90.7818 129.558 91.5149 129.558H92.3998C93.1329 129.558 93.7272 128.98 93.7272 128.267C93.7272 127.555 93.1329 126.977 92.3998 126.977Z" fill="#4EB6FF"/>
<g filter="url(#filter4_d)">
<path d="M106.095 132.531H122.339C122.816 132.531 123.203 132.783 123.203 133.095V136.083C123.203 136.395 122.816 136.647 122.339 136.647H106.095C105.617 136.648 105.23 136.395 105.23 136.083V133.095C105.23 132.783 105.617 132.531 106.095 132.531Z" fill="white"/>
</g>
<path opacity="0.66" d="M121.602 133.858H111.425C111.181 133.858 110.983 134.051 110.983 134.288C110.983 134.526 111.181 134.718 111.425 134.718H121.602C121.846 134.718 122.044 134.526 122.044 134.288C122.044 134.051 121.846 133.858 121.602 133.858Z" fill="#F28989"/>
<path opacity="0.66" d="M121.602 135.148H111.425C111.181 135.148 110.983 135.341 110.983 135.578C110.983 135.816 111.181 136.008 111.425 136.008H121.602C121.846 136.008 122.044 135.816 122.044 135.578C122.044 135.341 121.846 135.148 121.602 135.148Z" fill="#F28989"/>
<path opacity="0.66" d="M108.77 133.428H107.443C106.71 133.428 106.116 134.006 106.116 134.718C106.116 135.431 106.71 136.008 107.443 136.008H108.77C109.504 136.008 110.098 135.431 110.098 134.718C110.098 134.006 109.504 133.428 108.77 133.428Z" fill="#F28989"/>
<g filter="url(#filter5_d)">
<path d="M259.248 109.343H275.019C275.261 109.363 275.485 109.475 275.642 109.655C275.799 109.835 275.878 110.067 275.86 110.303V115.391C275.878 115.627 275.799 115.859 275.642 116.039C275.485 116.219 275.261 116.331 275.019 116.351H259.248C259.006 116.331 258.782 116.219 258.624 116.039C258.467 115.859 258.389 115.627 258.407 115.391V110.303C258.389 110.067 258.467 109.835 258.624 109.655C258.782 109.475 259.006 109.363 259.248 109.343V109.343Z" fill="white"/>
</g>
<path opacity="0.66" d="M273.807 110.205H264.958C264.714 110.205 264.516 110.397 264.516 110.635C264.516 110.872 264.714 111.065 264.958 111.065H273.807C274.052 111.065 274.25 110.872 274.25 110.635C274.25 110.397 274.052 110.205 273.807 110.205Z" fill="#F6B1B1"/>
<path opacity="0.66" d="M273.586 111.925H265.179C264.813 111.925 264.516 112.214 264.516 112.57C264.516 112.926 264.813 113.215 265.179 113.215H273.586C273.953 113.215 274.25 112.926 274.25 112.57C274.25 112.214 273.953 111.925 273.586 111.925Z" fill="#F6B1B1"/>
<path opacity="0.66" d="M273.586 113.645H265.179C264.813 113.645 264.516 113.934 264.516 114.29C264.516 114.647 264.813 114.935 265.179 114.935H273.586C273.953 114.935 274.25 114.647 274.25 114.29C274.25 113.934 273.953 113.645 273.586 113.645Z" fill="#F6B1B1"/>
<path opacity="0.66" d="M263.189 111.925C263.189 110.975 262.396 110.205 261.419 110.205C260.441 110.205 259.649 110.975 259.649 111.925V113.215C259.649 114.165 260.441 114.935 261.419 114.935C262.396 114.935 263.189 114.165 263.189 113.215V111.925Z" fill="#F6B1B1"/>
<g filter="url(#filter6_d)">
<path d="M263.344 67.3986H279.116C279.358 67.4188 279.581 67.531 279.739 67.7107C279.896 67.8904 279.974 68.1231 279.956 68.3585V73.4469C279.974 73.6823 279.896 73.915 279.739 74.0947C279.581 74.2744 279.358 74.3866 279.116 74.4068H263.344C263.102 74.3866 262.878 74.2744 262.721 74.0947C262.564 73.915 262.486 73.6823 262.504 73.4469V68.3585C262.486 68.1231 262.564 67.8904 262.721 67.7107C262.878 67.531 263.102 67.4188 263.344 67.3986V67.3986Z" fill="white"/>
</g>
<path opacity="0.66" d="M278.233 68.4892H268.941C268.697 68.4892 268.499 68.6817 268.499 68.9193C268.499 69.1568 268.697 69.3493 268.941 69.3493H278.233C278.477 69.3493 278.675 69.1568 278.675 68.9193C278.675 68.6817 278.477 68.4892 278.233 68.4892Z" fill="#EC4D4D"/>
<path opacity="0.66" d="M278.011 70.2095H269.162C268.796 70.2095 268.499 70.4983 268.499 70.8546C268.499 71.2108 268.796 71.4997 269.162 71.4997H278.011C278.378 71.4997 278.675 71.2108 278.675 70.8546C278.675 70.4983 278.378 70.2095 278.011 70.2095Z" fill="#EC4D4D"/>
<path opacity="0.66" d="M278.011 71.9297H269.162C268.796 71.9297 268.499 72.2185 268.499 72.5748C268.499 72.9311 268.796 73.2199 269.162 73.2199H278.011C278.378 73.2199 278.675 72.9311 278.675 72.5748C278.675 72.2185 278.378 71.9297 278.011 71.9297Z" fill="#EC4D4D"/>
<path opacity="0.66" d="M267.171 70.2094C267.171 69.2594 266.379 68.4892 265.401 68.4892C264.424 68.4892 263.631 69.2594 263.631 70.2094V71.4996C263.631 72.4497 264.424 73.2199 265.401 73.2199C266.379 73.2199 267.171 72.4497 267.171 71.4996V70.2094Z" fill="#EC4D4D"/>
<g filter="url(#filter7_d)">
<path d="M241.839 74.5414H257.61C257.852 74.5617 258.076 74.6738 258.233 74.8535C258.391 75.0332 258.469 75.2659 258.451 75.5013V80.5898C258.469 80.8251 258.391 81.0578 258.233 81.2375C258.076 81.4172 257.852 81.5294 257.61 81.5497H241.839C241.597 81.5294 241.373 81.4172 241.216 81.2375C241.058 81.0578 240.98 80.8251 240.998 80.5898V75.5013C240.98 75.2659 241.058 75.0332 241.216 74.8535C241.373 74.6738 241.597 74.5617 241.839 74.5414V74.5414Z" fill="white"/>
</g>
<path opacity="0.66" d="M256.552 75.7997H247.26C247.016 75.7997 246.818 75.9923 246.818 76.2298C246.818 76.4673 247.016 76.6599 247.26 76.6599H256.552C256.796 76.6599 256.994 76.4673 256.994 76.2298C256.994 75.9923 256.796 75.7997 256.552 75.7997Z" fill="#4EB6FF"/>
<path opacity="0.66" d="M256.331 77.52H247.482C247.115 77.52 246.818 77.8088 246.818 78.1651C246.818 78.5213 247.115 78.8102 247.482 78.8102H256.331C256.697 78.8102 256.994 78.5213 256.994 78.1651C256.994 77.8088 256.697 77.52 256.331 77.52Z" fill="#4EB6FF"/>
<path opacity="0.66" d="M256.331 79.2402H247.482C247.115 79.2402 246.818 79.5291 246.818 79.8853C246.818 80.2416 247.115 80.5304 247.482 80.5304H256.331C256.697 80.5304 256.994 80.2416 256.994 79.8853C256.994 79.5291 256.697 79.2402 256.331 79.2402Z" fill="#4EB6FF"/>
<path opacity="0.66" d="M245.49 77.52C245.49 76.5699 244.698 75.7997 243.721 75.7997C242.743 75.7997 241.951 76.5699 241.951 77.52V78.8102C241.951 79.7602 242.743 80.5304 243.721 80.5304C244.698 80.5304 245.49 79.7602 245.49 78.8102V77.52Z" fill="#4EB6FF"/>
<g filter="url(#filter8_d)">
<path d="M257.371 85.5317H273.142C273.384 85.552 273.608 85.6642 273.765 85.8439C273.922 86.0236 274.001 86.2563 273.983 86.4916V91.5801C274.001 91.8155 273.922 92.0482 273.765 92.2279C273.608 92.4076 273.384 92.5197 273.142 92.54H257.371C257.129 92.5197 256.905 92.4076 256.747 92.2279C256.59 92.0482 256.512 91.8155 256.53 91.5801V86.4916C256.512 86.2563 256.59 86.0236 256.747 85.8439C256.905 85.6642 257.129 85.552 257.371 85.5317V85.5317Z" fill="white"/>
</g>
<path opacity="0.66" d="M272.481 86.5515H262.747C262.502 86.5515 262.304 86.744 262.304 86.9815C262.304 87.219 262.502 87.4116 262.747 87.4116H272.481C272.725 87.4116 272.923 87.219 272.923 86.9815C272.923 86.744 272.725 86.5515 272.481 86.5515Z" fill="#F28989"/>
<path opacity="0.66" d="M272.481 88.2717H262.747C262.502 88.2717 262.304 88.4642 262.304 88.7017C262.304 88.9392 262.502 89.1318 262.747 89.1318H272.481C272.725 89.1318 272.923 88.9392 272.923 88.7017C272.923 88.4642 272.725 88.2717 272.481 88.2717Z" fill="#F28989"/>
<path opacity="0.66" d="M272.26 89.9919H262.968C262.601 89.9919 262.304 90.2808 262.304 90.637C262.304 90.9933 262.601 91.2821 262.968 91.2821H272.26C272.626 91.2821 272.923 90.9933 272.923 90.637C272.923 90.2808 272.626 89.9919 272.26 89.9919Z" fill="#F28989"/>
<path opacity="0.66" d="M261.419 88.4867C261.419 87.4179 260.528 86.5515 259.428 86.5515C258.328 86.5515 257.437 87.4179 257.437 88.4867V89.3469C257.437 90.4157 258.328 91.2821 259.428 91.2821C260.528 91.2821 261.419 90.4157 261.419 89.3469V88.4867Z" fill="#F28989"/>
<g filter="url(#filter9_d)">
<path d="M100.216 82.0447C95.5352 81.9661 91.0756 80.094 87.8076 76.8356C84.5397 73.5772 82.7278 69.1962 82.7662 64.6459C82.8047 60.0956 84.6903 55.7442 88.0129 52.5384C91.3355 49.3326 95.8261 47.5318 100.508 47.528H135.066C139.776 47.528 144.292 49.3464 147.623 52.5832C150.953 55.82 152.824 60.2101 152.824 64.7876C152.824 69.3652 150.953 73.7552 147.623 76.9921C144.292 80.2289 139.776 82.0473 135.066 82.0473H110.139L100.869 92.5374L100.216 82.0447Z" fill="white"/>
</g>
<path opacity="0.66" d="M141.734 55.1568H96.6028C95.7475 55.1568 95.0542 55.8307 95.0542 56.662C95.0542 57.4933 95.7475 58.1672 96.6028 58.1672H141.734C142.589 58.1672 143.282 57.4933 143.282 56.662C143.282 55.8307 142.589 55.1568 141.734 55.1568Z" fill="#BDE2FC"/>
<path opacity="0.66" d="M141.955 62.0378H96.3816C95.6485 62.0378 95.0542 62.6154 95.0542 63.328V64.1881C95.0542 64.9006 95.6485 65.4783 96.3816 65.4783H141.955C142.688 65.4783 143.282 64.9006 143.282 64.1881V63.328C143.282 62.6154 142.688 62.0378 141.955 62.0378Z" fill="#BDE2FC"/>
<path opacity="0.66" d="M141.955 69.7789H96.3816C95.6485 69.7789 95.0542 70.3566 95.0542 71.0691C95.0542 71.7817 95.6485 72.3593 96.3816 72.3593H141.955C142.688 72.3593 143.282 71.7817 143.282 71.0691C143.282 70.3566 142.688 69.7789 141.955 69.7789Z" fill="#BDE2FC"/>
<g filter="url(#filter10_d)">
<path d="M217.471 53.9806C215.174 53.1728 213.243 51.6037 212.019 49.5492C210.794 47.4947 210.354 45.0863 210.776 42.7477C211.198 40.409 212.455 38.2898 214.325 36.7627C216.196 35.2356 218.56 34.3983 221.003 34.3982H239.536C242.289 34.3982 244.93 35.4613 246.877 37.3537C248.824 39.2461 249.918 41.8127 249.918 44.489C249.918 47.1652 248.824 49.7318 246.877 51.6242C244.93 53.5166 242.289 54.5797 239.536 54.5797H224.223L224.7 60.4599L217.471 53.9806Z" fill="white"/>
</g>
<path opacity="0.66" d="M243.72 38.8145H218.5C218.011 38.8145 217.615 39.1996 217.615 39.6746C217.615 40.1497 218.011 40.5348 218.5 40.5348H243.72C244.209 40.5348 244.605 40.1497 244.605 39.6746C244.605 39.1996 244.209 38.8145 243.72 38.8145Z" fill="#BDE2FC"/>
<path opacity="0.66" d="M243.499 42.6851H218.721C218.11 42.6851 217.615 43.1664 217.615 43.7602C217.615 44.354 218.11 44.8354 218.721 44.8354H243.499C244.11 44.8354 244.605 44.354 244.605 43.7602C244.605 43.1664 244.11 42.6851 243.499 42.6851Z" fill="#BDE2FC"/>
<path opacity="0.66" d="M243.941 47.4158H218.279C217.912 47.4158 217.615 47.7046 217.615 48.0609C217.615 48.4171 217.912 48.706 218.279 48.706H243.941C244.308 48.706 244.605 48.4171 244.605 48.0609C244.605 47.7046 244.308 47.4158 243.941 47.4158Z" fill="#BDE2FC"/>
<g filter="url(#filter11_d)">
<path d="M244.228 99.4519H259.999C260.241 99.4722 260.465 99.5843 260.623 99.764C260.78 99.9437 260.858 100.176 260.84 100.412V105.5C260.858 105.736 260.78 105.968 260.623 106.148C260.465 106.328 260.241 106.44 259.999 106.46H244.228C243.986 106.44 243.762 106.328 243.605 106.148C243.447 105.968 243.369 105.736 243.387 105.5V100.412C243.369 100.176 243.447 99.9437 243.605 99.764C243.762 99.5843 243.986 99.4722 244.228 99.4519V99.4519Z" fill="white"/>
</g>
<path opacity="0.66" d="M258.985 100.313H249.693C249.327 100.313 249.03 100.602 249.03 100.958C249.03 101.315 249.327 101.604 249.693 101.604H258.985C259.352 101.604 259.649 101.315 259.649 100.958C259.649 100.602 259.352 100.313 258.985 100.313Z" fill="#BDE2FC"/>
<path opacity="0.66" d="M259.206 102.464H249.472C249.228 102.464 249.03 102.656 249.03 102.894C249.03 103.131 249.228 103.324 249.472 103.324H259.206C259.451 103.324 259.649 103.131 259.649 102.894C259.649 102.656 259.451 102.464 259.206 102.464Z" fill="#BDE2FC"/>
<path opacity="0.66" d="M258.985 104.184H249.693C249.327 104.184 249.03 104.473 249.03 104.829C249.03 105.185 249.327 105.474 249.693 105.474H258.985C259.352 105.474 259.649 105.185 259.649 104.829C259.649 104.473 259.352 104.184 258.985 104.184Z" fill="#BDE2FC"/>
<path opacity="0.66" d="M248.145 102.034C248.145 101.084 247.353 100.313 246.375 100.313C245.398 100.313 244.605 101.084 244.605 102.034V103.754C244.605 104.704 245.398 105.474 246.375 105.474C247.353 105.474 248.145 104.704 248.145 103.754V102.034Z" fill="#BDE2FC"/>
<g filter="url(#filter12_d)">
<path d="M92.5599 140.707H108.804C109.282 140.707 109.668 140.96 109.668 141.271V144.26C109.668 144.571 109.282 144.823 108.804 144.823H92.5599C92.0825 144.824 91.6958 144.571 91.6958 144.26V141.271C91.6958 140.96 92.0825 140.707 92.5599 140.707Z" fill="white"/>
</g>
<path opacity="0.66" d="M107.886 141.169H98.1519C97.9076 141.169 97.7095 141.362 97.7095 141.599C97.7095 141.837 97.9076 142.029 98.1519 142.029H107.886C108.13 142.029 108.328 141.837 108.328 141.599C108.328 141.362 108.13 141.169 107.886 141.169Z" fill="#BDE2FC"/>
<path opacity="0.66" d="M108.107 142.459H97.9307C97.8085 142.459 97.7095 142.556 97.7095 142.674C97.7095 142.793 97.8085 142.889 97.9307 142.889H108.107C108.229 142.889 108.328 142.793 108.328 142.674C108.328 142.556 108.229 142.459 108.107 142.459Z" fill="#BDE2FC"/>
<path opacity="0.66" d="M108.107 143.75H97.9307C97.8085 143.75 97.7095 143.846 97.7095 143.965C97.7095 144.083 97.8085 144.18 97.9307 144.18H108.107C108.229 144.18 108.328 144.083 108.328 143.965C108.328 143.846 108.229 143.75 108.107 143.75Z" fill="#BDE2FC"/>
<path opacity="0.66" d="M94.8333 141.169H94.3909C93.5356 141.169 92.8423 141.843 92.8423 142.674C92.8423 143.506 93.5356 144.18 94.3909 144.18H94.8333C95.6886 144.18 96.382 143.506 96.382 142.674C96.382 141.843 95.6886 141.169 94.8333 141.169Z" fill="#BDE2FC"/>
<defs>
<filter id="filter0_d" x="76.666" y="204.831" width="102.261" height="15.0104" filterUnits="userSpaceOnUse" color-interpolation-filters="sRGB">
<feFlood flood-opacity="0" result="BackgroundImageFix"/>
<feColorMatrix in="SourceAlpha" type="matrix" values="0 0 0 0 0 0 0 0 0 0 0 0 0 0 0 0 0 0 127 0"/>
<feOffset dy="3"/>
<feGaussianBlur stdDeviation="3"/>
<feColorMatrix type="matrix" values="0 0 0 0 0 0 0 0 0 0 0 0 0 0 0 0 0 0 0.161 0"/>
<feBlend mode="normal" in2="BackgroundImageFix" result="effect1_dropShadow"/>
<feBlend mode="normal" in="SourceGraphic" in2="effect1_dropShadow" result="shape"/>
</filter>
<filter id="filter1_d" x="101.164" y="143.517" width="29.9726" height="16.1161" filterUnits="userSpaceOnUse" color-interpolation-filters="sRGB">
<feFlood flood-opacity="0" result="BackgroundImageFix"/>
<feColorMatrix in="SourceAlpha" type="matrix" values="0 0 0 0 0 0 0 0 0 0 0 0 0 0 0 0 0 0 127 0"/>
<feOffset dy="3"/>
<feGaussianBlur stdDeviation="3"/>
<feColorMatrix type="matrix" values="0 0 0 0 0 0 0 0 0 0 0 0 0 0 0 0 0 0 0.161 0"/>
<feBlend mode="normal" in2="BackgroundImageFix" result="effect1_dropShadow"/>
<feBlend mode="normal" in="SourceGraphic" in2="effect1_dropShadow" result="shape"/>
</filter>
<filter id="filter2_d" x="105.383" y="118.88" width="29.9726" height="16.1161" filterUnits="userSpaceOnUse" color-interpolation-filters="sRGB">
<feFlood flood-opacity="0" result="BackgroundImageFix"/>
<feColorMatrix in="SourceAlpha" type="matrix" values="0 0 0 0 0 0 0 0 0 0 0 0 0 0 0 0 0 0 127 0"/>
<feOffset dy="3"/>
<feGaussianBlur stdDeviation="3"/>
<feColorMatrix type="matrix" values="0 0 0 0 0 0 0 0 0 0 0 0 0 0 0 0 0 0 0.161 0"/>
<feBlend mode="normal" in2="BackgroundImageFix" result="effect1_dropShadow"/>
<feBlend mode="normal" in="SourceGraphic" in2="effect1_dropShadow" result="shape"/>
</filter>
<filter id="filter3_d" x="83.2349" y="123.076" width="29.9726" height="16.1161" filterUnits="userSpaceOnUse" color-interpolation-filters="sRGB">
<feFlood flood-opacity="0" result="BackgroundImageFix"/>
<feColorMatrix in="SourceAlpha" type="matrix" values="0 0 0 0 0 0 0 0 0 0 0 0 0 0 0 0 0 0 127 0"/>
<feOffset dy="3"/>
<feGaussianBlur stdDeviation="3"/>
<feColorMatrix type="matrix" values="0 0 0 0 0 0 0 0 0 0 0 0 0 0 0 0 0 0 0.161 0"/>
<feBlend mode="normal" in2="BackgroundImageFix" result="effect1_dropShadow"/>
<feBlend mode="normal" in="SourceGraphic" in2="effect1_dropShadow" result="shape"/>
</filter>
<filter id="filter4_d" x="99.2305" y="129.531" width="29.9726" height="16.1161" filterUnits="userSpaceOnUse" color-interpolation-filters="sRGB">
<feFlood flood-opacity="0" result="BackgroundImageFix"/>
<feColorMatrix in="SourceAlpha" type="matrix" values="0 0 0 0 0 0 0 0 0 0 0 0 0 0 0 0 0 0 127 0"/>
<feOffset dy="3"/>
<feGaussianBlur stdDeviation="3"/>
<feColorMatrix type="matrix" values="0 0 0 0 0 0 0 0 0 0 0 0 0 0 0 0 0 0 0.161 0"/>
<feBlend mode="normal" in2="BackgroundImageFix" result="effect1_dropShadow"/>
<feBlend mode="normal" in="SourceGraphic" in2="effect1_dropShadow" result="shape"/>
</filter>
<filter id="filter5_d" x="252.404" y="106.343" width="29.4578" height="19.0083" filterUnits="userSpaceOnUse" color-interpolation-filters="sRGB">
<feFlood flood-opacity="0" result="BackgroundImageFix"/>
<feColorMatrix in="SourceAlpha" type="matrix" values="0 0 0 0 0 0 0 0 0 0 0 0 0 0 0 0 0 0 127 0"/>
<feOffset dy="3"/>
<feGaussianBlur stdDeviation="3"/>
<feColorMatrix type="matrix" values="0 0 0 0 0 0 0 0 0 0 0 0 0 0 0 0 0 0 0.161 0"/>
<feBlend mode="normal" in2="BackgroundImageFix" result="effect1_dropShadow"/>
<feBlend mode="normal" in="SourceGraphic" in2="effect1_dropShadow" result="shape"/>
</filter>
<filter id="filter6_d" x="256.501" y="64.3986" width="29.4579" height="19.0083" filterUnits="userSpaceOnUse" color-interpolation-filters="sRGB">
<feFlood flood-opacity="0" result="BackgroundImageFix"/>
<feColorMatrix in="SourceAlpha" type="matrix" values="0 0 0 0 0 0 0 0 0 0 0 0 0 0 0 0 0 0 127 0"/>
<feOffset dy="3"/>
<feGaussianBlur stdDeviation="3"/>
<feColorMatrix type="matrix" values="0 0 0 0 0 0 0 0 0 0 0 0 0 0 0 0 0 0 0.161 0"/>
<feBlend mode="normal" in2="BackgroundImageFix" result="effect1_dropShadow"/>
<feBlend mode="normal" in="SourceGraphic" in2="effect1_dropShadow" result="shape"/>
</filter>
<filter id="filter7_d" x="234.996" y="71.5414" width="29.4578" height="19.0083" filterUnits="userSpaceOnUse" color-interpolation-filters="sRGB">
<feFlood flood-opacity="0" result="BackgroundImageFix"/>
<feColorMatrix in="SourceAlpha" type="matrix" values="0 0 0 0 0 0 0 0 0 0 0 0 0 0 0 0 0 0 127 0"/>
<feOffset dy="3"/>
<feGaussianBlur stdDeviation="3"/>
<feColorMatrix type="matrix" values="0 0 0 0 0 0 0 0 0 0 0 0 0 0 0 0 0 0 0.161 0"/>
<feBlend mode="normal" in2="BackgroundImageFix" result="effect1_dropShadow"/>
<feBlend mode="normal" in="SourceGraphic" in2="effect1_dropShadow" result="shape"/>
</filter>
<filter id="filter8_d" x="250.527" y="82.5317" width="29.4578" height="19.0083" filterUnits="userSpaceOnUse" color-interpolation-filters="sRGB">
<feFlood flood-opacity="0" result="BackgroundImageFix"/>
<feColorMatrix in="SourceAlpha" type="matrix" values="0 0 0 0 0 0 0 0 0 0 0 0 0 0 0 0 0 0 127 0"/>
<feOffset dy="3"/>
<feGaussianBlur stdDeviation="3"/>
<feColorMatrix type="matrix" values="0 0 0 0 0 0 0 0 0 0 0 0 0 0 0 0 0 0 0.161 0"/>
<feBlend mode="normal" in2="BackgroundImageFix" result="effect1_dropShadow"/>
<feBlend mode="normal" in="SourceGraphic" in2="effect1_dropShadow" result="shape"/>
</filter>
<filter id="filter9_d" x="76.7656" y="44.528" width="82.0579" height="57.0094" filterUnits="userSpaceOnUse" color-interpolation-filters="sRGB">
<feFlood flood-opacity="0" result="BackgroundImageFix"/>
<feColorMatrix in="SourceAlpha" type="matrix" values="0 0 0 0 0 0 0 0 0 0 0 0 0 0 0 0 0 0 127 0"/>
<feOffset dy="3"/>
<feGaussianBlur stdDeviation="3"/>
<feColorMatrix type="matrix" values="0 0 0 0 0 0 0 0 0 0 0 0 0 0 0 0 0 0 0.161 0"/>
<feBlend mode="normal" in2="BackgroundImageFix" result="effect1_dropShadow"/>
<feBlend mode="normal" in="SourceGraphic" in2="effect1_dropShadow" result="shape"/>
</filter>
<filter id="filter10_d" x="204.62" y="31.3982" width="51.2975" height="38.0618" filterUnits="userSpaceOnUse" color-interpolation-filters="sRGB">
<feFlood flood-opacity="0" result="BackgroundImageFix"/>
<feColorMatrix in="SourceAlpha" type="matrix" values="0 0 0 0 0 0 0 0 0 0 0 0 0 0 0 0 0 0 127 0"/>
<feOffset dy="3"/>
<feGaussianBlur stdDeviation="3"/>
<feColorMatrix type="matrix" values="0 0 0 0 0 0 0 0 0 0 0 0 0 0 0 0 0 0 0.161 0"/>
<feBlend mode="normal" in2="BackgroundImageFix" result="effect1_dropShadow"/>
<feBlend mode="normal" in="SourceGraphic" in2="effect1_dropShadow" result="shape"/>
</filter>
<filter id="filter11_d" x="237.385" y="96.4519" width="29.4579" height="19.0083" filterUnits="userSpaceOnUse" color-interpolation-filters="sRGB">
<feFlood flood-opacity="0" result="BackgroundImageFix"/>
<feColorMatrix in="SourceAlpha" type="matrix" values="0 0 0 0 0 0 0 0 0 0 0 0 0 0 0 0 0 0 127 0"/>
<feOffset dy="3"/>
<feGaussianBlur stdDeviation="3"/>
<feColorMatrix type="matrix" values="0 0 0 0 0 0 0 0 0 0 0 0 0 0 0 0 0 0 0.161 0"/>
<feBlend mode="normal" in2="BackgroundImageFix" result="effect1_dropShadow"/>
<feBlend mode="normal" in="SourceGraphic" in2="effect1_dropShadow" result="shape"/>
</filter>
<filter id="filter12_d" x="85.6958" y="137.707" width="29.9727" height="16.1161" filterUnits="userSpaceOnUse" color-interpolation-filters="sRGB">
<feFlood flood-opacity="0" result="BackgroundImageFix"/>
<feColorMatrix in="SourceAlpha" type="matrix" values="0 0 0 0 0 0 0 0 0 0 0 0 0 0 0 0 0 0 127 0"/>
<feOffset dy="3"/>
<feGaussianBlur stdDeviation="3"/>
<feColorMatrix type="matrix" values="0 0 0 0 0 0 0 0 0 0 0 0 0 0 0 0 0 0 0.161 0"/>
<feBlend mode="normal" in2="BackgroundImageFix" result="effect1_dropShadow"/>
<feBlend mode="normal" in="SourceGraphic" in2="effect1_dropShadow" result="shape"/>
</filter>
<linearGradient id="paint0_linear" x1="123.087" y1="202" x2="123.055" y2="257.608" gradientUnits="userSpaceOnUse">
<stop stop-color="#F1F1F1"/>
<stop offset="1" stop-color="#797979"/>
</linearGradient>
<linearGradient id="paint1_linear" x1="92.5948" y1="206.308" x2="92.7301" y2="212.677" gradientUnits="userSpaceOnUse">
<stop stop-color="#1B7EC2"/>
<stop offset="1" stop-color="#0E3F61"/>
</linearGradient>
<linearGradient id="paint2_linear" x1="126.911" y1="202.178" x2="126.911" y2="192.179" gradientUnits="userSpaceOnUse">
<stop stop-color="#1B7EC2"/>
<stop offset="1" stop-color="#0E3F61"/>
</linearGradient>
</defs>
</svg>
