<svg width="242" height="210" viewBox="0 0 242 210" fill="none" xmlns="http://www.w3.org/2000/svg">
<g clip-path="url(#clip0)">
<path d="M37.0552 190.795C51.7911 188.198 55.5892 186.393 90.7417 186.711C125.894 187.03 150.856 187.266 186.32 192.308C221.783 197.35 217.121 207.816 200.722 204.413C184.324 201.01 182.177 210.682 145.587 209.962C108.998 209.242 109.651 207.629 81.2041 204.413C52.7575 201.198 41.9319 200.339 31.7996 197.1C21.6673 193.86 22.3198 193.392 37.0552 190.795Z" fill="url(#paint0_linear)"/>
<path d="M89.7224 172.984C89.7224 172.984 53.663 142.951 14.8373 111.249C-23.9884 79.547 24.3019 75.9318 36.1499 51.4618C47.9979 26.9917 103.201 -10.5621 131.777 2.79546C160.352 16.1531 154.771 38.5296 200.762 59.8032C246.754 81.0768 236.938 91.7831 223.756 111.249C210.575 130.715 192.629 144.619 192.629 144.619L185.898 149.07L142.432 172.985L89.7224 172.984Z" fill="#BDE2FC"/>
<g filter="url(#filter0_d)">
<path d="M109.916 36.8224H108.979C108.449 36.8057 107.949 36.5881 107.586 36.2173C107.224 35.8466 107.03 35.3531 107.046 34.8451V24.3667C107.03 23.8587 107.224 23.3652 107.586 22.9945C107.949 22.6238 108.449 22.4061 108.979 22.3894H145.303C145.832 22.4061 146.333 22.6238 146.695 22.9945C147.057 23.3652 147.251 23.8587 147.235 24.3667V34.8451C147.251 35.3531 147.057 35.8466 146.695 36.2173C146.333 36.5881 145.832 36.8057 145.303 36.8224H112.991L108.681 42.869L109.916 36.8224Z" fill="white"/>
</g>
<g filter="url(#filter1_d)">
<path d="M200.207 89.8284H236.531C237.06 89.8452 237.561 90.0627 237.923 90.4334C238.285 90.804 238.479 91.2974 238.463 91.8054V102.284C238.479 102.792 238.285 103.285 237.923 103.656C237.561 104.027 237.06 104.244 236.531 104.261H200.207C199.677 104.244 199.177 104.027 198.814 103.656C198.452 103.285 198.258 102.792 198.274 102.284V91.8054C198.258 91.2974 198.452 90.804 198.814 90.4334C199.177 90.0627 199.677 89.8452 200.207 89.8284V89.8284Z" fill="white"/>
</g>
<path opacity="0.66" d="M234.103 91.8076H212.878C212.227 91.8076 211.699 92.3143 211.699 92.9392C211.699 93.5642 212.227 94.0709 212.878 94.0709H234.103C234.754 94.0709 235.282 93.5642 235.282 92.9392C235.282 92.3143 234.754 91.8076 234.103 91.8076Z" fill="#BDE2FC"/>
<path opacity="0.66" d="M234.103 95.5797H212.878C212.227 95.5797 211.699 96.0864 211.699 96.7113C211.699 97.3363 212.227 97.8429 212.878 97.8429H234.103C234.754 97.8429 235.282 97.3363 235.282 96.7113C235.282 96.0864 234.754 95.5797 234.103 95.5797Z" fill="#BDE2FC"/>
<path opacity="0.66" d="M234.103 98.9745H212.878C212.227 98.9745 211.699 99.4812 211.699 100.106V100.483C211.699 101.108 212.227 101.615 212.878 101.615H234.103C234.754 101.615 235.282 101.108 235.282 100.483V100.106C235.282 99.4812 234.754 98.9745 234.103 98.9745Z" fill="#BDE2FC"/>
<path opacity="0.66" d="M207.375 91.8076H202.658C201.573 91.8076 200.693 92.652 200.693 93.6936V99.7289C200.693 100.771 201.573 101.615 202.658 101.615H207.375C208.46 101.615 209.34 100.771 209.34 99.7289V93.6936C209.34 92.652 208.46 91.8076 207.375 91.8076Z" fill="#BDE2FC"/>
<g filter="url(#filter2_d)">
<path d="M102.913 75.3075H139.237C139.766 75.3242 140.267 75.5418 140.629 75.9124C140.991 76.2831 141.185 76.7765 141.169 77.2844V87.7632C141.185 88.2711 140.991 88.7646 140.629 89.1352C140.267 89.5058 139.766 89.7234 139.237 89.7401H102.913C102.383 89.7234 101.883 89.5058 101.521 89.1352C101.158 88.7646 100.964 88.2711 100.98 87.7632V77.2844C100.964 76.7765 101.158 76.2831 101.521 75.9124C101.883 75.5418 102.383 75.3242 102.913 75.3075V75.3075Z" fill="white"/>
</g>
<path opacity="0.66" d="M136.427 77.0966H115.595C114.835 77.0966 114.219 77.6877 114.219 78.4168C114.219 79.146 114.835 79.737 115.595 79.737H136.427C137.187 79.737 137.803 79.146 137.803 78.4168C137.803 77.6877 137.187 77.0966 136.427 77.0966Z" fill="#C72855"/>
<path opacity="0.66" d="M136.624 80.8687H115.398C114.747 80.8687 114.219 81.3753 114.219 82.0003V82.3775C114.219 83.0025 114.747 83.5091 115.398 83.5091H136.624C137.275 83.5091 137.803 83.0025 137.803 82.3775V82.0003C137.803 81.3753 137.275 80.8687 136.624 80.8687Z" fill="#C72855"/>
<path opacity="0.66" d="M136.624 84.6407H115.398C114.747 84.6407 114.219 85.1473 114.219 85.7723C114.219 86.3973 114.747 86.9039 115.398 86.9039H136.624C137.275 86.9039 137.803 86.3973 137.803 85.7723C137.803 85.1473 137.275 84.6407 136.624 84.6407Z" fill="#C72855"/>
<path opacity="0.66" d="M110.289 77.0966H105.572C104.487 77.0966 103.607 77.941 103.607 78.9826V85.0179C103.607 86.0595 104.487 86.9039 105.572 86.9039H110.289C111.374 86.9039 112.254 86.0595 112.254 85.0179V78.9826C112.254 77.941 111.374 77.0966 110.289 77.0966Z" fill="#C72855"/>
<path opacity="0.66" d="M142.127 24.6652H121.295C120.644 24.6652 120.116 25.1718 120.116 25.7968C120.116 26.4218 120.644 26.9284 121.295 26.9284H142.127C142.778 26.9284 143.306 26.4218 143.306 25.7968C143.306 25.1718 142.778 24.6652 142.127 24.6652Z" fill="#BDE2FC"/>
<path opacity="0.66" d="M142.127 28.06H121.295C120.644 28.06 120.116 28.5666 120.116 29.1916V29.5688C120.116 30.1938 120.644 30.7004 121.295 30.7004H142.127C142.778 30.7004 143.306 30.1938 143.306 29.5688V29.1916C143.306 28.5666 142.778 28.06 142.127 28.06Z" fill="#BDE2FC"/>
<path opacity="0.66" d="M142.127 31.832H121.295C120.644 31.832 120.116 32.3387 120.116 32.9636V33.3409C120.116 33.9658 120.644 34.4725 121.295 34.4725H142.127C142.778 34.4725 143.306 33.9658 143.306 33.3409V32.9636C143.306 32.3387 142.778 31.832 142.127 31.832Z" fill="#BDE2FC"/>
<path opacity="0.66" d="M115.792 24.6652H111.075C109.99 24.6652 109.11 25.5096 109.11 26.5512V32.5865C109.11 33.6281 109.99 34.4725 111.075 34.4725H115.792C116.877 34.4725 117.757 33.6281 117.757 32.5865V26.5512C117.757 25.5096 116.877 24.6652 115.792 24.6652Z" fill="#BDE2FC"/>
<path d="M175.144 100.106H66.6595C61.4496 100.106 57.2261 104.159 57.2261 109.159V170.644C57.2261 175.643 61.4496 179.697 66.6595 179.697H175.144C180.354 179.697 184.578 175.643 184.578 170.644V109.159C184.578 104.159 180.354 100.106 175.144 100.106Z" fill="#1B7EC2"/>
<path d="M66.2665 100.106H175.537C177.935 100.106 180.234 101.02 181.93 102.647C183.625 104.274 184.578 106.481 184.578 108.782V164.986H57.2261V108.782C57.2261 106.481 58.1785 104.274 59.8739 102.647C61.5693 101.02 63.8688 100.106 66.2665 100.106V100.106Z" fill="black"/>
<path d="M70.5902 103.124H172.786C175.183 103.124 177.483 104.038 179.178 105.665C180.874 107.292 181.826 109.499 181.826 111.8V161.591H61.5498V111.8C61.5498 109.499 62.5023 107.292 64.1977 105.665C65.8931 104.038 68.1925 103.124 70.5902 103.124V103.124Z" fill="white"/>
<path d="M70.5899 103.312H172.786C173.947 103.312 175.097 103.532 176.17 103.958C177.243 104.385 178.218 105.01 179.039 105.798C179.86 106.586 180.512 107.522 180.956 108.552C181.401 109.581 181.629 110.685 181.629 111.8V161.213C181.629 161.263 181.609 161.311 181.572 161.347C181.535 161.382 181.485 161.402 181.433 161.402H61.9426C61.8905 161.402 61.8405 161.382 61.8037 161.347C61.7668 161.311 61.7461 161.263 61.7461 161.213V111.8C61.7461 109.549 62.6779 107.39 64.3364 105.798C65.9949 104.207 68.2444 103.312 70.5899 103.312V103.312Z" stroke="#707070"/>
<path d="M120.902 174.793C122.638 174.793 124.046 173.526 124.046 171.964C124.046 170.401 122.638 169.135 120.902 169.135C119.165 169.135 117.757 170.401 117.757 171.964C117.757 173.526 119.165 174.793 120.902 174.793Z" fill="white"/>
<path d="M120.902 174.604C122.53 174.604 123.85 173.422 123.85 171.964C123.85 170.506 122.53 169.323 120.902 169.323C119.274 169.323 117.954 170.506 117.954 171.964C117.954 173.422 119.274 174.604 120.902 174.604Z" stroke="#707070"/>
<path d="M127.584 179.697H114.22V194.408H127.584V179.697Z" fill="#1B7EC2"/>
<g filter="url(#filter3_d)">
<path d="M161.78 194.409H81.5962V197.049H161.78V194.409Z" fill="url(#paint1_linear)"/>
</g>
<path d="M127.584 179.697H114.22V191.013H127.584V179.697Z" fill="url(#paint2_linear)"/>
<path d="M173.965 105.764H70.9833C67.7271 105.764 65.0874 108.297 65.0874 111.422V153.292C65.0874 156.417 67.7271 158.95 70.9833 158.95H173.965C177.221 158.95 179.861 156.417 179.861 153.292V111.422C179.861 108.297 177.221 105.764 173.965 105.764Z" fill="#BDE2FC"/>
<path d="M120.116 116.326H89.457C87.0691 116.326 85.1333 118.184 85.1333 120.475V126.511C85.1333 128.802 87.0691 130.66 89.457 130.66H120.116C122.504 130.66 124.439 128.802 124.439 126.511V120.475C124.439 118.184 122.504 116.326 120.116 116.326Z" fill="white"/>
<path d="M119.722 133.677H113.827C111.222 133.677 109.11 135.704 109.11 138.204V138.581C109.11 141.081 111.222 143.108 113.827 143.108H119.722C122.327 143.108 124.439 141.081 124.439 138.581V138.204C124.439 135.704 122.327 133.677 119.722 133.677Z" fill="white"/>
<path d="M122.474 149.52H112.647C111.562 149.52 110.682 150.364 110.682 151.406C110.682 152.448 111.562 153.292 112.647 153.292H122.474C123.559 153.292 124.439 152.448 124.439 151.406C124.439 150.364 123.559 149.52 122.474 149.52Z" fill="white"/>
<path d="M100.07 149.52H90.2431C89.1577 149.52 88.2778 150.364 88.2778 151.406C88.2778 152.448 89.1577 153.292 90.2431 153.292H100.07C101.155 153.292 102.035 152.448 102.035 151.406C102.035 150.364 101.155 149.52 100.07 149.52Z" fill="white"/>
<path d="M164.138 116.326H137.803C134.981 116.326 132.693 118.521 132.693 121.23V148.389C132.693 151.097 134.981 153.292 137.803 153.292H164.138C166.96 153.292 169.248 151.097 169.248 148.389V121.23C169.248 118.521 166.96 116.326 164.138 116.326Z" fill="white"/>
<path d="M74.1278 106.141H69.8041C66.5479 106.141 63.9082 108.675 63.9082 111.8V153.669C63.9082 156.794 66.5479 159.327 69.8041 159.327H74.1278C77.384 159.327 80.0237 156.794 80.0237 153.669V111.8C80.0237 108.675 77.384 106.141 74.1278 106.141Z" fill="#1B7EC2"/>
<path d="M167.676 107.273H87.8847C86.3652 107.273 85.1333 108.455 85.1333 109.914C85.1333 111.372 86.3652 112.554 87.8847 112.554H167.676C169.195 112.554 170.427 111.372 170.427 109.914C170.427 108.455 169.195 107.273 167.676 107.273Z" fill="white"/>
<path d="M90.0476 109.103L91.0521 110.006L90.0693 110.93L89.0659 110.029L90.0476 109.103Z" fill="#75BFF2"/>
<path d="M88.5688 108.627C88.7559 108.498 89.3632 108.842 89.3632 108.842L90.0177 109.229L89.2245 109.961C89.2245 109.961 88.8507 109.488 88.8039 109.402C88.7571 109.316 88.3821 108.756 88.5688 108.627Z" fill="#75BFF2" stroke="#777777"/>
<path d="M90.0123 109.287L90.8621 110.052L90.1039 110.749L89.2729 109.984L90.0123 109.287Z" fill="#75BFF2"/>
<path d="M88.5513 111.398C88.4105 111.226 88.7836 110.666 88.7836 110.666L89.203 110.062L90.0001 110.793C90.0001 110.793 89.4867 111.138 89.3932 111.181C89.2996 111.225 88.6916 111.57 88.5513 111.398Z" fill="#75BFF2" stroke="#777777"/>
<path d="M91.5554 108.646C91.6969 108.817 91.3275 109.379 91.3275 109.379L90.9104 109.984L90.1113 109.258C90.1113 109.258 90.6223 108.911 90.7159 108.867C90.8094 108.823 91.4135 108.475 91.5554 108.646Z" fill="#75BFF2" stroke="#777777"/>
<path d="M91.5549 111.405C91.3671 111.533 90.7621 111.184 90.7621 111.184L90.1108 110.792L90.9111 110.066C90.9111 110.066 91.2814 110.542 91.3274 110.629C91.3733 110.715 91.7428 111.277 91.5549 111.405Z" fill="#75BFF2" stroke="#777777"/>
<path d="M91.8776 110.317C91.8776 110.246 91.916 110.211 91.9928 110.211H92.1327C92.1468 110.21 92.1609 110.211 92.1744 110.215C92.1879 110.219 92.2005 110.226 92.2113 110.234C92.2306 110.255 92.2417 110.282 92.2428 110.31C92.2472 110.345 92.2607 110.379 92.2821 110.408C92.2935 110.422 92.3084 110.433 92.3256 110.441C92.3428 110.448 92.3616 110.451 92.3804 110.45C92.398 110.451 92.4157 110.448 92.4323 110.442C92.4488 110.436 92.4639 110.427 92.4767 110.415C92.4909 110.4 92.5017 110.382 92.5085 110.363C92.5152 110.343 92.5178 110.323 92.516 110.302V109.649H92.2271C92.1503 109.649 92.1119 109.614 92.1119 109.544V109.468C92.1119 109.398 92.1503 109.362 92.2271 109.362H92.7648C92.8415 109.362 92.8799 109.398 92.8799 109.468V110.314C92.8816 110.382 92.8665 110.45 92.8359 110.512C92.8092 110.565 92.7706 110.613 92.7227 110.65C92.675 110.688 92.6203 110.716 92.5616 110.733C92.5027 110.751 92.4413 110.76 92.3796 110.76C92.3164 110.76 92.2536 110.751 92.1933 110.733C92.1346 110.714 92.08 110.686 92.0321 110.648C91.985 110.61 91.9465 110.563 91.9189 110.51C91.8898 110.449 91.8756 110.383 91.8776 110.317ZM93.3713 110.424C93.3711 110.435 93.3733 110.446 93.3776 110.457C93.3819 110.467 93.3883 110.476 93.3964 110.484C93.4072 110.493 93.4196 110.5 93.4331 110.504C93.4466 110.508 93.4609 110.51 93.475 110.509C93.5003 110.509 93.5253 110.504 93.5481 110.493C93.5698 110.482 93.5896 110.468 93.6067 110.451C93.6236 110.435 93.637 110.416 93.646 110.395C93.6554 110.376 93.6604 110.355 93.6605 110.334V110.307H93.6264C93.5969 110.307 93.5675 110.309 93.5383 110.313C93.5104 110.316 93.483 110.323 93.4566 110.332C93.434 110.341 93.4134 110.353 93.396 110.37C93.3884 110.377 93.3823 110.385 93.3782 110.395C93.3741 110.404 93.372 110.414 93.372 110.424H93.3713ZM93.0132 110.455C93.0108 110.395 93.0309 110.337 93.0698 110.29C93.1106 110.245 93.1614 110.21 93.2184 110.186C93.281 110.16 93.3471 110.142 93.4149 110.132C93.4834 110.122 93.5527 110.117 93.622 110.117H93.6535V110.1C93.6552 110.083 93.6518 110.066 93.6437 110.051C93.6355 110.036 93.6229 110.023 93.6075 110.015C93.5747 109.998 93.5379 109.989 93.5006 109.99C93.4659 109.99 93.4314 109.995 93.398 110.004C93.3666 110.012 93.3359 110.022 93.306 110.035C93.293 110.042 93.2783 110.047 93.2631 110.049C93.2478 110.051 93.2323 110.05 93.2176 110.046C93.2029 110.041 93.1894 110.034 93.1779 110.024C93.1665 110.014 93.1573 110.002 93.1511 109.989L93.126 109.941C93.1115 109.916 93.107 109.887 93.1134 109.86C93.1178 109.846 93.1254 109.834 93.1355 109.823C93.1456 109.812 93.1581 109.804 93.172 109.799C93.2215 109.777 93.2726 109.76 93.3249 109.746C93.3931 109.729 93.4634 109.721 93.534 109.722C93.6611 109.714 93.7864 109.753 93.8858 109.829C93.9293 109.866 93.9637 109.912 93.9861 109.963C94.0086 110.014 94.0186 110.07 94.0155 110.125V110.63C94.0155 110.7 93.9771 110.736 93.9003 110.736H93.7997C93.7843 110.738 93.7686 110.737 93.7537 110.732C93.7389 110.728 93.7254 110.72 93.7142 110.709C93.703 110.699 93.6945 110.686 93.6894 110.672C93.6842 110.658 93.6826 110.643 93.6845 110.628V110.607C93.6844 110.606 93.6846 110.605 93.6849 110.604C93.6852 110.603 93.6858 110.602 93.6865 110.601H93.6822C93.6604 110.631 93.6339 110.658 93.6036 110.68C93.5728 110.703 93.539 110.722 93.5029 110.736C93.4581 110.752 93.4105 110.76 93.3626 110.759C93.3141 110.759 93.2659 110.752 93.2203 110.736C93.1794 110.722 93.1418 110.7 93.1095 110.673C93.0787 110.645 93.0538 110.613 93.0364 110.576C93.0203 110.538 93.0128 110.497 93.0144 110.455H93.0132ZM94.2128 109.85C94.2128 109.779 94.2512 109.744 94.328 109.744H94.4459C94.461 109.742 94.4765 109.743 94.4911 109.748C94.5057 109.752 94.519 109.76 94.53 109.77C94.541 109.78 94.5493 109.793 94.5544 109.807C94.5594 109.82 94.561 109.835 94.5591 109.85V109.867C94.5591 109.87 94.5584 109.872 94.5571 109.875V109.892H94.5614C94.574 109.875 94.5894 109.857 94.6074 109.836C94.628 109.815 94.6512 109.796 94.6766 109.78C94.7048 109.763 94.735 109.749 94.7666 109.738C94.8037 109.726 94.8427 109.72 94.8818 109.721C94.9446 109.719 95.0067 109.734 95.0618 109.763C95.1156 109.791 95.1583 109.835 95.1833 109.888H95.1876C95.2029 109.866 95.2211 109.846 95.2418 109.828C95.2658 109.807 95.2922 109.789 95.3204 109.774C95.3506 109.758 95.383 109.745 95.4167 109.737C95.4542 109.726 95.4929 109.721 95.5319 109.721C95.578 109.721 95.6239 109.727 95.6679 109.74C95.7097 109.752 95.7478 109.774 95.7788 109.804C95.8128 109.836 95.8387 109.876 95.8542 109.919C95.8737 109.975 95.8829 110.034 95.8813 110.092V110.63C95.8813 110.7 95.843 110.736 95.7662 110.736H95.6349C95.5581 110.736 95.5197 110.7 95.5197 110.63V110.148C95.5209 110.117 95.5152 110.086 95.5028 110.057C95.497 110.045 95.4874 110.036 95.4754 110.029C95.4633 110.023 95.4495 110.021 95.436 110.023C95.4014 110.021 95.3672 110.03 95.3377 110.047C95.3112 110.064 95.289 110.087 95.2729 110.113C95.2566 110.142 95.2453 110.174 95.2395 110.207C95.2324 110.242 95.2288 110.278 95.2289 110.315V110.63C95.2289 110.7 95.1905 110.736 95.1137 110.736H94.982C94.9052 110.736 94.8669 110.7 94.8669 110.63V110.148C94.8681 110.117 94.8623 110.086 94.8499 110.057C94.8441 110.045 94.8345 110.036 94.8225 110.029C94.8105 110.023 94.7967 110.021 94.7831 110.023C94.7469 110.021 94.711 110.03 94.6805 110.049C94.6541 110.067 94.6325 110.091 94.6177 110.118C94.6016 110.147 94.5903 110.179 94.5842 110.211C94.5787 110.245 94.576 110.28 94.576 110.315V110.63C94.576 110.7 94.5376 110.736 94.4608 110.736H94.3291C94.2524 110.736 94.214 110.7 94.214 110.63L94.2128 109.85ZM96.4328 110.236C96.4326 110.268 96.4368 110.3 96.4454 110.33C96.4543 110.358 96.4675 110.385 96.4847 110.409C96.5026 110.431 96.5246 110.449 96.5495 110.463C96.5775 110.476 96.6084 110.483 96.6396 110.482C96.6681 110.483 96.6964 110.478 96.7227 110.467C96.7491 110.456 96.7728 110.441 96.7925 110.421C96.8146 110.397 96.8316 110.369 96.8424 110.339C96.8532 110.308 96.8576 110.276 96.8553 110.244C96.8588 110.181 96.8379 110.118 96.7968 110.069C96.7789 110.047 96.756 110.03 96.7299 110.018C96.7037 110.006 96.6751 110.001 96.6462 110.002C96.6182 110.002 96.5904 110.007 96.5645 110.017C96.5392 110.026 96.5164 110.041 96.4977 110.06C96.4769 110.081 96.4606 110.106 96.4497 110.133C96.4382 110.166 96.4327 110.201 96.4336 110.236H96.4328ZM96.081 109.465C96.081 109.395 96.1194 109.359 96.1962 109.359H96.3279C96.4046 109.359 96.443 109.395 96.443 109.465V109.762C96.4432 109.774 96.4425 109.786 96.4411 109.797V109.824C96.4398 109.831 96.4392 109.839 96.4391 109.847H96.4434C96.4642 109.823 96.4889 109.802 96.5165 109.785C96.5452 109.768 96.5761 109.753 96.6085 109.743C96.6506 109.728 96.6953 109.721 96.7402 109.722C96.8078 109.721 96.8748 109.734 96.9367 109.76C96.9946 109.784 97.046 109.82 97.0873 109.865C97.1305 109.913 97.1639 109.967 97.1855 110.027C97.21 110.093 97.2221 110.164 97.2213 110.234C97.2224 110.308 97.2091 110.382 97.182 110.451C97.1587 110.513 97.1232 110.569 97.0774 110.617C97.033 110.661 96.9795 110.697 96.9202 110.72C96.8581 110.746 96.7912 110.759 96.7237 110.758C96.6739 110.76 96.6242 110.752 96.5771 110.737C96.5441 110.725 96.5131 110.709 96.4851 110.689C96.4583 110.67 96.4349 110.647 96.4159 110.62H96.4116V110.634C96.4123 110.634 96.4128 110.635 96.4132 110.636C96.4135 110.637 96.4136 110.638 96.4135 110.639V110.647C96.4138 110.659 96.4113 110.671 96.4062 110.682C96.4011 110.693 96.3936 110.702 96.3841 110.71C96.3597 110.728 96.3292 110.737 96.2984 110.735H96.197C96.1202 110.735 96.0818 110.7 96.0818 110.63L96.081 109.465ZM97.6823 110.242C97.6818 110.276 97.6882 110.31 97.7012 110.342C97.7141 110.37 97.7325 110.396 97.7555 110.417C97.7782 110.438 97.8049 110.454 97.8341 110.465C97.895 110.486 97.9614 110.486 98.0223 110.465C98.0515 110.454 98.0782 110.438 98.101 110.417C98.1238 110.396 98.1416 110.37 98.1532 110.342C98.167 110.31 98.1742 110.276 98.1742 110.242C98.1742 110.207 98.167 110.173 98.1532 110.142C98.1417 110.113 98.1239 110.088 98.101 110.066C98.0786 110.045 98.0519 110.028 98.0223 110.016C97.9619 109.993 97.8945 109.993 97.8341 110.016C97.8045 110.028 97.7778 110.045 97.7555 110.066C97.7324 110.088 97.7139 110.113 97.7012 110.142C97.6885 110.174 97.6824 110.208 97.6831 110.242H97.6823ZM97.316 110.242C97.3149 110.168 97.3313 110.095 97.364 110.028C97.3948 109.966 97.439 109.91 97.4937 109.865C97.5515 109.818 97.6182 109.782 97.6902 109.759C97.8441 109.708 98.0115 109.708 98.1654 109.759C98.2377 109.781 98.3046 109.817 98.3619 109.865C98.4473 109.936 98.5063 110.032 98.5301 110.138C98.5538 110.244 98.541 110.355 98.4936 110.453C98.4618 110.515 98.417 110.571 98.3619 110.616C98.3052 110.662 98.2399 110.698 98.1693 110.72C98.0143 110.769 97.8472 110.769 97.6922 110.72C97.6205 110.697 97.5539 110.662 97.4956 110.616C97.4416 110.571 97.3975 110.515 97.3659 110.453C97.3332 110.387 97.3165 110.315 97.3172 110.242H97.316ZM98.6811 110.619C98.6704 110.612 98.6605 110.603 98.6516 110.594C98.6435 110.584 98.6371 110.573 98.6328 110.561C98.63 110.548 98.63 110.534 98.6328 110.521C98.6388 110.503 98.648 110.487 98.6599 110.473L98.7247 110.387C98.7321 110.375 98.7421 110.364 98.7541 110.356C98.766 110.348 98.7796 110.343 98.7939 110.341C98.8255 110.338 98.8571 110.346 98.8839 110.362L98.928 110.385L98.9885 110.413C99.0141 110.423 99.0404 110.431 99.0671 110.436C99.0966 110.443 99.1268 110.446 99.1571 110.446C99.1983 110.449 99.2395 110.439 99.275 110.419C99.2869 110.411 99.2967 110.401 99.3035 110.389C99.3104 110.377 99.3141 110.364 99.3143 110.35C99.3139 110.334 99.3091 110.317 99.3003 110.303C99.2914 110.289 99.279 110.277 99.264 110.269C99.2265 110.243 99.1857 110.222 99.1426 110.206C99.0938 110.185 99.0414 110.164 98.9853 110.143C98.9299 110.12 98.8772 110.092 98.8281 110.058C98.7797 110.025 98.7379 109.984 98.7047 109.937C98.671 109.882 98.6544 109.82 98.6567 109.756C98.6557 109.697 98.6692 109.638 98.696 109.585C98.7235 109.533 98.7621 109.487 98.8092 109.45C98.8594 109.412 98.917 109.383 98.9787 109.366C99.047 109.345 99.1184 109.334 99.1901 109.335C99.2717 109.334 99.3529 109.346 99.4307 109.37C99.4879 109.385 99.5428 109.408 99.5938 109.437C99.6068 109.444 99.6181 109.454 99.6271 109.465C99.6361 109.477 99.6425 109.49 99.6461 109.504C99.6491 109.53 99.6432 109.557 99.6292 109.579L99.5789 109.67C99.5579 109.707 99.5335 109.726 99.5058 109.728C99.4765 109.727 99.4478 109.72 99.422 109.706C99.3872 109.691 99.3509 109.677 99.3132 109.664C99.2724 109.649 99.229 109.642 99.1854 109.643C99.1415 109.639 99.0975 109.649 99.06 109.672C99.0482 109.679 99.0384 109.689 99.0315 109.701C99.0247 109.712 99.021 109.725 99.0207 109.739C99.0208 109.755 99.0252 109.772 99.0336 109.786C99.042 109.801 99.0541 109.813 99.0687 109.822C99.1075 109.846 99.1489 109.867 99.1921 109.883L99.3493 109.945C99.4051 109.965 99.458 109.992 99.5065 110.025C99.5553 110.057 99.5966 110.098 99.628 110.146C99.6633 110.2 99.6808 110.262 99.6783 110.325C99.6784 110.382 99.6662 110.438 99.6425 110.49C99.6197 110.542 99.5853 110.589 99.5419 110.627C99.4934 110.668 99.4372 110.699 99.3764 110.719C99.3045 110.743 99.2286 110.755 99.1524 110.754C99.1011 110.754 99.0499 110.75 98.9995 110.74C98.9542 110.732 98.9094 110.721 98.8655 110.708C98.8251 110.694 98.7882 110.679 98.7546 110.663C98.7294 110.651 98.7051 110.636 98.6819 110.62L98.6811 110.619ZM99.9574 109.461C99.9573 109.446 99.9604 109.432 99.9664 109.419C99.9725 109.406 99.9814 109.394 99.9925 109.384C100.004 109.375 100.017 109.367 100.031 109.363C100.045 109.359 100.06 109.357 100.075 109.359H100.264C100.292 109.357 100.321 109.364 100.344 109.38C100.368 109.396 100.385 109.419 100.393 109.445L100.58 109.939C100.588 109.961 100.596 109.985 100.605 110.012C100.613 110.039 100.622 110.064 100.63 110.086L100.655 110.166H100.662L100.687 110.086C100.694 110.062 100.702 110.038 100.71 110.012C100.719 109.987 100.728 109.962 100.738 109.939L100.924 109.445C100.932 109.419 100.949 109.396 100.973 109.38C100.996 109.364 101.025 109.357 101.054 109.359H101.242C101.257 109.357 101.272 109.359 101.286 109.363C101.3 109.367 101.314 109.375 101.325 109.384C101.336 109.394 101.345 109.406 101.351 109.419C101.357 109.432 101.36 109.446 101.36 109.461L101.462 110.623C101.465 110.638 101.464 110.653 101.459 110.667C101.455 110.68 101.447 110.693 101.437 110.704C101.426 110.714 101.413 110.722 101.399 110.727C101.384 110.732 101.369 110.734 101.354 110.733H101.218C101.203 110.734 101.188 110.733 101.173 110.729C101.159 110.724 101.146 110.717 101.135 110.707C101.124 110.698 101.115 110.686 101.109 110.673C101.103 110.66 101.1 110.645 101.1 110.631L101.06 110.114C101.057 110.089 101.055 110.062 101.054 110.035C101.053 110.008 101.053 109.982 101.056 109.96C101.056 109.934 101.058 109.909 101.06 109.884H101.055C101.045 109.912 101.036 109.94 101.026 109.967L100.999 110.042C100.989 110.069 100.98 110.094 100.971 110.115L100.848 110.429C100.839 110.455 100.821 110.478 100.797 110.493C100.774 110.508 100.745 110.515 100.716 110.513H100.598C100.57 110.515 100.541 110.508 100.517 110.493C100.494 110.478 100.476 110.455 100.467 110.429L100.343 110.115C100.335 110.094 100.326 110.069 100.316 110.042L100.289 109.967C100.279 109.94 100.27 109.912 100.26 109.884H100.255C100.255 109.909 100.256 109.934 100.257 109.96V110.035C100.259 110.061 100.258 110.088 100.255 110.114L100.216 110.631C100.216 110.645 100.213 110.66 100.207 110.673C100.201 110.686 100.192 110.698 100.181 110.707C100.17 110.717 100.157 110.724 100.142 110.729C100.128 110.733 100.113 110.734 100.098 110.733H99.9601C99.9449 110.734 99.9296 110.732 99.9152 110.727C99.9007 110.723 99.8874 110.715 99.876 110.705C99.8665 110.694 99.8595 110.681 99.8555 110.667C99.8515 110.653 99.8506 110.639 99.8528 110.625L99.9574 109.461ZM101.681 110.62C101.67 110.612 101.66 110.604 101.651 110.595C101.643 110.585 101.637 110.574 101.632 110.562C101.629 110.549 101.629 110.535 101.632 110.522C101.638 110.504 101.647 110.488 101.659 110.474L101.724 110.387C101.732 110.375 101.742 110.365 101.754 110.357C101.765 110.349 101.779 110.344 101.793 110.341C101.825 110.339 101.857 110.346 101.883 110.362L101.927 110.385L101.988 110.414C102.014 110.424 102.04 110.431 102.067 110.437C102.096 110.444 102.126 110.447 102.157 110.447C102.198 110.449 102.239 110.44 102.274 110.42C102.286 110.412 102.296 110.402 102.303 110.39C102.31 110.378 102.314 110.364 102.314 110.351C102.313 110.334 102.309 110.318 102.3 110.304C102.291 110.29 102.278 110.278 102.263 110.27C102.226 110.244 102.185 110.223 102.142 110.207C102.093 110.186 102.041 110.165 101.985 110.143C101.929 110.121 101.877 110.092 101.828 110.059C101.779 110.026 101.737 109.985 101.704 109.938C101.67 109.883 101.654 109.82 101.656 109.757C101.655 109.698 101.669 109.639 101.695 109.586C101.723 109.534 101.762 109.488 101.809 109.451C101.859 109.413 101.916 109.384 101.978 109.367C102.046 109.346 102.118 109.335 102.19 109.336C102.271 109.335 102.352 109.347 102.43 109.37C102.487 109.386 102.542 109.408 102.593 109.438C102.606 109.445 102.618 109.454 102.627 109.466C102.636 109.478 102.642 109.491 102.646 109.505C102.649 109.531 102.643 109.557 102.629 109.58L102.578 109.671C102.557 109.708 102.533 109.727 102.505 109.728C102.476 109.728 102.447 109.72 102.421 109.707C102.387 109.692 102.35 109.678 102.313 109.665C102.272 109.65 102.228 109.643 102.185 109.644C102.141 109.64 102.097 109.65 102.059 109.673C102.048 109.68 102.038 109.69 102.031 109.701C102.024 109.713 102.02 109.726 102.02 109.74C102.02 109.756 102.025 109.772 102.033 109.787C102.041 109.801 102.054 109.814 102.068 109.822C102.107 109.847 102.148 109.867 102.192 109.884L102.349 109.945C102.405 109.966 102.457 109.993 102.506 110.026C102.555 110.058 102.596 110.099 102.627 110.147C102.663 110.2 102.68 110.263 102.678 110.326C102.678 110.383 102.666 110.439 102.642 110.491C102.619 110.543 102.585 110.59 102.541 110.628C102.493 110.668 102.437 110.7 102.376 110.72C102.304 110.744 102.228 110.756 102.152 110.755C102.101 110.755 102.049 110.75 101.999 110.741C101.954 110.733 101.909 110.722 101.865 110.708C101.825 110.694 101.788 110.68 101.754 110.664C101.729 110.651 101.704 110.637 101.681 110.62V110.62Z" fill="#75BFF2"/>
<path d="M70.1972 116.326H80.0237V120.098H70.1972C69.676 120.098 69.1761 119.899 68.8076 119.546C68.439 119.192 68.2319 118.712 68.2319 118.212V118.212C68.2319 117.712 68.439 117.232 68.8076 116.878C69.1761 116.525 69.676 116.326 70.1972 116.326V116.326Z" fill="white"/>
<g filter="url(#filter4_d)">
<path d="M166.769 77.5265C164.412 77.0181 162.333 75.6937 160.931 73.8066C159.528 71.9195 158.9 69.6022 159.166 67.2983C159.432 64.9944 160.574 62.8655 162.373 61.3191C164.173 59.7727 166.503 58.9174 168.919 58.9167H180.078C182.681 58.9167 185.177 59.909 187.018 61.6753C188.858 63.4416 189.892 65.8373 189.892 68.3352C189.892 70.8331 188.858 73.2287 187.018 74.995C185.177 76.7613 182.681 77.7536 180.078 77.7536H171.137L167.065 83.4785L166.769 77.5265Z" fill="white"/>
</g>
<path opacity="0.66" d="M184.97 63.14H165.317C164.883 63.14 164.531 63.4777 164.531 63.8944C164.531 64.311 164.883 64.6488 165.317 64.6488H184.97C185.405 64.6488 185.756 64.311 185.756 63.8944C185.756 63.4777 185.405 63.14 184.97 63.14Z" fill="#BDE2FC"/>
<path opacity="0.66" d="M184.774 66.912H165.514C164.971 66.912 164.531 67.3342 164.531 67.855C164.531 68.3758 164.971 68.798 165.514 68.798H184.774C185.317 68.798 185.756 68.3758 185.756 67.855C185.756 67.3342 185.317 66.912 184.774 66.912Z" fill="#BDE2FC"/>
<path opacity="0.66" d="M184.97 71.0613H165.317C164.883 71.0613 164.531 71.399 164.531 71.8157C164.531 72.2323 164.883 72.5701 165.317 72.5701H184.97C185.405 72.5701 185.756 72.2323 185.756 71.8157C185.756 71.399 185.405 71.0613 184.97 71.0613Z" fill="#BDE2FC"/>
<g filter="url(#filter5_d)">
<path d="M177.844 128.746C175.149 128.744 172.565 127.715 170.661 125.886C168.757 124.056 167.688 121.575 167.689 118.989C167.691 116.403 168.763 113.923 170.67 112.096C172.577 110.269 175.162 109.243 177.857 109.244H198.247C200.942 109.244 203.526 110.272 205.432 112.1C207.337 113.929 208.408 116.409 208.408 118.995C208.408 121.581 207.337 124.061 205.432 125.89C203.526 127.719 200.942 128.746 198.247 128.746H183.608L178.222 134.671L177.844 128.746Z" fill="white"/>
</g>
<path opacity="0.66" d="M202.265 113.686H175.93C175.496 113.686 175.144 114.023 175.144 114.44C175.144 114.857 175.496 115.194 175.93 115.194H202.265C202.699 115.194 203.051 114.857 203.051 114.44C203.051 114.023 202.699 113.686 202.265 113.686Z" fill="#C72855"/>
<path opacity="0.66" d="M202.265 117.835H175.93C175.496 117.835 175.144 118.173 175.144 118.589C175.144 119.006 175.496 119.344 175.93 119.344H202.265C202.699 119.344 203.051 119.006 203.051 118.589C203.051 118.173 202.699 117.835 202.265 117.835Z" fill="#C72855"/>
<path opacity="0.66" d="M202.265 121.984H175.93C175.496 121.984 175.144 122.322 175.144 122.739C175.144 123.155 175.496 123.493 175.93 123.493H202.265C202.699 123.493 203.051 123.155 203.051 122.739C203.051 122.322 202.699 121.984 202.265 121.984Z" fill="#C72855"/>
<g filter="url(#filter6_d)">
<path d="M22.8496 83.3001C18.9814 83.0151 15.3785 81.3032 12.7973 78.5237C10.216 75.7442 8.85709 72.1132 9.00564 68.3928C9.15419 64.6723 10.7987 61.1518 13.594 58.57C16.3893 55.9882 20.1181 54.5459 23.9978 54.5458H49.5879C53.567 54.5458 57.3831 56.0627 60.1967 58.7628C63.0104 61.463 64.591 65.1251 64.591 68.9437C64.591 72.7623 63.0104 76.4244 60.1967 79.1246C57.3831 81.8247 53.567 83.3416 49.5879 83.3416H30.7238L23.37 92.0928L22.8496 83.3001Z" fill="white"/>
</g>
<path opacity="0.66" d="M55.8507 60.8768H20.4753C19.7155 60.8768 19.0996 61.4679 19.0996 62.197C19.0996 62.9261 19.7155 63.5172 20.4753 63.5172H55.8507C56.6105 63.5172 57.2264 62.9261 57.2264 62.197C57.2264 61.4679 56.6105 60.8768 55.8507 60.8768Z" fill="#BDE2FC"/>
<path opacity="0.66" d="M56.0473 66.9121H20.2788C19.6275 66.9121 19.0996 67.4187 19.0996 68.0437V68.4209C19.0996 69.0459 19.6275 69.5525 20.2788 69.5525H56.0473C56.6985 69.5525 57.2264 69.0459 57.2264 68.4209V68.0437C57.2264 67.4187 56.6985 66.9121 56.0473 66.9121Z" fill="#BDE2FC"/>
<path opacity="0.66" d="M56.0473 73.3246H20.2788C19.6275 73.3246 19.0996 73.8312 19.0996 74.4562C19.0996 75.0812 19.6275 75.5878 20.2788 75.5878H56.0473C56.6985 75.5878 57.2264 75.0812 57.2264 74.4562C57.2264 73.8312 56.6985 73.3246 56.0473 73.3246Z" fill="#BDE2FC"/>
<g filter="url(#filter7_d)">
<path d="M33.4176 120.347H69.7415C70.2707 120.364 70.7714 120.582 71.1337 120.952C71.496 121.323 71.6902 121.816 71.6738 122.324V132.803C71.6902 133.311 71.496 133.805 71.1337 134.175C70.7714 134.546 70.2707 134.763 69.7415 134.78H33.4176C32.8884 134.763 32.3877 134.546 32.0254 134.175C31.6631 133.805 31.4689 133.311 31.4853 132.803V122.324C31.4689 121.816 31.6631 121.323 32.0254 120.952C32.3877 120.582 32.8884 120.364 33.4176 120.347V120.347Z" fill="white"/>
</g>
<path opacity="0.66" d="M67.0529 122.361H46.2207C45.5694 122.361 45.0415 122.868 45.0415 123.493C45.0415 124.118 45.5694 124.625 46.2207 124.625H67.0529C67.7041 124.625 68.2321 124.118 68.2321 123.493C68.2321 122.868 67.7041 122.361 67.0529 122.361Z" fill="#C72855"/>
<path opacity="0.66" d="M67.0529 125.756H46.2207C45.5694 125.756 45.0415 126.263 45.0415 126.888V127.265C45.0415 127.89 45.5694 128.397 46.2207 128.397H67.0529C67.7041 128.397 68.2321 127.89 68.2321 127.265V126.888C68.2321 126.263 67.7041 125.756 67.0529 125.756Z" fill="#C72855"/>
<path opacity="0.66" d="M67.0529 129.528H46.2207C45.5694 129.528 45.0415 130.035 45.0415 130.66V131.037C45.0415 131.662 45.5694 132.169 46.2207 132.169H67.0529C67.7041 132.169 68.2321 131.662 68.2321 131.037V130.66C68.2321 130.035 67.7041 129.528 67.0529 129.528Z" fill="#C72855"/>
<path opacity="0.66" d="M40.7177 122.361H36.0009C34.9155 122.361 34.0356 123.206 34.0356 124.247V130.283C34.0356 131.324 34.9155 132.169 36.0009 132.169H40.7177C41.8031 132.169 42.683 131.324 42.683 130.283V124.247C42.683 123.206 41.8031 122.361 40.7177 122.361Z" fill="#C72855"/>
</g>
<defs>
<filter id="filter0_d" x="101.045" y="19.3894" width="52.1904" height="32.4796" filterUnits="userSpaceOnUse" color-interpolation-filters="sRGB">
<feFlood flood-opacity="0" result="BackgroundImageFix"/>
<feColorMatrix in="SourceAlpha" type="matrix" values="0 0 0 0 0 0 0 0 0 0 0 0 0 0 0 0 0 0 127 0"/>
<feOffset dy="3"/>
<feGaussianBlur stdDeviation="3"/>
<feColorMatrix type="matrix" values="0 0 0 0 0 0 0 0 0 0 0 0 0 0 0 0 0 0 0.161 0"/>
<feBlend mode="normal" in2="BackgroundImageFix" result="effect1_dropShadow"/>
<feBlend mode="normal" in="SourceGraphic" in2="effect1_dropShadow" result="shape"/>
</filter>
<filter id="filter1_d" x="192.273" y="86.8284" width="52.1904" height="26.4326" filterUnits="userSpaceOnUse" color-interpolation-filters="sRGB">
<feFlood flood-opacity="0" result="BackgroundImageFix"/>
<feColorMatrix in="SourceAlpha" type="matrix" values="0 0 0 0 0 0 0 0 0 0 0 0 0 0 0 0 0 0 127 0"/>
<feOffset dy="3"/>
<feGaussianBlur stdDeviation="3"/>
<feColorMatrix type="matrix" values="0 0 0 0 0 0 0 0 0 0 0 0 0 0 0 0 0 0 0.161 0"/>
<feBlend mode="normal" in2="BackgroundImageFix" result="effect1_dropShadow"/>
<feBlend mode="normal" in="SourceGraphic" in2="effect1_dropShadow" result="shape"/>
</filter>
<filter id="filter2_d" x="94.9795" y="72.3075" width="52.1904" height="26.4326" filterUnits="userSpaceOnUse" color-interpolation-filters="sRGB">
<feFlood flood-opacity="0" result="BackgroundImageFix"/>
<feColorMatrix in="SourceAlpha" type="matrix" values="0 0 0 0 0 0 0 0 0 0 0 0 0 0 0 0 0 0 127 0"/>
<feOffset dy="3"/>
<feGaussianBlur stdDeviation="3"/>
<feColorMatrix type="matrix" values="0 0 0 0 0 0 0 0 0 0 0 0 0 0 0 0 0 0 0.161 0"/>
<feBlend mode="normal" in2="BackgroundImageFix" result="effect1_dropShadow"/>
<feBlend mode="normal" in="SourceGraphic" in2="effect1_dropShadow" result="shape"/>
</filter>
<filter id="filter3_d" x="75.5962" y="191.409" width="92.1843" height="14.6404" filterUnits="userSpaceOnUse" color-interpolation-filters="sRGB">
<feFlood flood-opacity="0" result="BackgroundImageFix"/>
<feColorMatrix in="SourceAlpha" type="matrix" values="0 0 0 0 0 0 0 0 0 0 0 0 0 0 0 0 0 0 127 0"/>
<feOffset dy="3"/>
<feGaussianBlur stdDeviation="3"/>
<feColorMatrix type="matrix" values="0 0 0 0 0 0 0 0 0 0 0 0 0 0 0 0 0 0 0.161 0"/>
<feBlend mode="normal" in2="BackgroundImageFix" result="effect1_dropShadow"/>
<feBlend mode="normal" in="SourceGraphic" in2="effect1_dropShadow" result="shape"/>
</filter>
<filter id="filter4_d" x="153.106" y="55.9167" width="42.7865" height="36.5617" filterUnits="userSpaceOnUse" color-interpolation-filters="sRGB">
<feFlood flood-opacity="0" result="BackgroundImageFix"/>
<feColorMatrix in="SourceAlpha" type="matrix" values="0 0 0 0 0 0 0 0 0 0 0 0 0 0 0 0 0 0 127 0"/>
<feOffset dy="3"/>
<feGaussianBlur stdDeviation="3"/>
<feColorMatrix type="matrix" values="0 0 0 0 0 0 0 0 0 0 0 0 0 0 0 0 0 0 0.161 0"/>
<feBlend mode="normal" in2="BackgroundImageFix" result="effect1_dropShadow"/>
<feBlend mode="normal" in="SourceGraphic" in2="effect1_dropShadow" result="shape"/>
</filter>
<filter id="filter5_d" x="161.689" y="106.244" width="52.7184" height="37.4266" filterUnits="userSpaceOnUse" color-interpolation-filters="sRGB">
<feFlood flood-opacity="0" result="BackgroundImageFix"/>
<feColorMatrix in="SourceAlpha" type="matrix" values="0 0 0 0 0 0 0 0 0 0 0 0 0 0 0 0 0 0 127 0"/>
<feOffset dy="3"/>
<feGaussianBlur stdDeviation="3"/>
<feColorMatrix type="matrix" values="0 0 0 0 0 0 0 0 0 0 0 0 0 0 0 0 0 0 0.161 0"/>
<feBlend mode="normal" in2="BackgroundImageFix" result="effect1_dropShadow"/>
<feBlend mode="normal" in="SourceGraphic" in2="effect1_dropShadow" result="shape"/>
</filter>
<filter id="filter6_d" x="2.99463" y="51.5458" width="67.5964" height="49.547" filterUnits="userSpaceOnUse" color-interpolation-filters="sRGB">
<feFlood flood-opacity="0" result="BackgroundImageFix"/>
<feColorMatrix in="SourceAlpha" type="matrix" values="0 0 0 0 0 0 0 0 0 0 0 0 0 0 0 0 0 0 127 0"/>
<feOffset dy="3"/>
<feGaussianBlur stdDeviation="3"/>
<feColorMatrix type="matrix" values="0 0 0 0 0 0 0 0 0 0 0 0 0 0 0 0 0 0 0.161 0"/>
<feBlend mode="normal" in2="BackgroundImageFix" result="effect1_dropShadow"/>
<feBlend mode="normal" in="SourceGraphic" in2="effect1_dropShadow" result="shape"/>
</filter>
<filter id="filter7_d" x="25.4844" y="117.347" width="52.1904" height="26.4326" filterUnits="userSpaceOnUse" color-interpolation-filters="sRGB">
<feFlood flood-opacity="0" result="BackgroundImageFix"/>
<feColorMatrix in="SourceAlpha" type="matrix" values="0 0 0 0 0 0 0 0 0 0 0 0 0 0 0 0 0 0 127 0"/>
<feOffset dy="3"/>
<feGaussianBlur stdDeviation="3"/>
<feColorMatrix type="matrix" values="0 0 0 0 0 0 0 0 0 0 0 0 0 0 0 0 0 0 0.161 0"/>
<feBlend mode="normal" in2="BackgroundImageFix" result="effect1_dropShadow"/>
<feBlend mode="normal" in="SourceGraphic" in2="effect1_dropShadow" result="shape"/>
</filter>
<linearGradient id="paint0_linear" x1="119.057" y1="186.675" x2="119.025" y2="242.283" gradientUnits="userSpaceOnUse">
<stop stop-color="#F1F1F1"/>
<stop offset="1" stop-color="#797979"/>
</linearGradient>
<linearGradient id="paint1_linear" x1="90.4165" y1="193.073" x2="90.5336" y2="198.659" gradientUnits="userSpaceOnUse">
<stop stop-color="#1B7EC2"/>
<stop offset="1" stop-color="#0E3F61"/>
</linearGradient>
<linearGradient id="paint2_linear" x1="120.902" y1="189.451" x2="120.902" y2="180.681" gradientUnits="userSpaceOnUse">
<stop stop-color="#1B7EC2"/>
<stop offset="1" stop-color="#0E3F61"/>
</linearGradient>
<clipPath id="clip0">
<rect width="242" height="210" fill="white"/>
</clipPath>
</defs>
</svg>
