<svg width="64" height="64" viewBox="0 0 64 64" fill="none" xmlns="http://www.w3.org/2000/svg">
<path d="M2.66663 56H13.3333V24H2.66663V56ZM61.3333 26.6666C61.3333 23.72 58.9466 21.3333 56 21.3333H39.16L41.7066 9.14663C41.76 8.87996 41.8 8.59996 41.8 8.30663C41.8 7.19996 41.3466 6.19996 40.6266 5.47996L37.7866 2.66663L20.2266 20.2266C19.2666 21.2 18.6666 22.5333 18.6666 24V50.6666C18.6666 53.6133 21.0533 56 24 56H48C50.2133 56 52.1066 54.6533 52.9066 52.7466L60.9466 33.9466C61.1866 33.3333 61.3333 32.68 61.3333 32V26.8933L61.3066 26.8666L61.3333 26.6666Z" fill="#1B7EC2"/>
</svg>
