<svg width="185" height="42" viewBox="0 0 185 42" fill="none" xmlns="http://www.w3.org/2000/svg">
<rect width="18.1105" height="18.1116" transform="matrix(0.714535 0.6996 -0.697764 0.716328 20.7451 8.12573)" fill="#1B7EC2"/>
<path d="M1.67053 1.40691C4.08223 -0.406518 11.9203 4.42927 11.9203 4.42927L20.3612 9.86954L10.1115 20.1456C10.1115 20.1456 5.28808 13.4964 4.68518 12.2874C4.08228 11.0785 -0.741175 3.22033 1.67053 1.40691Z" fill="#00A0D3" stroke="#00A0D3"/>
<path d="M20.2939 10.6716L31.2808 21.4289L21.501 31.2249L10.7569 20.4624L20.2939 10.6716Z" fill="white"/>
<path d="M1.44168 40.327C-0.371738 37.9126 4.43654 30.0451 4.43654 30.0451L9.8466 21.5719L20.1161 31.8282C20.1161 31.8282 13.4932 36.6768 12.2885 37.2836C11.0838 37.8904 3.2551 42.7414 1.44168 40.327Z" fill="#00A0D3" stroke="#00A0D3"/>
<path d="M40.1948 1.67526C42.0214 4.07961 37.2562 11.9736 37.2562 11.9736L31.8926 20.4764L21.5672 10.277C21.5672 10.277 28.1635 5.39191 29.3648 4.77848C30.5662 4.16506 38.3682 -0.729092 40.1948 1.67526Z" fill="#00A0D3" stroke="#00A0D3"/>
<path d="M40.1928 40.4275C37.7679 42.2232 29.9654 37.33 29.9654 37.33L21.5644 31.828L31.8889 21.6274C31.8889 21.6274 36.6636 28.3118 37.2577 29.5252C37.8517 30.7385 42.6177 38.6319 40.1928 40.4275Z" fill="#00A0D3" stroke="#00A0D3"/>
<path d="M44.351 25.141C44.351 24.151 44.846 23.656 45.836 23.656H47.645C48.131 23.656 48.473 23.764 48.671 23.98C48.887 24.196 49.022 24.547 49.076 25.033C49.13 25.537 49.292 25.996 49.562 26.41C49.832 26.806 50.255 27.004 50.831 27.004C51.353 27.004 51.767 26.842 52.073 26.518C52.397 26.176 52.559 25.654 52.559 24.952V15.745H48.86C47.87 15.745 47.375 15.25 47.375 14.26V13.18C47.375 12.19 47.87 11.695 48.86 11.695H55.799C56.789 11.695 57.284 12.19 57.284 13.18V25.06C57.284 26.122 57.095 27.049 56.717 27.841C56.357 28.615 55.871 29.263 55.259 29.785C54.647 30.307 53.954 30.694 53.18 30.946C52.424 31.198 51.641 31.324 50.831 31.324C50.021 31.324 49.22 31.198 48.428 30.946C47.654 30.676 46.961 30.28 46.349 29.758C45.755 29.236 45.269 28.588 44.891 27.814C44.531 27.04 44.351 26.149 44.351 25.141ZM63.6301 26.653C63.6301 26.977 63.7381 27.256 63.9541 27.49C64.1881 27.724 64.5211 27.841 64.9531 27.841C65.2951 27.841 65.6101 27.769 65.8981 27.625C66.1861 27.463 66.4381 27.265 66.6541 27.031C66.8701 26.797 67.0321 26.536 67.1401 26.248C67.2661 25.96 67.3291 25.672 67.3291 25.384V25.006H66.8971C66.5371 25.006 66.1591 25.033 65.7631 25.087C65.3851 25.141 65.0341 25.231 64.7101 25.357C64.4041 25.483 64.1431 25.654 63.9271 25.87C63.7291 26.068 63.6301 26.329 63.6301 26.653ZM59.0131 27.085C59.0131 26.149 59.2561 25.375 59.7421 24.763C60.2461 24.151 60.8851 23.665 61.6591 23.305C62.4331 22.945 63.2791 22.693 64.1971 22.549C65.1151 22.405 66.0061 22.333 66.8701 22.333H67.2751V22.09C67.2751 21.514 67.0771 21.118 66.6811 20.902C66.2851 20.668 65.8261 20.551 65.3041 20.551C64.8541 20.551 64.4131 20.614 63.9811 20.74C63.5491 20.866 63.1531 21.01 62.7931 21.172C61.8751 21.568 61.2091 21.352 60.7951 20.524L60.4711 19.849C60.2731 19.435 60.2191 19.057 60.3091 18.715C60.3991 18.355 60.6511 18.067 61.0651 17.851C61.5871 17.599 62.2441 17.356 63.0361 17.122C63.8281 16.888 64.7281 16.771 65.7361 16.771C67.6621 16.771 69.1741 17.275 70.2721 18.283C71.3881 19.273 71.9461 20.659 71.9461 22.441V29.515C71.9461 30.505 71.4511 31 70.4611 31H69.1651C68.1751 31 67.6801 30.496 67.6801 29.488V29.38V29.191C67.6801 29.155 67.6891 29.128 67.7071 29.11H67.6531C67.3831 29.524 67.0501 29.893 66.6541 30.217C66.3121 30.505 65.8801 30.766 65.3581 31C64.8361 31.216 64.2331 31.324 63.5491 31.324C62.8831 31.324 62.2711 31.216 61.7131 31C61.1551 30.784 60.6781 30.487 60.2821 30.109C59.8861 29.731 59.5711 29.281 59.3371 28.759C59.1211 28.237 59.0131 27.679 59.0131 27.085ZM74.4864 18.58C74.4864 17.59 74.9814 17.095 75.9714 17.095H77.4834C78.4554 17.095 78.9414 17.59 78.9414 18.58V18.823C78.9414 18.859 78.9324 18.895 78.9144 18.931C78.9144 18.967 78.9144 19.003 78.9144 19.039V19.174H78.9684C79.1304 18.94 79.3284 18.679 79.5624 18.391C79.8144 18.103 80.1114 17.842 80.4534 17.608C80.7954 17.374 81.1824 17.176 81.6144 17.014C82.0644 16.852 82.5594 16.771 83.0994 16.771C83.9814 16.771 84.7554 16.969 85.4214 17.365C86.1054 17.743 86.6274 18.328 86.9874 19.12H87.0414C87.2214 18.832 87.4554 18.553 87.7434 18.283C88.0494 17.995 88.3914 17.743 88.7694 17.527C89.1474 17.293 89.5614 17.113 90.0114 16.987C90.4794 16.843 90.9744 16.771 91.4964 16.771C92.1264 16.771 92.7114 16.861 93.2514 17.041C93.8094 17.221 94.2864 17.518 94.6824 17.932C95.0964 18.346 95.4204 18.886 95.6544 19.552C95.8884 20.218 96.0054 21.028 96.0054 21.982V29.515C96.0054 30.505 95.5104 31 94.5204 31H92.8194C91.8294 31 91.3344 30.505 91.3344 29.515V22.765C91.3344 22.243 91.2624 21.82 91.1184 21.496C90.9924 21.172 90.7044 21.01 90.2544 21.01C89.7504 21.01 89.3274 21.127 88.9854 21.361C88.6434 21.595 88.3644 21.901 88.1484 22.279C87.9504 22.657 87.8064 23.098 87.7164 23.602C87.6264 24.088 87.5814 24.592 87.5814 25.114V29.515C87.5814 30.505 87.0864 31 86.0964 31H84.3954C83.4054 31 82.9104 30.505 82.9104 29.515V22.765C82.9104 22.243 82.8384 21.82 82.6944 21.496C82.5684 21.172 82.2804 21.01 81.8304 21.01C81.2904 21.01 80.8494 21.136 80.5074 21.388C80.1654 21.64 79.8954 21.964 79.6974 22.36C79.4994 22.738 79.3554 23.17 79.2654 23.656C79.1934 24.142 79.1574 24.628 79.1574 25.114V29.515C79.1574 30.505 78.6624 31 77.6724 31H75.9714C74.9814 31 74.4864 30.505 74.4864 29.515V18.58ZM103.123 24.007C103.123 24.475 103.177 24.916 103.285 25.33C103.411 25.744 103.582 26.113 103.798 26.437C104.032 26.743 104.311 26.995 104.635 27.193C104.977 27.373 105.364 27.463 105.796 27.463C106.57 27.463 107.227 27.175 107.767 26.599C108.307 26.023 108.577 25.195 108.577 24.115C108.577 23.089 108.325 22.27 107.821 21.658C107.335 21.028 106.687 20.713 105.877 20.713C105.517 20.713 105.166 20.785 104.824 20.929C104.5 21.055 104.212 21.253 103.96 21.523C103.708 21.793 103.501 22.135 103.339 22.549C103.195 22.963 103.123 23.449 103.123 24.007ZM98.5866 13.18C98.5866 12.19 99.0816 11.695 100.072 11.695H101.773C102.763 11.695 103.258 12.19 103.258 13.18V17.338C103.258 17.518 103.249 17.68 103.231 17.824C103.231 17.968 103.231 18.094 103.231 18.202C103.213 18.328 103.204 18.436 103.204 18.526H103.258C103.51 18.202 103.825 17.914 104.203 17.662C104.509 17.446 104.905 17.248 105.391 17.068C105.877 16.87 106.444 16.771 107.092 16.771C108.01 16.771 108.847 16.951 109.603 17.311C110.359 17.653 111.007 18.148 111.547 18.796C112.087 19.426 112.51 20.182 112.816 21.064C113.122 21.946 113.275 22.918 113.275 23.98C113.275 25.096 113.104 26.113 112.762 27.031C112.438 27.931 111.988 28.705 111.412 29.353C110.836 29.983 110.161 30.469 109.387 30.811C108.613 31.153 107.776 31.324 106.876 31.324C106.12 31.324 105.49 31.225 104.986 31.027C104.5 30.829 104.104 30.604 103.798 30.352C103.438 30.064 103.141 29.74 102.907 29.38H102.853V29.461C102.853 29.497 102.853 29.533 102.853 29.569C102.871 29.587 102.88 29.614 102.88 29.65V29.758C102.88 30.118 102.754 30.415 102.502 30.649C102.25 30.883 101.881 31 101.395 31H100.072C99.0816 31 98.5866 30.505 98.5866 29.515V13.18ZM119.245 24.088C119.245 24.61 119.326 25.078 119.488 25.492C119.668 25.906 119.902 26.257 120.19 26.545C120.478 26.833 120.811 27.058 121.189 27.22C121.567 27.364 121.972 27.436 122.404 27.436C122.836 27.436 123.241 27.364 123.619 27.22C123.997 27.058 124.33 26.833 124.618 26.545C124.906 26.257 125.131 25.906 125.293 25.492C125.473 25.078 125.563 24.61 125.563 24.088C125.563 23.566 125.473 23.098 125.293 22.684C125.131 22.252 124.906 21.892 124.618 21.604C124.33 21.298 123.997 21.064 123.619 20.902C123.241 20.74 122.836 20.659 122.404 20.659C121.972 20.659 121.567 20.74 121.189 20.902C120.811 21.064 120.478 21.298 120.19 21.604C119.902 21.892 119.668 22.252 119.488 22.684C119.326 23.098 119.245 23.566 119.245 24.088ZM114.52 24.088C114.52 22.99 114.727 21.991 115.141 21.091C115.555 20.191 116.113 19.426 116.815 18.796C117.535 18.148 118.372 17.653 119.326 17.311C120.28 16.951 121.297 16.771 122.377 16.771C123.475 16.771 124.501 16.951 125.455 17.311C126.427 17.653 127.264 18.148 127.966 18.796C128.686 19.426 129.253 20.191 129.667 21.091C130.081 21.991 130.288 22.99 130.288 24.088C130.288 25.168 130.081 26.158 129.667 27.058C129.253 27.94 128.686 28.705 127.966 29.353C127.264 29.983 126.436 30.469 125.482 30.811C124.528 31.153 123.502 31.324 122.404 31.324C121.306 31.324 120.28 31.153 119.326 30.811C118.372 30.469 117.535 29.983 116.815 29.353C116.113 28.705 115.555 27.94 115.141 27.058C114.727 26.158 114.52 25.168 114.52 24.088ZM132.128 29.407C131.984 29.299 131.858 29.182 131.75 29.056C131.642 28.912 131.561 28.759 131.507 28.597C131.471 28.417 131.471 28.228 131.507 28.03C131.561 27.832 131.678 27.607 131.858 27.355L132.695 26.14C132.965 25.744 133.262 25.528 133.586 25.492C133.91 25.438 134.297 25.537 134.747 25.789C134.909 25.879 135.098 25.987 135.314 26.113C135.548 26.239 135.809 26.374 136.097 26.518C136.403 26.644 136.736 26.752 137.096 26.842C137.456 26.932 137.843 26.977 138.257 26.977C138.959 26.977 139.472 26.851 139.796 26.599C140.138 26.329 140.309 26.005 140.309 25.627C140.309 25.177 140.093 24.799 139.661 24.493C139.247 24.169 138.725 23.872 138.095 23.602C137.465 23.314 136.781 23.017 136.043 22.711C135.305 22.387 134.621 21.991 133.991 21.523C133.361 21.055 132.83 20.488 132.398 19.822C131.984 19.138 131.777 18.292 131.777 17.284C131.777 16.402 131.948 15.601 132.29 14.881C132.65 14.143 133.136 13.513 133.748 12.991C134.36 12.469 135.089 12.073 135.935 11.803C136.781 11.515 137.69 11.371 138.662 11.371C139.796 11.371 140.831 11.533 141.767 11.857C142.703 12.163 143.405 12.478 143.873 12.802C144.269 13.09 144.494 13.405 144.548 13.747C144.602 14.071 144.53 14.431 144.332 14.827L143.684 16.096C143.414 16.618 143.099 16.888 142.739 16.906C142.397 16.906 142.037 16.807 141.659 16.609C141.209 16.393 140.741 16.195 140.255 16.015C139.787 15.817 139.238 15.718 138.608 15.718C137.852 15.718 137.312 15.853 136.988 16.123C136.664 16.375 136.502 16.69 136.502 17.068C136.502 17.536 136.709 17.923 137.123 18.229C137.555 18.535 138.086 18.823 138.716 19.093C139.346 19.363 140.03 19.651 140.768 19.957C141.506 20.245 142.19 20.623 142.82 21.091C143.45 21.541 143.972 22.108 144.386 22.792C144.818 23.458 145.034 24.295 145.034 25.303C145.034 26.113 144.881 26.887 144.575 27.625C144.287 28.345 143.855 28.984 143.279 29.542C142.703 30.082 141.992 30.514 141.146 30.838C140.3 31.162 139.337 31.324 138.257 31.324C137.573 31.324 136.916 31.261 136.286 31.135C135.674 31.009 135.098 30.856 134.558 30.676C134.036 30.478 133.559 30.271 133.127 30.055C132.713 29.821 132.38 29.605 132.128 29.407ZM148.582 13.126C148.672 12.172 149.185 11.695 150.121 11.695H152.551C153.397 11.695 153.955 12.1 154.225 12.91L156.628 19.849C156.736 20.155 156.844 20.497 156.952 20.875C157.078 21.235 157.186 21.577 157.276 21.901C157.384 22.279 157.492 22.657 157.6 23.035H157.654C157.762 22.657 157.87 22.279 157.978 21.901C158.068 21.577 158.167 21.235 158.275 20.875C158.401 20.497 158.518 20.155 158.626 19.849L161.029 12.91C161.299 12.1 161.857 11.695 162.703 11.695H165.133C166.069 11.695 166.582 12.172 166.672 13.126L167.995 29.461C168.031 29.947 167.923 30.325 167.671 30.595C167.437 30.865 167.077 31 166.591 31H164.836C163.9 31 163.387 30.523 163.297 29.569L162.811 22.306C162.775 21.946 162.748 21.577 162.73 21.199C162.73 20.803 162.739 20.452 162.757 20.146C162.757 19.786 162.775 19.426 162.811 19.066H162.757C162.631 19.462 162.505 19.849 162.379 20.227C162.271 20.551 162.154 20.902 162.028 21.28C161.902 21.658 161.785 22 161.677 22.306L160.084 26.707C159.796 27.499 159.229 27.895 158.383 27.895H156.871C156.025 27.895 155.458 27.499 155.17 26.707L153.577 22.306C153.469 22 153.352 21.658 153.226 21.28C153.1 20.902 152.983 20.551 152.875 20.227C152.749 19.849 152.623 19.462 152.497 19.066H152.443C152.443 19.426 152.452 19.786 152.47 20.146C152.47 20.452 152.47 20.803 152.47 21.199C152.488 21.577 152.479 21.946 152.443 22.306L151.957 29.569C151.867 30.523 151.354 31 150.418 31H148.636C148.15 31 147.781 30.865 147.529 30.595C147.295 30.325 147.196 29.947 147.232 29.461L148.582 13.126ZM170.809 29.407C170.665 29.299 170.539 29.182 170.431 29.056C170.323 28.912 170.242 28.759 170.188 28.597C170.152 28.417 170.152 28.228 170.188 28.03C170.242 27.832 170.359 27.607 170.539 27.355L171.376 26.14C171.646 25.744 171.943 25.528 172.267 25.492C172.591 25.438 172.978 25.537 173.428 25.789C173.59 25.879 173.779 25.987 173.995 26.113C174.229 26.239 174.49 26.374 174.778 26.518C175.084 26.644 175.417 26.752 175.777 26.842C176.137 26.932 176.524 26.977 176.938 26.977C177.64 26.977 178.153 26.851 178.477 26.599C178.819 26.329 178.99 26.005 178.99 25.627C178.99 25.177 178.774 24.799 178.342 24.493C177.928 24.169 177.406 23.872 176.776 23.602C176.146 23.314 175.462 23.017 174.724 22.711C173.986 22.387 173.302 21.991 172.672 21.523C172.042 21.055 171.511 20.488 171.079 19.822C170.665 19.138 170.458 18.292 170.458 17.284C170.458 16.402 170.629 15.601 170.971 14.881C171.331 14.143 171.817 13.513 172.429 12.991C173.041 12.469 173.77 12.073 174.616 11.803C175.462 11.515 176.371 11.371 177.343 11.371C178.477 11.371 179.512 11.533 180.448 11.857C181.384 12.163 182.086 12.478 182.554 12.802C182.95 13.09 183.175 13.405 183.229 13.747C183.283 14.071 183.211 14.431 183.013 14.827L182.365 16.096C182.095 16.618 181.78 16.888 181.42 16.906C181.078 16.906 180.718 16.807 180.34 16.609C179.89 16.393 179.422 16.195 178.936 16.015C178.468 15.817 177.919 15.718 177.289 15.718C176.533 15.718 175.993 15.853 175.669 16.123C175.345 16.375 175.183 16.69 175.183 17.068C175.183 17.536 175.39 17.923 175.804 18.229C176.236 18.535 176.767 18.823 177.397 19.093C178.027 19.363 178.711 19.651 179.449 19.957C180.187 20.245 180.871 20.623 181.501 21.091C182.131 21.541 182.653 22.108 183.067 22.792C183.499 23.458 183.715 24.295 183.715 25.303C183.715 26.113 183.562 26.887 183.256 27.625C182.968 28.345 182.536 28.984 181.96 29.542C181.384 30.082 180.673 30.514 179.827 30.838C178.981 31.162 178.018 31.324 176.938 31.324C176.254 31.324 175.597 31.261 174.967 31.135C174.355 31.009 173.779 30.856 173.239 30.676C172.717 30.478 172.24 30.271 171.808 30.055C171.394 29.821 171.061 29.605 170.809 29.407Z" fill="#00A0D3"/>
</svg>
