<svg width="1075" height="640" viewBox="0 0 1075 640" fill="none" xmlns="http://www.w3.org/2000/svg">
<path d="M585.033 211.973C759.549 169.86 1042.48 74.4866 1072.88 93.0655C1103.29 111.644 795.576 306.417 815.077 407.673C834.579 508.93 993.559 572.1 901.013 624.431C808.466 676.763 672.953 582.319 459.435 558.785C245.917 535.251 72.3933 588.202 9.92442 521.626C-52.5444 455.05 200.305 410.77 200.305 280.096C200.305 149.422 73.5 110.5 46.9424 7.6007C200.305 -50 410.518 254.085 585.033 211.973Z" fill="#CCEAFF"/>
<path d="M841.931 439.064C841.931 439.064 848.037 449.211 851.633 449.71C855.229 450.209 882.869 422.956 882.869 422.956L879.274 420.188C879.274 420.188 860.588 437.508 853.656 440.779C848.111 433.92 849.741 434.025 849.741 434.025L841.931 439.064Z" fill="#EADB7C"/>
<path d="M621.524 281.478H305.7C298.64 281.478 292.917 286.84 292.917 293.454V493.038C292.917 499.652 298.64 505.013 305.7 505.013H621.524C628.584 505.013 634.307 499.652 634.307 493.038V293.454C634.307 286.84 628.584 281.478 621.524 281.478Z" fill="#1B7EC2"/>
<path d="M305.167 281.478H622.057C625.306 281.478 628.422 282.688 630.719 284.84C633.016 286.992 634.307 289.911 634.307 292.955V463.6H292.917V292.955C292.917 289.911 294.208 286.992 296.505 284.84C298.803 282.688 301.918 281.478 305.167 281.478V281.478Z" fill="black"/>
<path d="M314.753 290.959H613.003C616.252 290.959 619.367 292.168 621.665 294.32C623.962 296.472 625.252 299.391 625.252 302.435V454.618H302.504V302.435C302.504 299.391 303.794 296.472 306.092 294.32C308.389 292.168 311.505 290.959 314.753 290.959V290.959Z" fill="white"/>
<path d="M314.754 291.209H613.004C614.577 291.209 616.136 291.499 617.589 292.064C619.043 292.628 620.364 293.455 621.477 294.497C622.59 295.54 623.472 296.777 624.075 298.139C624.677 299.501 624.987 300.961 624.987 302.436V454.12C624.987 454.186 624.959 454.25 624.909 454.296C624.859 454.343 624.791 454.369 624.721 454.369H303.037C302.967 454.369 302.899 454.343 302.849 454.296C302.799 454.25 302.771 454.186 302.771 454.12V302.436C302.771 299.458 304.034 296.603 306.281 294.497C308.528 292.392 311.576 291.209 314.754 291.209V291.209Z" stroke="#707070"/>
<path d="M463.878 491.042C468.29 491.042 471.867 487.692 471.867 483.558C471.867 479.424 468.29 476.074 463.878 476.074C459.466 476.074 455.889 479.424 455.889 483.558C455.889 487.692 459.466 491.042 463.878 491.042Z" fill="white"/>
<path d="M463.879 490.794C468.144 490.794 471.601 487.555 471.601 483.559C471.601 479.563 468.144 476.324 463.879 476.324C459.614 476.324 456.156 479.563 456.156 483.559C456.156 487.555 459.614 490.794 463.879 490.794Z" stroke="#707070"/>
<path d="M481.454 505.013H446.303V546.926H481.454V505.013Z" fill="#1B7EC2"/>
<path d="M573.059 546.926H357.893V553.911H573.059V546.926Z" fill="url(#paint0_linear)"/>
<path d="M803.669 553.911H105.446V557.404H803.669V553.911Z" fill="#1B7EC2"/>
<path d="M481.454 505.013H446.303V537.446H481.454V505.013Z" fill="url(#paint1_linear)"/>
<path d="M751.698 516.906C751.698 516.906 741.757 515.664 733.645 516.197C728.732 516.525 723.89 517.481 719.254 519.038C719.254 519.038 713.546 527.375 712.954 532.913C712.362 538.45 705.236 553.12 738.927 552.229C772.618 551.337 765.518 536.562 763.148 530.692C760.779 524.822 751.698 516.906 751.698 516.906Z" fill="#FF5353"/>
<path d="M722.982 522.228C722.982 522.228 729.875 520.536 736.266 520.411C742.657 520.287 749.711 522.228 749.711 522.228" stroke="white"/>
<path d="M732.933 502.773C732.933 502.773 717.459 464.338 712.301 443.574C707.143 422.81 696.832 369.795 706.675 306.619C716.519 243.444 745.593 355.218 745.593 355.218C745.593 355.218 765.287 329.042 768.1 339.755C770.913 350.468 756.847 398.071 756.847 398.071C756.847 398.071 790.021 373.663 786.386 399.839C782.752 426.015 742.311 502.775 742.311 502.775L732.933 502.773Z" fill="url(#paint2_linear)"/>
<path d="M723.844 502.773C723.844 502.773 695.953 484.118 683.45 475.679C670.948 467.241 703.166 472.126 703.166 472.126C703.166 472.126 676.718 444.476 674.795 436.592C672.871 428.708 692.587 438.813 692.587 438.813C692.587 438.813 663.254 376.186 687.298 395.285C711.342 414.384 736.349 502.774 736.349 502.774L723.844 502.773Z" fill="url(#paint3_linear)"/>
<path d="M732.16 516.213H740.435L743.248 501.551C739.969 502.153 736.641 502.491 733.301 502.563C729.706 502.711 726.107 502.37 722.617 501.551L732.16 516.213Z" fill="#B0D6D4"/>
<path d="M727.305 508.881C729.959 509.259 732.636 509.474 735.32 509.525C737.519 509.524 739.712 509.308 741.864 508.881L740.537 516.36H732.269L727.305 508.881Z" fill="#107B7B"/>
<path d="M850.629 389.983C850.629 389.983 849.024 397.936 846.418 403.161C843.811 408.385 843.79 407.711 840.482 410.924C837.174 414.137 836.084 413.68 833.941 415.997C831.799 418.314 833.47 419.439 831.911 420.192C830.353 420.945 826.305 419.322 826.305 419.322C826.662 415.825 826.821 412.312 826.782 408.799C826.613 404.634 825.62 402.659 825.62 402.659L828.231 386.508L850.629 389.983Z" fill="#EADB7C"/>
<g filter="url(#filter0_d)">
<path d="M826.328 418.432L811.175 423.212L806.552 438.557C806.552 438.557 803.729 449.248 803.729 457.927C803.73 463.155 804.685 468.345 806.552 473.272C806.552 473.272 839.426 476.291 845.075 473.272C850.725 470.253 841.737 440.82 841.737 440.82C841.737 440.82 851.881 439.625 849.698 434.028C847.515 428.431 833.004 418.431 833.004 418.431L826.328 418.432Z" fill="#FF5353"/>
</g>
<g filter="url(#filter1_d)">
<path d="M845.077 473.274L860.486 543.46L848.672 546.479L825.558 473.274H845.077Z" fill="#1B7EC2" stroke="#707070"/>
</g>
<g filter="url(#filter2_d)">
<path d="M234.711 449.266L211.447 543.163L228.183 547.166L260.929 450.088L234.711 449.266Z" fill="#1B7EC2"/>
</g>
<g filter="url(#filter3_d)">
<path d="M290.445 448.223C290.445 448.223 290.232 466.735 276.732 476.442C263.232 486.149 249.398 501.129 249.398 501.129C249.398 501.129 253.828 504.928 256.231 508.468C262.345 517.475 281.05 539.16 281.05 539.16L268.822 547.166C268.822 547.166 226.021 507.801 226.021 502.463C226.021 497.126 241.847 476.443 241.847 476.443L260.909 450.088L290.445 448.223Z" fill="#1B7EC2"/>
</g>
<g filter="url(#filter4_d)">
<path d="M831.74 379.438C836.159 380.214 840.381 381.767 844.182 384.017C844.182 384.017 854.924 388.663 851.209 390.736C847.493 392.808 843.811 392.072 838.486 392.073C833.16 392.074 829.912 390.743 829.912 390.743C829.912 390.743 834.619 400.827 833.95 401.305C833.281 401.782 827.238 392.646 827.238 392.646C827.238 392.646 829.152 400.144 828.032 402.371C826.912 404.598 822.756 401.552 822.756 401.552C822.756 401.552 816.398 391.212 818.233 385.62C820.067 380.028 824.897 378.376 831.74 379.438Z" fill="black"/>
</g>
<g filter="url(#filter5_d)">
<path d="M810.02 432.128L807.159 444.384C807.159 444.384 819.001 448.029 820.379 444.568C821.756 441.108 818.688 431.085 818.688 431.085L810.02 432.128Z" fill="#FF5353"/>
</g>
<path d="M809 440C810.255 441.886 813.223 441.526 815 441.56C818.05 441.673 819 442.5 819 442.5" stroke="#AAAAAA" stroke-width="2"/>
<path d="M818.09 438.123L818.858 442.639" stroke="#B2B2B2" stroke-width="2"/>
<path d="M842.638 428.807L847.3 433.452C846.924 434.56 846.158 435.515 845.127 436.161C843.497 437.08 840.78 437.129 840.78 437.129" stroke="#AFAFAF" stroke-width="2"/>
<path d="M839.188 443.586C839.188 443.586 845.51 464.005 844.721 468.455C843.931 472.906 842.745 472.132 842.745 472.132" stroke="#B9B9B9" stroke-width="2"/>
<path d="M242.015 410.718C242.015 410.718 234.527 437.796 235.464 443.699C236.401 449.602 237.804 448.575 237.804 448.575" stroke="#B9B9B9" stroke-width="2"/>
<g filter="url(#filter6_d)">
<path d="M280.114 537.473L269.319 543.959L248.726 525.192" stroke="#A7A7A7" stroke-width="2"/>
</g>
<path d="M227.689 338.086C227.689 338.086 229.725 348.666 233.247 355.647C236.77 362.628 236.819 361.737 241.387 366.063C245.955 370.39 247.503 369.807 250.455 372.921C253.406 376.036 251.021 377.495 253.194 378.523C255.367 379.55 261.113 377.48 261.113 377.48C261.113 377.48 260.377 369.037 260.739 363.515C261.101 357.994 262.553 355.394 262.553 355.394L259.331 333.92L227.689 338.086Z" fill="#EADB7C"/>
<g filter="url(#filter7_d)">
<path d="M252.509 326.096C243.326 327.305 235.765 331.804 235.765 331.804C235.765 331.804 221.3 337.65 226.24 340.503C231.18 343.356 236.127 342.486 243.258 342.642C250.388 342.798 254.763 341.127 254.763 341.127C254.763 341.127 248.286 354.352 249.173 355.002C250.06 355.651 258.311 343.726 258.311 343.726C258.311 343.726 255.619 353.603 257.082 356.588C258.545 359.573 264.162 355.656 264.162 355.656C264.162 355.656 272.852 342.14 270.492 334.677C268.131 327.214 261.691 324.887 252.509 326.096Z" fill="black"/>
</g>
<path d="M242.09 405.221C242.09 405.221 233.622 418.675 228.637 419.342C223.653 420.008 185.328 383.861 185.328 383.861L190.313 380.192C190.313 380.192 216.22 403.161 225.837 407.498C233.525 398.401 231.265 398.54 231.265 398.54L242.09 405.221Z" fill="#EADB7C"/>
<g filter="url(#filter8_d)">
<path d="M261.639 377.362C263.848 377.345 272.391 380.087 279.245 386.759C286.1 393.432 289.057 404.051 289.057 404.051C289.057 404.051 293.631 414.992 292.974 429.738C292.316 444.485 291.726 449.806 288.996 450.014C286.267 450.221 243.479 454.091 235.645 450.088C227.812 446.085 240.274 407.053 240.274 407.053C240.274 407.053 226.209 405.469 229.236 398.046C232.263 390.623 252.381 377.362 252.381 377.362C252.381 377.362 259.428 377.379 261.639 377.362Z" fill="url(#paint4_linear)"/>
</g>
<g filter="url(#filter9_d)">
<path d="M284.337 404.729L268.927 407.398C268.927 407.398 270.241 414.07 272.78 419.073C274.272 421.994 275.559 425.003 276.632 428.081L265.075 455.102L268.927 461.439L288.539 424.076L284.337 404.729Z" fill="#EADB7C"/>
</g>
<g filter="url(#filter10_d)">
<path d="M279.066 393.912L287.085 408.787C287.085 408.787 272.476 417.19 269.45 413.168C266.423 409.147 267.107 395.29 267.107 395.29L279.066 393.912Z" fill="url(#paint5_linear)"/>
</g>
<path d="M270.792 402.039C270.745 403.677 270.869 405.315 271.162 406.931C271.448 408.241 271.951 409.501 272.654 410.664C274.436 410.579 276.195 410.253 277.878 409.698C280.043 408.931 282.14 408.006 284.152 406.933" stroke="#B8B8B8"/>
<path d="M190.529 380.485C190.529 380.485 189.034 370.249 188.076 370.249C187.117 370.249 187.193 380.192 187.193 380.192L184.727 374.314C184.727 374.314 178.936 371.626 179.552 373.999C180.168 376.373 185.415 383.945 185.415 383.945L190.529 380.485Z" fill="#EADB7C"/>
<path d="M179.265 358.337L174.609 360.445L185.472 381.157L190.128 379.05L179.265 358.337Z" fill="#707070"/>
<path d="M179.153 358.671L174.965 360.567L185.584 380.823L189.772 378.927L179.153 358.671Z" stroke="#707070"/>
<path d="M179.621 358.748L179.142 358.967L189.173 378.255L189.652 378.036L179.621 358.748Z" fill="white"/>
<path d="M213.709 546.926L221.812 549.197V552.233H197.278L213.709 546.926Z" fill="black" stroke="#707070"/>
<path d="M281.004 543.076L272.731 547.463L271.414 550.354L259.307 552.667H280.117L284.767 547.463L281.004 543.076Z" fill="black" stroke="#707070"/>
<path d="M510.03 190.015C517.19 190.015 522.995 192.491 522.995 200.896C522.995 209.301 517.191 216.114 510.03 216.114C502.87 216.114 497.065 209.301 497.065 200.896C497.065 192.491 502.871 190.015 510.03 190.015Z" fill="#E0D277"/>
<path d="M463.556 256.789C478.922 258.969 514.806 280.928 514.806 280.928C514.806 280.928 515.217 288.787 511.791 289.915C508.365 291.043 455.059 270.397 454.853 268.74C454.647 267.082 448.189 254.61 463.556 256.789Z" fill="#EADB7C"/>
<g filter="url(#filter11_d)">
<path d="M505.076 217.399C510.958 216.719 516.925 217.637 522.266 220.044C527.699 222.545 534.21 235.239 538.19 246.42C542.171 257.602 540.842 261.742 538.19 272.441L496.885 269.439C496.885 269.439 474.169 264.119 473.019 262.21C471.869 260.301 476.972 255.954 480.861 248.089C484.751 240.225 485.22 234.693 487.98 228.104C490.739 221.516 499.646 218.066 505.076 217.399Z" fill="url(#paint6_linear)"/>
</g>
<path d="M514.12 232.279L505.92 221.162L501.803 223.496L509.787 234.882L514.12 232.279Z" fill="black"/>
<path d="M502.659 231.93C502.659 231.93 504.27 230.044 505.147 229.741C506.023 229.438 506.165 230.716 506.165 230.716C506.165 230.716 508.763 228.082 510.261 228.065C511.758 228.049 512.304 230.3 512.154 230.649C512.004 230.998 507.534 235.033 506.254 235.158C504.973 235.282 502.659 231.93 502.659 231.93Z" fill="#E8CAAE"/>
<path d="M518.462 342.012C519.191 340.141 521.62 340.356 521.62 340.356C522.202 340.306 522.786 340.442 523.275 340.743C523.764 341.044 524.129 341.492 524.311 342.012C524.984 343.884 524.311 347.84 524.311 347.84C524.311 347.84 523.022 349.311 521.62 349.311C520.218 349.311 518.705 347.84 518.705 347.84C518.705 347.84 517.733 343.884 518.462 342.012Z" fill="black"/>
<g filter="url(#filter12_d)">
<path d="M480.468 238.712C482.524 236.549 491.615 234.007 491.615 234.007L494.672 240.364C494.672 240.364 486.674 245.859 483.525 245.069C480.376 244.28 478.412 240.875 480.468 238.712Z" fill="#E24A4A"/>
</g>
<path d="M497.065 203.797C497.065 203.797 494.013 197.678 494.013 192.546C494.013 187.413 494.01 186.969 497.065 183.268C500.12 179.567 502.652 178.136 506.233 177.741C509.815 177.346 525.196 179.912 527.935 183.268C530.674 186.623 532.149 189.387 531.517 194.125C530.885 198.862 530.674 202.119 532.992 207.746C535.31 213.374 543.738 216.235 540.788 216.628C537.839 217.021 526.249 213.075 526.249 213.075C526.249 213.075 523.404 207.35 522.456 203.797C521.508 200.244 521.613 195.852 516.767 192.546C511.921 189.239 507.155 189.733 502.227 192.546C497.3 195.358 497.065 203.797 497.065 203.797Z" fill="black" stroke="#707070"/>
<path d="M807.68 473.273H826.043C826.043 473.273 835.391 502.756 834.056 510.604C832.721 518.453 822.037 545.269 822.037 545.269H813.84C813.84 545.269 819.032 512.894 819.032 510.604C819.032 508.315 820.367 502.496 813.84 493.599C807.314 484.703 807.68 473.273 807.68 473.273Z" fill="#1B7EC2"/>
<g filter="url(#filter13_d)">
<path d="M808.04 442.081L820.258 444.27C820.258 444.27 819.217 449.742 817.204 453.846C816.019 456.245 814.999 458.713 814.15 461.233L825.558 475.351L820.259 478.195L805.343 459.7L808.04 442.081Z" fill="#EADB7C"/>
</g>
<path d="M877.771 422.669C877.771 422.669 878.848 414.95 879.54 414.95C880.232 414.95 880.179 422.448 880.179 422.448L882.942 418.683C882.942 418.683 886.135 415.989 885.69 417.779C885.477 418.631 884.126 421.04 882.942 422.669C882.332 423.543 881.61 424.343 880.791 425.051L877.771 422.669Z" fill="#EADB7C"/>
<path d="M881.249 422.441L878.58 420.611L888.704 406.508L891.373 408.338L881.249 422.441Z" fill="black"/>
<path d="M888.768 406.859L878.938 420.55L881.185 422.09L891.015 408.399L888.768 406.859ZM888.644 406.153L891.736 408.273L881.309 422.796L878.217 420.676L888.644 406.153Z" fill="#707070"/>
<path d="M879.975 422.125C879.975 422.125 884.894 416.574 885.389 416.975C885.885 417.376 882.65 422.989 882.147 423.512C881.644 424.034 879.975 422.125 879.975 422.125Z" fill="#EADB7C"/>
<path d="M815.908 545.891H820.458L827.843 549.988H815.908L814.885 545.891H815.908Z" fill="black"/>
<path d="M852.245 546.929L858.153 544.77L865.94 549.36L850.902 549.99L852.245 546.929Z" fill="black"/>
<path d="M613.535 297.445H322.21C317.797 297.445 314.221 300.796 314.221 304.93V439.15C314.221 443.284 317.797 446.635 322.21 446.635H613.535C617.947 446.635 621.524 443.284 621.524 439.15V304.93C621.524 300.796 617.947 297.445 613.535 297.445Z" fill="#BDE2FC"/>
<path d="M466.619 327H374.381C370.857 327 368 329.462 368 332.5V361.5C368 364.538 370.857 367 374.381 367H466.619C470.143 367 473 364.538 473 361.5V332.5C473 329.462 470.143 327 466.619 327Z" fill="white"/>
<path d="M466.541 375.283H438.314C434.784 375.283 431.923 377.964 431.923 381.271V396.24C431.923 399.546 434.784 402.227 438.314 402.227H466.541C470.071 402.227 472.932 399.546 472.932 396.24V381.271C472.932 377.964 470.071 375.283 466.541 375.283Z" fill="white"/>
<path d="M467.34 420.19H442.308C439.22 420.19 436.716 422.535 436.716 425.429C436.716 428.322 439.22 430.668 442.308 430.668H467.34C470.429 430.668 472.932 428.322 472.932 425.429C472.932 422.535 470.429 420.19 467.34 420.19Z" fill="white"/>
<path d="M407.158 420.19H382.126C379.037 420.19 376.534 422.535 376.534 425.429C376.534 428.322 379.037 430.668 382.126 430.668H407.158C410.246 430.668 412.75 428.322 412.75 425.429C412.75 422.535 410.246 420.19 407.158 420.19Z" fill="white"/>
<path d="M586.373 327.383H502.224C498.401 327.383 495.301 330.287 495.301 333.869V424.181C495.301 427.764 498.401 430.668 502.224 430.668H586.373C590.197 430.668 593.297 427.764 593.297 424.181V333.869C593.297 330.287 590.197 327.383 586.373 327.383Z" fill="white"/>
<path d="M344.578 297.445H316.884C312.472 297.445 308.895 300.796 308.895 304.93V439.15C308.895 443.284 312.472 446.635 316.884 446.635H344.578C348.991 446.635 352.567 443.284 352.567 439.15V304.93C352.567 300.796 348.991 297.445 344.578 297.445Z" fill="#1B7EC2"/>
<path d="M473.637 262.42L509.513 270.219L538.711 266.748C538.711 266.748 539.449 268.245 538.018 272.044C536.588 275.843 533.464 279.647 533.464 279.647L527.881 281.471L510.103 279.647L473.637 262.42Z" fill="#1B7EC2"/>
<path d="M589.091 302H374.909C371.093 302 368 304.91 368 308.5V309.5C368 313.09 371.093 316 374.909 316H589.091C592.907 316 596 313.09 596 309.5V308.5C596 304.91 592.907 302 589.091 302Z" fill="white"/>
<path d="M516.176 272.996C519.039 267.951 529.071 270.342 531.048 272.996C533.025 275.65 529.31 327.486 525.595 336.364C521.879 345.242 516.176 336.364 516.176 336.364C516.176 336.364 513.313 278.04 516.176 272.996Z" fill="#E0D277"/>
<path d="M321.943 327.383H352.567V337.861H321.943C320.46 337.861 319.038 337.309 317.989 336.327C316.94 335.344 316.351 334.011 316.351 332.622V332.622C316.351 331.233 316.94 329.9 317.989 328.917C319.038 327.935 320.46 327.383 321.943 327.383V327.383Z" fill="white"/>
<path d="M378.184 306.835L380.872 309.364L378.24 311.961L375.552 309.432L378.184 306.835Z" fill="#75BFF2"/>
<path d="M374.219 305.491C374.72 305.128 376.349 306.096 376.349 306.096L378.104 307.184L375.974 309.24C375.974 309.24 374.971 307.909 374.845 307.667C374.72 307.425 373.717 305.854 374.219 305.491Z" fill="#75BFF2" stroke="#777777"/>
<path d="M378.09 307.345L380.375 309.496L378.341 311.456L376.107 309.305L378.09 307.345Z" fill="#75BFF2"/>
<path d="M374.171 313.276C373.794 312.793 374.794 311.22 374.794 311.22L375.919 309.523L378.054 311.575C378.054 311.575 376.678 312.546 376.426 312.668C376.175 312.789 374.548 313.759 374.171 313.276Z" fill="#75BFF2" stroke="#777777"/>
<path d="M382.228 305.545C382.608 306.026 381.617 307.605 381.617 307.605L380.503 309.306L378.355 307.265C378.355 307.265 379.727 306.288 379.977 306.168C380.226 306.047 381.848 305.064 382.228 305.545Z" fill="#75BFF2" stroke="#777777"/>
<path d="M382.227 313.296C381.723 313.655 380.101 312.677 380.101 312.677L378.355 311.576L380.501 309.536C380.501 309.536 381.494 310.873 381.62 311.115C381.745 311.358 382.732 312.937 382.227 313.296Z" fill="#75BFF2" stroke="#777777"/>
<path d="M383.092 310.239C383.085 310.199 383.088 310.158 383.1 310.119C383.113 310.08 383.136 310.045 383.166 310.016C383.196 309.987 383.233 309.965 383.273 309.951C383.314 309.938 383.358 309.934 383.401 309.939H383.777C383.815 309.935 383.854 309.939 383.89 309.95C383.927 309.962 383.961 309.98 383.99 310.004C384.042 310.064 384.071 310.138 384.074 310.215C384.084 310.313 384.119 310.407 384.175 310.49C384.204 310.53 384.244 310.562 384.291 310.583C384.338 310.604 384.39 310.613 384.441 310.609C384.489 310.611 384.537 310.603 384.582 310.587C384.626 310.57 384.667 310.544 384.7 310.512C384.774 310.423 384.81 310.311 384.801 310.198V308.36H384.029C383.986 308.365 383.943 308.361 383.902 308.347C383.861 308.334 383.824 308.312 383.794 308.283C383.764 308.254 383.742 308.218 383.729 308.18C383.716 308.141 383.713 308.1 383.72 308.06V307.848C383.713 307.808 383.716 307.767 383.729 307.729C383.742 307.69 383.764 307.655 383.794 307.625C383.824 307.596 383.861 307.574 383.902 307.561C383.943 307.548 383.986 307.543 384.029 307.549H385.472C385.515 307.543 385.558 307.548 385.599 307.561C385.64 307.574 385.677 307.596 385.707 307.625C385.737 307.655 385.759 307.69 385.772 307.729C385.785 307.767 385.788 307.808 385.781 307.848V310.225C385.785 310.416 385.745 310.606 385.663 310.781C385.593 310.929 385.49 311.062 385.36 311.17C385.234 311.273 385.087 311.352 384.927 311.402C384.77 311.452 384.605 311.478 384.439 311.477C384.269 311.477 384.101 311.452 383.94 311.402C383.781 311.349 383.634 311.268 383.507 311.164C383.38 311.055 383.277 310.923 383.204 310.775C383.126 310.606 383.088 310.423 383.092 310.239ZM387.1 310.541C387.099 310.603 387.123 310.663 387.167 310.709C387.195 310.733 387.227 310.752 387.263 310.764C387.299 310.776 387.337 310.781 387.375 310.779C387.443 310.779 387.51 310.765 387.571 310.736C387.631 310.704 387.685 310.664 387.731 310.617C387.775 310.571 387.81 310.518 387.832 310.46C387.858 310.406 387.871 310.347 387.872 310.287V310.212H387.782C387.703 310.212 387.624 310.217 387.546 310.228C387.471 310.237 387.397 310.256 387.327 310.281C387.266 310.305 387.21 310.34 387.164 310.384C387.142 310.405 387.126 310.43 387.115 310.457C387.104 310.484 387.099 310.513 387.1 310.542V310.541ZM386.141 310.627C386.134 310.461 386.188 310.297 386.293 310.163C386.4 310.038 386.537 309.938 386.691 309.871C386.859 309.798 387.037 309.747 387.219 309.721C387.403 309.693 387.589 309.678 387.775 309.678H387.858V309.628C387.863 309.581 387.854 309.535 387.832 309.493C387.81 309.451 387.776 309.415 387.734 309.39C387.648 309.342 387.548 309.318 387.448 309.32C387.355 309.32 387.262 309.333 387.173 309.358C387.088 309.381 387.006 309.41 386.926 309.444C386.89 309.466 386.85 309.479 386.809 309.484C386.767 309.489 386.725 309.485 386.685 309.473C386.645 309.461 386.608 309.44 386.578 309.412C386.548 309.385 386.525 309.352 386.51 309.315L386.443 309.179C386.404 309.11 386.392 309.029 386.41 308.952C386.421 308.914 386.441 308.879 386.469 308.849C386.497 308.819 386.531 308.796 386.569 308.78C386.702 308.721 386.839 308.672 386.979 308.634C387.161 308.585 387.351 308.561 387.54 308.564C387.885 308.545 388.223 308.654 388.484 308.866C388.602 308.973 388.695 309.103 388.755 309.246C388.815 309.39 388.841 309.544 388.831 309.698V311.113C388.838 311.153 388.836 311.194 388.823 311.232C388.81 311.271 388.787 311.306 388.757 311.335C388.727 311.364 388.691 311.387 388.65 311.4C388.609 311.413 388.565 311.417 388.522 311.412H388.253C388.047 311.412 387.944 311.311 387.944 311.11V311.05C387.944 311.045 387.946 311.039 387.95 311.034H387.939C387.882 311.118 387.812 311.193 387.731 311.256C387.649 311.32 387.559 311.372 387.462 311.413C387.342 311.458 387.214 311.48 387.086 311.477C386.955 311.479 386.825 311.457 386.704 311.413C386.593 311.373 386.491 311.312 386.406 311.234C386.322 311.157 386.256 311.066 386.209 310.965C386.163 310.858 386.139 310.743 386.14 310.628L386.141 310.627ZM389.358 308.926C389.351 308.886 389.354 308.845 389.367 308.806C389.38 308.768 389.402 308.732 389.432 308.703C389.462 308.674 389.499 308.652 389.54 308.639C389.581 308.625 389.624 308.621 389.667 308.626H389.981C390.183 308.626 390.284 308.726 390.284 308.926V308.976C390.284 308.983 390.282 308.991 390.278 308.997V309.047H390.29C390.323 309 390.365 308.948 390.413 308.89C390.468 308.831 390.53 308.778 390.598 308.734C390.673 308.685 390.754 308.645 390.84 308.615C390.939 308.581 391.043 308.564 391.149 308.565C391.318 308.562 391.485 308.603 391.631 308.684C391.777 308.764 391.892 308.886 391.957 309.033H391.968C392.009 308.972 392.058 308.915 392.114 308.865C392.178 308.808 392.25 308.758 392.327 308.716C392.407 308.668 392.494 308.632 392.585 308.608C392.685 308.579 392.789 308.564 392.894 308.565C393.018 308.563 393.141 308.582 393.259 308.618C393.373 308.653 393.475 308.714 393.556 308.796C393.649 308.889 393.718 308.999 393.758 309.12C393.811 309.277 393.835 309.441 393.831 309.606V311.113C393.838 311.153 393.835 311.194 393.823 311.232C393.81 311.271 393.787 311.306 393.757 311.335C393.727 311.364 393.69 311.387 393.65 311.4C393.609 311.413 393.565 311.417 393.522 311.412H393.169C393.126 311.417 393.082 311.413 393.042 311.4C393.001 311.387 392.964 311.364 392.934 311.335C392.904 311.306 392.881 311.271 392.869 311.232C392.856 311.194 392.853 311.153 392.86 311.113V309.764C392.863 309.677 392.848 309.591 392.815 309.51C392.801 309.477 392.776 309.45 392.743 309.432C392.711 309.415 392.673 309.408 392.636 309.412C392.541 309.409 392.448 309.433 392.369 309.483C392.297 309.531 392.238 309.593 392.195 309.666C392.151 309.75 392.121 309.839 392.105 309.931C392.086 310.031 392.077 310.132 392.077 310.233V311.113C392.084 311.153 392.081 311.194 392.068 311.233C392.055 311.271 392.033 311.307 392.003 311.336C391.973 311.365 391.936 311.387 391.895 311.4C391.854 311.414 391.811 311.418 391.768 311.413H391.414C391.372 311.418 391.328 311.414 391.287 311.4C391.246 311.387 391.209 311.365 391.179 311.336C391.149 311.307 391.127 311.271 391.114 311.233C391.101 311.194 391.098 311.153 391.106 311.113V309.764C391.109 309.677 391.094 309.591 391.061 309.51C391.047 309.477 391.021 309.45 390.989 309.432C390.956 309.415 390.918 309.408 390.881 309.412C390.783 309.408 390.687 309.435 390.606 309.488C390.535 309.54 390.477 309.606 390.438 309.683C390.395 309.765 390.364 309.852 390.348 309.942C390.333 310.039 390.326 310.136 390.326 310.234V311.114C390.333 311.154 390.33 311.195 390.317 311.234C390.304 311.272 390.282 311.308 390.252 311.337C390.222 311.366 390.185 311.388 390.144 311.401C390.103 311.415 390.06 311.419 390.017 311.414H389.663C389.62 311.419 389.577 311.415 389.536 311.401C389.495 311.388 389.458 311.366 389.428 311.337C389.398 311.308 389.376 311.272 389.363 311.234C389.35 311.195 389.347 311.154 389.354 311.114L389.358 308.926ZM395.312 310.012C395.311 310.101 395.323 310.19 395.345 310.276C395.369 310.354 395.405 310.429 395.452 310.498C395.5 310.557 395.559 310.608 395.626 310.647C395.7 310.684 395.783 310.702 395.867 310.701C395.945 310.702 396.022 310.687 396.093 310.657C396.163 310.627 396.226 310.583 396.277 310.528C396.399 310.388 396.459 310.21 396.445 310.03C396.454 309.853 396.398 309.68 396.285 309.538C396.24 309.478 396.179 309.429 396.109 309.396C396.038 309.363 395.96 309.347 395.881 309.349C395.806 309.349 395.731 309.364 395.662 309.392C395.594 309.419 395.532 309.459 395.483 309.511C395.427 309.571 395.383 309.641 395.354 309.716C395.322 309.812 395.307 309.912 395.31 310.012L395.312 310.012ZM394.367 307.848C394.36 307.808 394.363 307.767 394.376 307.729C394.389 307.69 394.411 307.655 394.441 307.625C394.471 307.596 394.508 307.574 394.549 307.561C394.59 307.548 394.633 307.543 394.676 307.549H395.03C395.072 307.543 395.116 307.548 395.157 307.561C395.198 307.574 395.235 307.596 395.265 307.625C395.295 307.655 395.317 307.69 395.33 307.729C395.343 307.767 395.346 307.808 395.339 307.848V308.68C395.339 308.712 395.337 308.745 395.333 308.777V308.853C395.329 308.874 395.327 308.896 395.327 308.918H395.338C395.393 308.851 395.459 308.792 395.535 308.745C395.611 308.696 395.694 308.656 395.782 308.626C395.894 308.585 396.014 308.565 396.135 308.567C396.316 308.565 396.494 308.602 396.657 308.675C396.815 308.744 396.953 308.847 397.061 308.974C397.18 309.109 397.27 309.262 397.328 309.428C397.393 309.616 397.425 309.813 397.423 310.011C397.426 310.219 397.39 310.425 397.317 310.621C397.255 310.791 397.16 310.949 397.036 311.086C396.918 311.211 396.773 311.311 396.61 311.379C396.447 311.447 396.271 311.482 396.093 311.48C395.959 311.484 395.825 311.464 395.7 311.421C395.61 311.388 395.527 311.342 395.452 311.285C395.38 311.23 395.317 311.165 395.267 311.091H395.256V311.129C395.26 311.133 395.262 311.139 395.262 311.145V311.166C395.263 311.199 395.256 311.232 395.243 311.263C395.229 311.294 395.209 311.321 395.183 311.344C395.119 311.395 395.036 311.42 394.953 311.415H394.675C394.632 311.42 394.588 311.416 394.548 311.402C394.507 311.389 394.47 311.367 394.44 311.338C394.41 311.309 394.388 311.273 394.375 311.235C394.362 311.196 394.359 311.155 394.366 311.115L394.367 307.848ZM398.662 310.03C398.66 310.126 398.677 310.221 398.712 310.311C398.747 310.389 398.796 310.46 398.858 310.521C398.918 310.579 398.988 310.625 399.066 310.657C399.229 310.714 399.409 310.714 399.572 310.657C399.649 310.625 399.72 310.579 399.779 310.521C399.841 310.461 399.889 310.389 399.919 310.311C399.994 310.13 399.994 309.93 399.919 309.749C399.89 309.669 399.842 309.595 399.779 309.533C399.721 309.473 399.65 309.425 399.57 309.392C399.491 309.359 399.405 309.342 399.319 309.342C399.232 309.342 399.146 309.359 399.067 309.392C398.988 309.425 398.917 309.473 398.858 309.533C398.795 309.596 398.746 309.669 398.712 309.749C398.678 309.838 398.661 309.933 398.662 310.028L398.662 310.03ZM397.68 310.03C397.677 309.824 397.721 309.62 397.809 309.431C397.89 309.258 398.008 309.101 398.156 308.972C398.307 308.841 398.485 308.739 398.678 308.673C399.089 308.529 399.542 308.529 399.953 308.673C400.147 308.737 400.325 308.839 400.475 308.972C400.626 309.1 400.746 309.257 400.828 309.431C400.914 309.62 400.958 309.823 400.958 310.028C400.958 310.233 400.914 310.436 400.828 310.625C400.745 310.798 400.624 310.954 400.475 311.082C400.325 311.211 400.15 311.31 399.958 311.373C399.545 311.51 399.094 311.51 398.68 311.373C398.488 311.308 398.31 311.209 398.158 311.081C398.012 310.951 397.893 310.795 397.81 310.622C397.722 310.435 397.678 310.233 397.68 310.028V310.03ZM401.341 311.091C401.312 311.071 401.285 311.047 401.262 311.021C401.24 310.993 401.223 310.962 401.211 310.929C401.204 310.892 401.204 310.853 401.211 310.816C401.227 310.767 401.252 310.722 401.284 310.681L401.458 310.438C401.477 310.405 401.504 310.376 401.536 310.353C401.568 310.331 401.605 310.315 401.644 310.308C401.729 310.301 401.814 310.322 401.885 310.367C401.919 310.385 401.958 310.407 402.003 310.432C402.048 310.457 402.102 310.484 402.166 310.513C402.233 310.539 402.303 310.561 402.373 310.578C402.452 310.596 402.533 310.605 402.615 310.605C402.727 310.613 402.84 310.587 402.934 310.529C402.967 310.507 402.994 310.477 403.012 310.444C403.031 310.41 403.04 310.372 403.041 310.334C403.04 310.289 403.028 310.244 403.004 310.205C402.981 310.165 402.947 310.132 402.906 310.107C402.806 310.035 402.697 309.975 402.581 309.929C402.45 309.872 402.308 309.812 402.155 309.751C402.003 309.687 401.86 309.608 401.728 309.514C401.597 309.42 401.485 309.304 401.397 309.173C401.306 309.018 401.262 308.843 401.268 308.666C401.266 308.5 401.302 308.336 401.375 308.185C401.447 308.041 401.55 307.912 401.678 307.807C401.811 307.7 401.965 307.619 402.133 307.57C402.315 307.511 402.507 307.482 402.7 307.483C402.919 307.481 403.138 307.514 403.345 307.581C403.5 307.624 403.647 307.688 403.783 307.77C403.819 307.791 403.849 307.819 403.873 307.851C403.897 307.884 403.914 307.92 403.923 307.959C403.933 308.033 403.917 308.109 403.879 308.175L403.744 308.429C403.688 308.533 403.622 308.587 403.547 308.591C403.468 308.589 403.391 308.569 403.323 308.532C403.229 308.488 403.132 308.449 403.031 308.413C402.922 308.371 402.806 308.351 402.688 308.354C402.569 308.343 402.451 308.372 402.352 308.434C402.32 308.456 402.294 308.485 402.277 308.518C402.259 308.55 402.25 308.587 402.25 308.623C402.25 308.669 402.262 308.714 402.284 308.754C402.307 308.795 402.339 308.83 402.379 308.855C402.483 308.924 402.594 308.982 402.711 309.028C402.842 309.082 402.984 309.14 403.137 309.201C403.289 309.258 403.432 309.334 403.563 309.428C403.695 309.519 403.806 309.635 403.888 309.768C403.983 309.92 404.03 310.094 404.023 310.271C404.024 310.43 403.991 310.587 403.928 310.735C403.868 310.879 403.776 311.01 403.658 311.119C403.53 311.232 403.379 311.32 403.214 311.378C403.022 311.446 402.819 311.479 402.614 311.475C402.476 311.476 402.339 311.463 402.204 311.438C402.082 311.414 401.962 311.383 401.845 311.346C401.743 311.309 401.644 311.268 401.547 311.222C401.475 311.183 401.406 311.139 401.341 311.091ZM404.762 307.835C404.76 307.795 404.767 307.756 404.782 307.72C404.798 307.683 404.821 307.65 404.852 307.623C404.882 307.596 404.918 307.575 404.958 307.562C404.997 307.549 405.039 307.545 405.081 307.548H405.587C405.666 307.544 405.744 307.566 405.808 307.611C405.871 307.655 405.916 307.719 405.934 307.791L406.434 309.179C406.456 309.241 406.479 309.309 406.501 309.384C406.523 309.46 406.546 309.528 406.568 309.589L406.635 309.816H406.646L406.714 309.589C406.732 309.525 406.753 309.456 406.775 309.384C406.798 309.313 406.822 309.244 406.848 309.179L407.348 307.791C407.366 307.719 407.411 307.655 407.475 307.611C407.538 307.566 407.616 307.544 407.696 307.548H408.203C408.244 307.545 408.286 307.549 408.326 307.562C408.366 307.575 408.402 307.596 408.432 307.623C408.462 307.65 408.486 307.683 408.502 307.72C408.517 307.756 408.524 307.795 408.522 307.835L408.797 311.102C408.803 311.142 408.801 311.183 408.789 311.222C408.777 311.261 408.757 311.298 408.73 311.329C408.701 311.358 408.666 311.38 408.627 311.394C408.588 311.408 408.547 311.413 408.505 311.41H408.14C408.099 311.414 408.056 311.409 408.017 311.396C407.977 311.383 407.941 311.362 407.911 311.335C407.881 311.308 407.857 311.275 407.841 311.239C407.826 311.202 407.819 311.163 407.821 311.124L407.72 309.671C407.712 309.599 407.706 309.525 407.703 309.449C407.699 309.373 407.701 309.303 407.708 309.239C407.708 309.167 407.712 309.095 407.72 309.023H407.708C407.682 309.102 407.656 309.179 407.63 309.255L407.557 309.465C407.53 309.541 407.506 309.609 407.484 309.67L407.152 310.55C407.131 310.622 407.085 310.685 407.02 310.728C406.956 310.771 406.878 310.792 406.799 310.788H406.484C406.405 310.792 406.327 310.771 406.263 310.728C406.199 310.685 406.152 310.622 406.131 310.55L405.8 309.67C405.777 309.609 405.753 309.541 405.727 309.465L405.654 309.255C405.627 309.179 405.601 309.102 405.575 309.023H405.564C405.564 309.094 405.566 309.166 405.57 309.239V309.449C405.573 309.523 405.571 309.597 405.564 309.671L405.462 311.124C405.464 311.163 405.457 311.202 405.442 311.239C405.426 311.275 405.403 311.308 405.372 311.335C405.342 311.362 405.306 311.383 405.266 311.396C405.227 311.409 405.185 311.414 405.143 311.41H404.77C404.728 311.413 404.685 311.407 404.646 311.393C404.606 311.379 404.57 311.357 404.54 311.329C404.514 311.297 404.496 311.261 404.485 311.222C404.474 311.183 404.472 311.142 404.478 311.102L404.762 307.835ZM409.382 311.091C409.353 311.071 409.327 311.047 409.303 311.021C409.282 310.993 409.264 310.962 409.253 310.929C409.245 310.892 409.245 310.853 409.253 310.816C409.269 310.767 409.294 310.722 409.326 310.681L409.5 310.438C409.519 310.405 409.545 310.376 409.577 310.353C409.609 310.331 409.646 310.315 409.685 310.308C409.771 310.301 409.856 310.322 409.927 310.367C409.96 310.385 410 310.407 410.044 310.432C410.089 310.457 410.143 310.484 410.207 310.513C410.275 310.539 410.344 310.561 410.415 310.578C410.494 310.596 410.575 310.605 410.656 310.605C410.769 310.613 410.881 310.587 410.976 310.529C411.009 310.507 411.035 310.477 411.054 310.444C411.072 310.41 411.082 310.372 411.082 310.334C411.082 310.289 411.069 310.244 411.046 310.205C411.022 310.165 410.988 310.132 410.948 310.107C410.848 310.035 410.738 309.975 410.622 309.929C410.491 309.872 410.349 309.812 410.196 309.751C410.045 309.687 409.902 309.608 409.77 309.514C409.639 309.42 409.527 309.304 409.439 309.173C409.348 309.018 409.303 308.843 409.31 308.666C409.307 308.5 409.344 308.336 409.416 308.185C409.488 308.041 409.592 307.912 409.719 307.807C409.852 307.7 410.007 307.619 410.174 307.57C410.357 307.511 410.549 307.482 410.741 307.483C410.961 307.481 411.179 307.514 411.387 307.581C411.542 307.624 411.689 307.688 411.825 307.77C411.86 307.791 411.891 307.819 411.915 307.851C411.939 307.884 411.956 307.92 411.965 307.959C411.974 308.033 411.959 308.109 411.92 308.175L411.785 308.429C411.729 308.533 411.664 308.587 411.589 308.591C411.51 308.589 411.433 308.569 411.364 308.532C411.271 308.488 411.173 308.449 411.072 308.413C410.964 308.371 410.847 308.351 410.73 308.354C410.611 308.343 410.492 308.372 410.393 308.434C410.362 308.456 410.336 308.485 410.318 308.518C410.301 308.55 410.292 308.587 410.292 308.623C410.292 308.669 410.303 308.714 410.326 308.754C410.348 308.795 410.381 308.83 410.421 308.855C410.524 308.924 410.635 308.982 410.752 309.028C410.883 309.082 411.025 309.14 411.178 309.201C411.331 309.258 411.474 309.334 411.604 309.428C411.736 309.519 411.847 309.635 411.93 309.768C412.025 309.92 412.072 310.094 412.064 310.271C412.065 310.43 412.033 310.587 411.969 310.735C411.909 310.879 411.817 311.01 411.7 311.119C411.571 311.232 411.421 311.32 411.256 311.378C411.064 311.446 410.86 311.479 410.655 311.475C410.518 311.476 410.38 311.463 410.246 311.438C410.124 311.414 410.004 311.383 409.886 311.346C409.785 311.309 409.685 311.268 409.588 311.222C409.516 311.183 409.447 311.139 409.382 311.091Z" fill="#75BFF2"/>
<defs>
<filter id="filter0_d" x="797.729" y="415.431" width="58.2765" height="68.1825" filterUnits="userSpaceOnUse" color-interpolation-filters="sRGB">
<feFlood flood-opacity="0" result="BackgroundImageFix"/>
<feColorMatrix in="SourceAlpha" type="matrix" values="0 0 0 0 0 0 0 0 0 0 0 0 0 0 0 0 0 0 127 0"/>
<feOffset dy="3"/>
<feGaussianBlur stdDeviation="3"/>
<feColorMatrix type="matrix" values="0 0 0 0 0 0 0 0 0 0 0 0 0 0 0 0 0 0 0.161 0"/>
<feBlend mode="normal" in2="BackgroundImageFix" result="effect1_dropShadow"/>
<feBlend mode="normal" in="SourceGraphic" in2="effect1_dropShadow" result="shape"/>
</filter>
<filter id="filter1_d" x="818.876" y="469.774" width="48.2024" height="86.3057" filterUnits="userSpaceOnUse" color-interpolation-filters="sRGB">
<feFlood flood-opacity="0" result="BackgroundImageFix"/>
<feColorMatrix in="SourceAlpha" type="matrix" values="0 0 0 0 0 0 0 0 0 0 0 0 0 0 0 0 0 0 127 0"/>
<feOffset dy="3"/>
<feGaussianBlur stdDeviation="3"/>
<feColorMatrix type="matrix" values="0 0 0 0 0 0 0 0 0 0 0 0 0 0 0 0 0 0 0.161 0"/>
<feBlend mode="normal" in2="BackgroundImageFix" result="effect1_dropShadow"/>
<feBlend mode="normal" in="SourceGraphic" in2="effect1_dropShadow" result="shape"/>
</filter>
<filter id="filter2_d" x="205.447" y="446.266" width="61.4818" height="109.9" filterUnits="userSpaceOnUse" color-interpolation-filters="sRGB">
<feFlood flood-opacity="0" result="BackgroundImageFix"/>
<feColorMatrix in="SourceAlpha" type="matrix" values="0 0 0 0 0 0 0 0 0 0 0 0 0 0 0 0 0 0 127 0"/>
<feOffset dy="3"/>
<feGaussianBlur stdDeviation="3"/>
<feColorMatrix type="matrix" values="0 0 0 0 0 0 0 0 0 0 0 0 0 0 0 0 0 0 0.161 0"/>
<feBlend mode="normal" in2="BackgroundImageFix" result="effect1_dropShadow"/>
<feBlend mode="normal" in="SourceGraphic" in2="effect1_dropShadow" result="shape"/>
</filter>
<filter id="filter3_d" x="220.021" y="445.223" width="76.4239" height="110.943" filterUnits="userSpaceOnUse" color-interpolation-filters="sRGB">
<feFlood flood-opacity="0" result="BackgroundImageFix"/>
<feColorMatrix in="SourceAlpha" type="matrix" values="0 0 0 0 0 0 0 0 0 0 0 0 0 0 0 0 0 0 127 0"/>
<feOffset dy="3"/>
<feGaussianBlur stdDeviation="3"/>
<feColorMatrix type="matrix" values="0 0 0 0 0 0 0 0 0 0 0 0 0 0 0 0 0 0 0.161 0"/>
<feBlend mode="normal" in2="BackgroundImageFix" result="effect1_dropShadow"/>
<feBlend mode="normal" in="SourceGraphic" in2="effect1_dropShadow" result="shape"/>
</filter>
<filter id="filter4_d" x="811.9" y="376.135" width="46.0898" height="36.0505" filterUnits="userSpaceOnUse" color-interpolation-filters="sRGB">
<feFlood flood-opacity="0" result="BackgroundImageFix"/>
<feColorMatrix in="SourceAlpha" type="matrix" values="0 0 0 0 0 0 0 0 0 0 0 0 0 0 0 0 0 0 127 0"/>
<feOffset dy="3"/>
<feGaussianBlur stdDeviation="3"/>
<feColorMatrix type="matrix" values="0 0 0 0 0 0 0 0 0 0 0 0 0 0 0 0 0 0 0.161 0"/>
<feBlend mode="normal" in2="BackgroundImageFix" result="effect1_dropShadow"/>
<feBlend mode="normal" in="SourceGraphic" in2="effect1_dropShadow" result="shape"/>
</filter>
<filter id="filter5_d" x="803.159" y="428.085" width="25.575" height="26.9751" filterUnits="userSpaceOnUse" color-interpolation-filters="sRGB">
<feFlood flood-opacity="0" result="BackgroundImageFix"/>
<feColorMatrix in="SourceAlpha" type="matrix" values="0 0 0 0 0 0 0 0 0 0 0 0 0 0 0 0 0 0 127 0"/>
<feOffset dx="2" dy="3"/>
<feGaussianBlur stdDeviation="3"/>
<feColorMatrix type="matrix" values="0 0 0 0 0 0 0 0 0 0 0 0 0 0 0 0 0 0 0.161 0"/>
<feBlend mode="normal" in2="BackgroundImageFix" result="effect1_dropShadow"/>
<feBlend mode="normal" in="SourceGraphic" in2="effect1_dropShadow" result="shape"/>
</filter>
<filter id="filter6_d" x="242.052" y="521.453" width="44.5767" height="32.7472" filterUnits="userSpaceOnUse" color-interpolation-filters="sRGB">
<feFlood flood-opacity="0" result="BackgroundImageFix"/>
<feColorMatrix in="SourceAlpha" type="matrix" values="0 0 0 0 0 0 0 0 0 0 0 0 0 0 0 0 0 0 127 0"/>
<feOffset dy="3"/>
<feGaussianBlur stdDeviation="3"/>
<feColorMatrix type="matrix" values="0 0 0 0 0 0 0 0 0 0 0 0 0 0 0 0 0 0 0.161 0"/>
<feBlend mode="normal" in2="BackgroundImageFix" result="effect1_dropShadow"/>
<feBlend mode="normal" in="SourceGraphic" in2="effect1_dropShadow" result="shape"/>
</filter>
<filter id="filter7_d" x="219.212" y="322.794" width="57.6863" height="43.9159" filterUnits="userSpaceOnUse" color-interpolation-filters="sRGB">
<feFlood flood-opacity="0" result="BackgroundImageFix"/>
<feColorMatrix in="SourceAlpha" type="matrix" values="0 0 0 0 0 0 0 0 0 0 0 0 0 0 0 0 0 0 127 0"/>
<feOffset dy="3"/>
<feGaussianBlur stdDeviation="3"/>
<feColorMatrix type="matrix" values="0 0 0 0 0 0 0 0 0 0 0 0 0 0 0 0 0 0 0.161 0"/>
<feBlend mode="normal" in2="BackgroundImageFix" result="effect1_dropShadow"/>
<feBlend mode="normal" in="SourceGraphic" in2="effect1_dropShadow" result="shape"/>
</filter>
<filter id="filter8_d" x="222.809" y="374.362" width="76.2294" height="86.5321" filterUnits="userSpaceOnUse" color-interpolation-filters="sRGB">
<feFlood flood-opacity="0" result="BackgroundImageFix"/>
<feColorMatrix in="SourceAlpha" type="matrix" values="0 0 0 0 0 0 0 0 0 0 0 0 0 0 0 0 0 0 127 0"/>
<feOffset dy="3"/>
<feGaussianBlur stdDeviation="3"/>
<feColorMatrix type="matrix" values="0 0 0 0 0 0 0 0 0 0 0 0 0 0 0 0 0 0 0.161 0"/>
<feBlend mode="normal" in2="BackgroundImageFix" result="effect1_dropShadow"/>
<feBlend mode="normal" in="SourceGraphic" in2="effect1_dropShadow" result="shape"/>
</filter>
<filter id="filter9_d" x="264.075" y="401.729" width="35.4641" height="68.7105" filterUnits="userSpaceOnUse" color-interpolation-filters="sRGB">
<feFlood flood-opacity="0" result="BackgroundImageFix"/>
<feColorMatrix in="SourceAlpha" type="matrix" values="0 0 0 0 0 0 0 0 0 0 0 0 0 0 0 0 0 0 127 0"/>
<feOffset dx="5" dy="3"/>
<feGaussianBlur stdDeviation="3"/>
<feColorMatrix type="matrix" values="0 0 0 0 0 0 0 0 0 0 0 0 0 0 0 0 0 0 0.161 0"/>
<feBlend mode="normal" in2="BackgroundImageFix" result="effect1_dropShadow"/>
<feBlend mode="normal" in="SourceGraphic" in2="effect1_dropShadow" result="shape"/>
</filter>
<filter id="filter10_d" x="263.041" y="390.912" width="32.0442" height="32.3457" filterUnits="userSpaceOnUse" color-interpolation-filters="sRGB">
<feFlood flood-opacity="0" result="BackgroundImageFix"/>
<feColorMatrix in="SourceAlpha" type="matrix" values="0 0 0 0 0 0 0 0 0 0 0 0 0 0 0 0 0 0 127 0"/>
<feOffset dx="2" dy="3"/>
<feGaussianBlur stdDeviation="3"/>
<feColorMatrix type="matrix" values="0 0 0 0 0 0 0 0 0 0 0 0 0 0 0 0 0 0 0.161 0"/>
<feBlend mode="normal" in2="BackgroundImageFix" result="effect1_dropShadow"/>
<feBlend mode="normal" in="SourceGraphic" in2="effect1_dropShadow" result="shape"/>
</filter>
<filter id="filter11_d" x="466.854" y="214.181" width="79.8479" height="67.2603" filterUnits="userSpaceOnUse" color-interpolation-filters="sRGB">
<feFlood flood-opacity="0" result="BackgroundImageFix"/>
<feColorMatrix in="SourceAlpha" type="matrix" values="0 0 0 0 0 0 0 0 0 0 0 0 0 0 0 0 0 0 127 0"/>
<feOffset dy="3"/>
<feGaussianBlur stdDeviation="3"/>
<feColorMatrix type="matrix" values="0 0 0 0 0 0 0 0 0 0 0 0 0 0 0 0 0 0 0.161 0"/>
<feBlend mode="normal" in2="BackgroundImageFix" result="effect1_dropShadow"/>
<feBlend mode="normal" in="SourceGraphic" in2="effect1_dropShadow" result="shape"/>
</filter>
<filter id="filter12_d" x="473.624" y="231.007" width="27.048" height="23.1396" filterUnits="userSpaceOnUse" color-interpolation-filters="sRGB">
<feFlood flood-opacity="0" result="BackgroundImageFix"/>
<feColorMatrix in="SourceAlpha" type="matrix" values="0 0 0 0 0 0 0 0 0 0 0 0 0 0 0 0 0 0 127 0"/>
<feOffset dy="3"/>
<feGaussianBlur stdDeviation="3"/>
<feColorMatrix type="matrix" values="0 0 0 0 0 0 0 0 0 0 0 0 0 0 0 0 0 0 0.161 0"/>
<feBlend mode="normal" in2="BackgroundImageFix" result="effect1_dropShadow"/>
<feBlend mode="normal" in="SourceGraphic" in2="effect1_dropShadow" result="shape"/>
</filter>
<filter id="filter13_d" x="804.343" y="439.081" width="32.2155" height="48.1138" filterUnits="userSpaceOnUse" color-interpolation-filters="sRGB">
<feFlood flood-opacity="0" result="BackgroundImageFix"/>
<feColorMatrix in="SourceAlpha" type="matrix" values="0 0 0 0 0 0 0 0 0 0 0 0 0 0 0 0 0 0 127 0"/>
<feOffset dx="5" dy="3"/>
<feGaussianBlur stdDeviation="3"/>
<feColorMatrix type="matrix" values="0 0 0 0 0 0 0 0 0 0 0 0 0 0 0 0 0 0 0.161 0"/>
<feBlend mode="normal" in2="BackgroundImageFix" result="effect1_dropShadow"/>
<feBlend mode="normal" in="SourceGraphic" in2="effect1_dropShadow" result="shape"/>
</filter>
<linearGradient id="paint0_linear" x1="381.561" y1="543.391" x2="381.867" y2="558.171" gradientUnits="userSpaceOnUse">
<stop stop-color="#1B7EC2"/>
<stop offset="1" stop-color="#0E3F61"/>
</linearGradient>
<linearGradient id="paint1_linear" x1="463.878" y1="532.97" x2="463.878" y2="507.835" gradientUnits="userSpaceOnUse">
<stop stop-color="#1B7EC2"/>
<stop offset="1" stop-color="#0E3F61"/>
</linearGradient>
<linearGradient id="paint2_linear" x1="750.254" y1="464.2" x2="716.398" y2="480.663" gradientUnits="userSpaceOnUse">
<stop stop-color="#00BCB0"/>
<stop offset="1" stop-color="#005E58"/>
</linearGradient>
<linearGradient id="paint3_linear" x1="690.639" y1="456.995" x2="772.644" y2="493.044" gradientUnits="userSpaceOnUse">
<stop stop-color="#139595"/>
<stop offset="1" stop-color="#0A4B4B"/>
</linearGradient>
<linearGradient id="paint4_linear" x1="260.924" y1="377.362" x2="208.16" y2="491.571" gradientUnits="userSpaceOnUse">
<stop stop-color="#FF5353"/>
<stop offset="1" stop-color="#802A2A"/>
</linearGradient>
<linearGradient id="paint5_linear" x1="266.012" y1="395.414" x2="259.697" y2="442.668" gradientUnits="userSpaceOnUse">
<stop stop-color="#FF5353"/>
<stop offset="1" stop-color="#802A2A"/>
</linearGradient>
<linearGradient id="paint6_linear" x1="506.778" y1="233.041" x2="504.752" y2="355.349" gradientUnits="userSpaceOnUse">
<stop stop-color="#EC4D4D"/>
<stop offset="1" stop-color="#762727"/>
</linearGradient>
</defs>
</svg>
