<svg width="64" height="64" viewBox="0 0 64 64" fill="none" xmlns="http://www.w3.org/2000/svg">
<path d="M62 9H31V11H62C62.552 11 63 10.552 63 10C63 9.448 62.552 9 62 9Z" fill="#111111"/>
<path d="M26 1H16C15.448 1 15 1.448 15 2V9H2C1.448 9 1 9.448 1 10C1 10.552 1.448 11 2 11H15V18C15 18.552 15.448 19 16 19H26C26.552 19 27 18.552 27 18V2C27 1.448 26.552 1 26 1Z" fill="#1B7EC2"/>
<path d="M62 53H31V55H62C62.552 55 63 54.552 63 54C63 53.448 62.552 53 62 53Z" fill="#111111"/>
<path d="M26 45H16C15.448 45 15 45.448 15 46V53H2C1.448 53 1 53.448 1 54C1 54.552 1.448 55 2 55H15V62C15 62.552 15.448 63 16 63H26C26.552 63 27 62.552 27 62V46C27 45.448 26.552 45 26 45Z" fill="#1B7EC2"/>
<path d="M2 31H33V33H2C1.448 33 1 32.552 1 32C1 31.448 1.448 31 2 31Z" fill="#111111"/>
<path d="M38 23H48C48.552 23 49 23.448 49 24V31H62C62.552 31 63 31.448 63 32C63 32.552 62.552 33 62 33H49V40C49 40.552 48.552 41 48 41H38C37.448 41 37 40.552 37 40V24C37 23.448 37.448 23 38 23Z" fill="#111111"/>
</svg>
