<svg width="390" height="363" viewBox="0 0 390 363" fill="none" xmlns="http://www.w3.org/2000/svg">
<g clip-path="url(#clip0)">
<path d="M195 363C302.696 363 390 359.055 390 354.19C390 349.324 302.696 345.379 195 345.379C87.3045 345.379 0 349.324 0 354.19C0 359.055 87.3045 363 195 363Z" fill="#E6E6E6"/>
<path d="M334.497 84.6527H332.541V31.0334C332.541 26.958 331.739 22.9226 330.181 19.1574C328.623 15.3923 326.339 11.9712 323.46 9.08944C320.581 6.20772 317.163 3.92182 313.401 2.36225C309.639 0.80268 305.608 -1.41411e-05 301.536 1.86847e-10H188.038C183.967 -9.64157e-06 179.935 0.802686 176.173 2.36226C172.411 3.92183 168.993 6.20773 166.114 9.08945C163.235 11.9712 160.951 15.3923 159.393 19.1574C157.835 22.9226 157.033 26.958 157.033 31.0334V325.193C157.033 329.268 157.835 333.304 159.393 337.069C160.951 340.834 163.235 344.255 166.114 347.137C168.993 350.019 172.411 352.304 176.173 353.864C179.935 355.424 183.967 356.226 188.038 356.226H301.536C305.608 356.226 309.639 355.424 313.401 353.864C317.163 352.304 320.581 350.019 323.46 347.137C326.339 344.255 328.623 340.834 330.181 337.069C331.739 333.304 332.541 329.268 332.541 325.193V122.82H334.497V84.6527Z" fill="#3F3D56"/>
<path d="M302.787 8.07381H287.972C288.653 9.74567 288.913 11.5596 288.729 13.3557C288.545 15.1519 287.922 16.8752 286.916 18.3738C285.91 19.8724 284.551 21.1003 282.959 21.9494C281.367 22.7985 279.591 23.2426 277.787 23.2428H212.765C210.961 23.2426 209.185 22.7985 207.593 21.9494C206.001 21.1003 204.642 19.8724 203.636 18.3738C202.63 16.8752 202.007 15.1519 201.823 13.3557C201.639 11.5596 201.899 9.74565 202.58 8.07379H188.743C185.702 8.07379 182.691 8.67323 179.882 9.8379C177.073 11.0026 174.52 12.7096 172.37 14.8617C170.22 17.0137 168.515 19.5685 167.351 22.3803C166.187 25.1921 165.588 28.2057 165.588 31.2491V324.977C165.588 328.02 166.187 331.034 167.351 333.846C168.515 336.658 170.22 339.212 172.37 341.364C174.52 343.516 177.073 345.224 179.882 346.388C182.691 347.553 185.702 348.152 188.743 348.152H302.787C305.828 348.152 308.839 347.553 311.648 346.388C314.457 345.224 317.01 343.516 319.16 341.364C321.31 339.212 323.015 336.658 324.179 333.846C325.343 331.034 325.942 328.02 325.942 324.977V31.2492C325.942 28.2057 325.343 25.1921 324.179 22.3803C323.015 19.5686 321.31 17.0137 319.16 14.8617C317.01 12.7097 314.457 11.0026 311.648 9.83792C308.839 8.67325 305.828 8.07381 302.787 8.07381Z" fill="white"/>
<path d="M251.75 327.348C241.673 327.353 231.899 323.89 224.069 317.541C216.238 311.192 210.826 302.341 208.739 292.473C206.652 282.605 208.017 272.319 212.605 263.338C217.194 254.357 224.727 247.228 233.943 243.146C243.158 239.063 253.495 238.274 263.222 240.912C272.949 243.55 281.475 249.454 287.37 257.635C293.265 265.816 296.172 275.777 295.603 285.847C295.034 295.918 291.024 305.487 284.245 312.951L293.422 323.247L288.843 325.191C281.758 328.199 274.826 325.272 270.935 322.937C264.955 325.838 258.396 327.346 251.75 327.348ZM251.75 246.611C246.146 246.612 240.616 247.896 235.583 250.365C230.551 252.833 226.149 256.42 222.713 260.852C219.277 265.284 216.899 270.443 215.761 275.935C214.622 281.428 214.753 287.108 216.144 292.542C217.534 297.976 220.147 303.02 223.784 307.288C227.42 311.557 231.983 314.937 237.124 317.17C242.265 319.403 247.848 320.43 253.446 320.173C259.045 319.916 264.511 318.382 269.426 315.687L271.386 314.609L273.209 315.907C275.292 317.423 277.657 318.506 280.165 319.092L274.39 312.613L276.922 310.232C280.599 306.804 283.527 302.652 285.523 298.036C287.518 293.42 288.538 288.441 288.518 283.411C288.507 273.655 284.629 264.301 277.737 257.402C270.844 250.503 261.498 246.622 251.75 246.611Z" fill="#E6E6E6"/>
<path d="M292.082 283.411C292.079 274.567 289.173 265.97 283.811 258.94C278.449 251.911 270.928 246.839 262.406 244.505C253.883 242.171 244.83 242.704 236.64 246.022C228.449 249.341 221.575 255.26 217.074 262.87C212.572 270.48 210.693 279.36 211.726 288.143C212.759 296.927 216.646 305.127 222.789 311.483C228.932 317.84 236.992 322 245.728 323.325C254.465 324.649 263.394 323.064 271.142 318.814C273.93 320.799 280.732 324.76 287.451 321.907L279.363 312.832C283.383 309.062 286.587 304.505 288.775 299.444C290.963 294.383 292.089 288.926 292.082 283.411Z" fill="white"/>
<path d="M259.797 275.157H230.978V277.836H259.797V275.157Z" fill="#6C63FF"/>
<path d="M281.208 284.424H230.978V287.103H281.208V284.424Z" fill="#E6E6E6"/>
<path d="M281.159 293.691H230.978V296.369H281.159V293.691Z" fill="#E6E6E6"/>
<path d="M251.75 132.049C241.673 132.054 231.899 128.591 224.069 122.242C216.238 115.893 210.826 107.042 208.739 97.1741C206.652 87.306 208.017 77.0197 212.605 68.0391C217.194 59.0585 224.727 51.9295 233.943 47.8466C243.158 43.7638 253.495 42.9753 263.222 45.6133C272.949 48.2513 281.475 54.1555 287.37 62.3364C293.265 70.5173 296.172 80.4778 295.603 90.5485C295.034 100.619 291.024 110.188 284.245 117.652L293.422 127.948L288.843 129.893C281.758 132.9 274.826 129.974 270.935 127.638C264.955 130.54 258.396 132.048 251.75 132.049ZM251.75 51.3118C246.146 51.3136 240.616 52.5976 235.583 55.0658C230.551 57.534 226.149 61.121 222.713 65.5528C219.277 69.9846 216.899 75.1438 215.761 80.6362C214.622 86.1287 214.753 91.8089 216.144 97.2429C217.534 102.677 220.147 107.721 223.784 111.989C227.42 116.258 231.983 119.638 237.124 121.871C242.265 124.104 247.848 125.131 253.446 124.874C259.045 124.617 264.511 123.083 269.426 120.388L271.386 119.31L273.209 120.608C275.292 122.124 277.657 123.207 280.165 123.793L274.39 117.314L276.922 114.933C280.599 111.505 283.527 107.353 285.523 102.737C287.518 98.1211 288.538 93.1419 288.518 88.1124C288.507 78.3557 284.629 69.0017 277.737 62.1027C270.844 55.2036 261.498 51.3229 251.75 51.3118Z" fill="#E6E6E6"/>
<path d="M292.082 88.1124C292.079 79.2685 289.173 70.6707 283.811 63.6413C278.449 56.6118 270.928 51.5401 262.406 49.2062C253.883 46.8723 244.83 47.4053 236.64 50.7235C228.449 54.0416 221.575 59.961 217.074 67.5712C212.572 75.1814 210.693 84.061 211.726 92.8443C212.759 101.628 216.646 109.828 222.789 116.185C228.932 122.541 236.992 126.701 245.728 128.026C254.465 129.35 263.394 127.765 271.142 123.515C273.93 125.501 280.732 129.461 287.451 126.608L279.363 117.534C283.383 113.763 286.587 109.206 288.775 104.145C290.963 99.084 292.089 93.627 292.082 88.1124Z" fill="white"/>
<path d="M259.797 79.8585H230.978V82.5372H259.797V79.8585Z" fill="#6C63FF"/>
<path d="M281.208 89.1251H230.978V91.8038H281.208V89.1251Z" fill="#E6E6E6"/>
<path d="M281.159 98.3917H230.978V101.07H281.159V98.3917Z" fill="#E6E6E6"/>
<path d="M307.616 135.802C311.127 135.802 313.973 132.953 313.973 129.439C313.973 125.925 311.127 123.076 307.616 123.076C304.105 123.076 301.258 125.925 301.258 129.439C301.258 132.953 304.105 135.802 307.616 135.802Z" fill="#E6E6E6"/>
<path d="M307.616 331.101C311.127 331.101 313.973 328.252 313.973 324.738C313.973 321.224 311.127 318.375 307.616 318.375C304.105 318.375 301.258 321.224 301.258 324.738C301.258 328.252 304.105 331.101 307.616 331.101Z" fill="#E6E6E6"/>
<path d="M82.5337 116.391L79.4861 131.645L93.71 142.323L100.314 122.493L82.5337 116.391Z" fill="#FFBE9D"/>
<path d="M93.9638 130.374C101.539 130.374 107.68 124.228 107.68 116.646C107.68 109.064 101.539 102.917 93.9638 102.917C86.3887 102.917 80.2478 109.064 80.2478 116.646C80.2478 124.228 86.3887 130.374 93.9638 130.374Z" fill="#FFBE9D"/>
<path d="M64.2459 221.642C64.2459 221.642 74.9139 272.996 76.4379 278.081C77.9619 283.165 76.4379 283.674 76.4379 283.674C76.4379 283.674 74.4059 285.199 75.9299 285.707C77.4539 286.216 72.8819 288.758 72.8819 288.758C72.8819 288.758 70.8499 298.419 69.8339 300.453C68.8179 302.486 64.2459 315.198 63.7379 315.198C63.2299 315.198 60.6899 322.825 60.6899 322.825C60.6899 322.825 66.7859 332.485 73.3899 328.418L75.9299 323.842L96.2499 293.843C96.2499 293.843 104.886 284.182 102.854 272.488L103.87 284.691L105.902 324.35C105.902 324.35 100.314 327.909 104.378 333.502C104.378 333.502 115.046 337.062 119.618 331.469C119.618 331.469 120.634 328.418 119.11 326.892C117.586 325.367 117.586 325.367 118.602 324.35C119.618 323.333 121.142 321.299 121.142 320.283V316.215L123.682 269.945C123.682 269.945 116.57 223.167 110.982 220.625C105.394 218.083 64.2459 221.642 64.2459 221.642Z" fill="#2F2E41"/>
<path d="M104.886 331.469C104.886 331.469 98.2818 344.18 103.87 345.705C107.353 346.636 110.934 347.148 114.538 347.231C114.538 347.231 128.762 358.417 134.35 352.824C139.938 347.231 131.81 342.655 131.81 342.655C131.81 342.655 121.65 335.536 121.142 333.502C120.634 331.469 104.886 331.469 104.886 331.469Z" fill="#2F2E41"/>
<path d="M60.9439 322.062C60.9439 322.062 49.5315 335.053 54.438 338.134C57.5022 340.034 60.7815 341.563 64.2066 342.688C64.2066 342.688 74.5815 357.52 81.5491 353.787C88.5167 350.055 82.0624 343.318 82.0624 343.318C82.0624 343.318 74.3994 333.558 74.502 331.464C74.6047 329.37 60.9439 322.062 60.9439 322.062Z" fill="#2F2E41"/>
<path d="M113.522 222.15C113.522 222.15 111.49 226.218 103.362 224.693C95.2338 223.167 63.2298 224.693 63.2298 224.693C63.2298 224.693 65.0078 188.338 60.9438 166.474C56.8798 144.611 72.8818 132.154 72.8818 132.154L77.9618 127.069C83.0418 126.561 93.7706 142.342 93.7706 142.342C97.5044 142.968 103.55 159.773 106.466 174.65C107.852 181.748 109.092 189.33 110.133 196.3C112.247 210.481 113.522 222.15 113.522 222.15Z" fill="#1B7EC2"/>
<path d="M77.9179 108.098C77.9179 108.098 75.3535 102.451 82.021 99.884C82.021 99.884 87.6627 90.6437 98.9462 96.8039C98.9462 96.8039 106.639 99.884 106.639 108.098C106.639 116.311 109.204 117.851 109.204 117.851C109.204 117.851 105.385 113.93 104.359 110.85C103.333 107.77 95.356 107.071 92.2787 110.151C89.2014 113.231 81.5081 112.718 81.5081 112.718L82.021 124.011C82.021 124.011 79.4566 117.338 78.4308 117.338C77.4051 117.338 76.3793 108.098 77.9179 108.098Z" fill="#2F2E41"/>
<path d="M176.551 224.326C172.509 226.753 165.308 229.793 157.949 226.668L153.192 224.649L162.724 213.953C155.117 205.558 150.909 194.627 150.92 183.293C150.932 171.96 155.163 161.037 162.787 152.658C170.411 144.278 180.882 139.043 192.155 137.974C203.428 136.906 214.694 140.08 223.754 146.877C232.815 153.675 239.019 163.608 241.157 174.738C243.294 185.868 241.211 197.395 235.314 207.071C229.418 216.746 220.13 223.875 209.265 227.065C198.399 230.256 186.736 229.279 176.551 224.326V224.326ZM158.286 183.268C158.265 188.492 159.324 193.665 161.398 198.459C163.471 203.254 166.513 207.568 170.332 211.129L172.962 213.602L166.963 220.333C169.568 219.724 172.025 218.599 174.189 217.024L176.082 215.675L178.119 216.795C185.46 220.824 193.92 222.327 202.199 221.074C210.477 219.82 218.114 215.879 223.936 209.856C229.757 203.834 233.441 196.063 234.42 187.741C235.398 179.418 233.618 171.005 229.353 163.794C225.087 156.583 218.573 150.974 210.812 147.831C203.051 144.688 194.473 144.184 186.397 146.397C178.322 148.609 171.197 153.417 166.118 160.078C161.039 166.74 158.287 174.888 158.286 183.268V183.268Z" fill="#1B7EC2"/>
<path d="M154.583 183.268C154.587 174.081 157.606 165.149 163.175 157.847C168.745 150.545 176.558 145.277 185.411 142.852C194.264 140.428 203.668 140.982 212.176 144.428C220.684 147.875 227.825 154.024 232.501 161.93C237.177 169.835 239.129 179.059 238.056 188.183C236.984 197.307 232.946 205.826 226.564 212.429C220.183 219.032 211.81 223.353 202.735 224.729C193.66 226.105 184.385 224.459 176.335 220.043C173.439 222.106 166.374 226.22 159.394 223.256L167.796 213.83C163.62 209.913 160.292 205.179 158.019 199.922C155.746 194.665 154.576 188.996 154.583 183.268Z" fill="white"/>
<path opacity="0.1" d="M230.97 183.056C230.97 172.576 227.049 162.476 219.98 154.745C212.911 147.015 203.206 142.213 192.777 141.286C193.997 141.179 195.232 141.121 196.48 141.121C207.589 141.125 218.242 145.545 226.096 153.409C233.95 161.273 238.362 171.937 238.362 183.056C238.362 194.175 233.95 204.839 226.096 212.703C218.242 220.567 207.589 224.986 196.48 224.99C195.234 224.99 194.001 224.932 192.783 224.825C203.211 223.897 212.914 219.095 219.982 211.364C227.05 203.633 230.97 193.535 230.97 183.056Z" fill="black"/>
<path d="M202.36 174.694H172.423V177.476H202.36V174.694Z" fill="#6C63FF"/>
<path d="M224.601 184.32H172.423V187.102H224.601V184.32Z" fill="#6C63FF"/>
<path d="M224.55 193.946H172.423V196.728H224.55V193.946Z" fill="#6C63FF"/>
<path opacity="0.2" d="M110.133 196.3C98.3224 190.357 76.6968 174.625 69.9912 166.342C61.6448 156.041 70.7481 148.205 70.7481 148.205C81.0707 141.687 93.4151 164.054 93.4151 164.054L106.466 174.65C107.852 181.748 109.092 189.329 110.133 196.3Z" fill="black"/>
<path d="M144.247 187.618C144.247 187.618 162.263 194.938 165.228 186.709C168.193 178.48 151.004 178.621 151.004 178.621L144.256 179.579L144.247 187.618Z" fill="#FFBE9D"/>
<path d="M68.4393 144.858C68.4393 144.858 59.3379 152.695 67.6797 162.995C76.0215 173.294 107.451 195.133 114.358 195.302C121.266 195.47 139.33 188.545 139.33 188.545L146.397 189.839L147.729 176.56L137.318 177.577L107.956 174.392L91.1042 160.706C91.1042 160.706 78.76 138.342 68.4393 144.858Z" fill="#1B7EC2"/>
<path opacity="0.2" d="M101.595 239.258L103.187 276.497L99.1499 239.258H101.595Z" fill="black"/>
</g>
<defs>
<clipPath id="clip0">
<rect width="390" height="363" fill="white"/>
</clipPath>
</defs>
</svg>
