<svg width="261" height="214" viewBox="0 0 261 214" fill="none" xmlns="http://www.w3.org/2000/svg">
<path d="M82.6907 155.991C82.6907 155.991 -10.1355 91.0989 0.913532 51.8817C11.9626 12.6646 97.6832 40.1966 113.716 10.8068C129.749 -18.5829 226.662 17.8003 249.423 50.4652C272.184 83.1301 256.867 83.0416 241.977 110.66C227.087 138.279 145.209 179 145.209 179L82.6907 155.991Z" fill="#BDE2FC"/>
<path d="M31.0855 194.12C45.8213 191.523 49.6195 189.718 84.772 190.036C119.925 190.355 144.887 190.591 180.35 195.633C215.814 200.675 211.151 211.141 194.753 207.738C178.354 204.336 176.207 214.007 139.618 213.287C103.028 212.567 103.681 210.954 75.2343 207.738C46.7878 204.523 35.9622 203.665 25.8299 200.425C15.6976 197.185 16.3501 196.717 31.0855 194.12Z" fill="url(#paint0_linear)"/>
<g filter="url(#filter0_d)">
<path d="M188.886 45.7818C185.863 45.732 182.983 44.5475 180.873 42.4858C178.763 40.4241 177.593 37.6522 177.618 34.7731C177.642 31.894 178.86 29.1407 181.006 27.1123C183.151 25.084 186.051 23.9446 189.074 23.9421L211.391 23.9421C214.432 23.9421 217.348 25.0927 219.499 27.1407C221.649 29.1887 222.857 31.9664 222.857 34.8628C222.857 37.7591 221.649 40.5368 219.499 42.5848C217.348 44.6328 214.432 45.7834 211.391 45.7834H195.293L189.307 52.4207L188.886 45.7818Z" fill="white"/>
</g>
<path opacity="0.66" d="M215.696 28.7691H186.553C186 28.7691 185.553 29.1955 185.553 29.7215C185.553 30.2475 186 30.6739 186.553 30.6739H215.696C216.248 30.6739 216.696 30.2475 216.696 29.7215C216.696 29.1955 216.248 28.7691 215.696 28.7691Z" fill="#BDE2FC"/>
<path opacity="0.66" d="M215.839 33.1229H186.41C185.936 33.1229 185.553 33.4883 185.553 33.9392V34.4834C185.553 34.9343 185.936 35.2998 186.41 35.2998H215.839C216.312 35.2998 216.696 34.9343 216.696 34.4834V33.9392C216.696 33.4883 216.312 33.1229 215.839 33.1229Z" fill="#BDE2FC"/>
<path opacity="0.66" d="M215.839 38.0209H186.41C185.936 38.0209 185.553 38.3864 185.553 38.8372C185.553 39.2881 185.936 39.6535 186.41 39.6535H215.839C216.312 39.6535 216.696 39.2881 216.696 38.8372C216.696 38.3864 216.312 38.0209 215.839 38.0209Z" fill="#BDE2FC"/>
<g filter="url(#filter1_d)">
<path d="M112.612 24.954C109.589 24.9043 106.709 23.7197 104.599 21.658C102.489 19.5964 101.319 16.8244 101.344 13.9453C101.368 11.0662 102.586 8.31297 104.732 6.28459C106.877 4.2562 109.777 3.11683 112.8 3.11438L135.117 3.11438C138.158 3.11438 141.074 4.26494 143.225 6.31296C145.375 8.36097 146.583 11.1387 146.583 14.035C146.583 16.9313 145.375 19.709 143.225 21.7571C141.074 23.8051 138.158 24.9556 135.117 24.9556H119.02L113.033 31.593L112.612 24.954Z" fill="white"/>
</g>
<path opacity="0.66" d="M139.422 7.94135H110.279C109.727 7.94135 109.279 8.36774 109.279 8.89373C109.279 9.41973 109.727 9.84612 110.279 9.84612H139.422C139.974 9.84612 140.422 9.41973 140.422 8.89373C140.422 8.36774 139.974 7.94135 139.422 7.94135Z" fill="#BDE2FC"/>
<path opacity="0.66" d="M139.565 12.2951H110.136C109.663 12.2951 109.279 12.6606 109.279 13.1114V13.6557C109.279 14.1065 109.663 14.472 110.136 14.472H139.565C140.038 14.472 140.422 14.1065 140.422 13.6557V13.1114C140.422 12.6606 140.038 12.2951 139.565 12.2951Z" fill="#BDE2FC"/>
<path opacity="0.66" d="M139.565 17.1931H110.136C109.663 17.1931 109.279 17.5586 109.279 18.0094C109.279 18.4603 109.663 18.8258 110.136 18.8258H139.565C140.038 18.8258 140.422 18.4603 140.422 18.0094C140.422 17.5586 140.038 17.1931 139.565 17.1931Z" fill="#BDE2FC"/>
<g filter="url(#filter2_d)">
<path d="M199.457 105.102C196.434 105.052 193.555 103.868 191.444 101.806C189.334 99.7443 188.164 96.9723 188.189 94.0932C188.214 91.2141 189.431 88.4609 191.577 86.4325C193.722 84.4041 196.622 83.2647 199.645 83.2623H221.962C225.003 83.2623 227.92 84.4128 230.07 86.4608C232.22 88.5089 233.429 91.2866 233.429 94.1829C233.429 97.0792 232.22 99.8569 230.07 101.905C227.92 103.953 225.003 105.104 221.962 105.104H205.865L199.879 111.741L199.457 105.102Z" fill="white"/>
</g>
<path opacity="0.66" d="M226.267 88.0892H197.124C196.572 88.0892 196.124 88.5156 196.124 89.0416C196.124 89.5676 196.572 89.994 197.124 89.994H226.267C226.82 89.994 227.267 89.5676 227.267 89.0416C227.267 88.5156 226.82 88.0892 226.267 88.0892Z" fill="#BDE2FC"/>
<path opacity="0.66" d="M226.41 92.443H196.981C196.508 92.443 196.124 92.8085 196.124 93.2593V93.8035C196.124 94.2544 196.508 94.6199 196.981 94.6199H226.41C226.884 94.6199 227.267 94.2544 227.267 93.8035V93.2593C227.267 92.8085 226.884 92.443 226.41 92.443Z" fill="#BDE2FC"/>
<path opacity="0.66" d="M226.41 97.341H196.981C196.508 97.341 196.124 97.7065 196.124 98.1573C196.124 98.6082 196.508 98.9736 196.981 98.9736H226.41C226.884 98.9736 227.267 98.6082 227.267 98.1573C227.267 97.7065 226.884 97.341 226.41 97.341Z" fill="#BDE2FC"/>
<g filter="url(#filter3_d)">
<path d="M80.1406 44.0762C82.9878 44.0763 85.7332 45.0852 87.8426 46.9065C89.952 48.7278 91.2745 51.2313 91.5529 53.9299C91.8313 56.6285 91.0457 59.3293 89.3489 61.5068C87.6521 63.6842 85.1654 65.1827 82.3726 65.7106L82.0163 72.5547L77.1097 65.9172H65.9807C62.9395 65.9172 60.0229 64.7666 57.8725 62.7186C55.722 60.6706 54.5139 57.8929 54.5139 54.9965C54.5139 52.1002 55.722 49.3225 57.8725 47.2745C60.0229 45.2265 62.9395 44.0759 65.9807 44.0759L80.1406 44.0762Z" fill="white"/>
</g>
<path opacity="0.66" d="M83.9797 48.9053H60.5508C59.9985 48.9053 59.5508 49.3317 59.5508 49.8577C59.5508 50.3837 59.9985 50.8101 60.5508 50.8101H83.9797C84.532 50.8101 84.9797 50.3837 84.9797 49.8577C84.9797 49.3317 84.532 48.9053 83.9797 48.9053Z" fill="#BDE2FC"/>
<path opacity="0.66" d="M84.1226 53.2592H60.4079C59.9345 53.2592 59.5508 53.6246 59.5508 54.0755V54.6197C59.5508 55.0706 59.9345 55.436 60.4079 55.436H84.1226C84.596 55.436 84.9797 55.0706 84.9797 54.6197V54.0755C84.9797 53.6246 84.596 53.2592 84.1226 53.2592Z" fill="#BDE2FC"/>
<path opacity="0.66" d="M84.1226 58.1571H60.4079C59.9345 58.1571 59.5508 58.5226 59.5508 58.9734C59.5508 59.4243 59.9345 59.7898 60.4079 59.7898H84.1226C84.596 59.7898 84.9797 59.4243 84.9797 58.9734C84.9797 58.5226 84.596 58.1571 84.1226 58.1571Z" fill="#BDE2FC"/>
<path d="M147.864 110.315C149.878 106.054 160.491 96.3919 160.491 96.3919C160.491 96.3919 165.346 92.4856 166.369 92.3334C169.897 91.8082 176.847 95.5671 174.01 101.57C173.412 102.836 168.719 107.151 168.719 107.151C168.719 107.151 156.736 117.791 155.321 118.201C153.526 118.722 145.029 116.317 147.864 110.315Z" fill="#E6CB21"/>
<path d="M153.836 156.917L173.48 149.78C173.48 149.78 178.181 145.862 177.594 148.521C177.006 151.18 160.99 165.034 153.836 174.072C146.682 183.11 142.948 204.999 142.948 204.999L132.441 201.543L113.53 204.999L104.552 201.543L93.2816 203.727C93.2816 203.727 95.453 174.55 93.2816 166.993C91.1101 159.437 80.1722 147.541 80.6739 138.597C81.1757 129.653 90.4329 104.51 93.2816 98.76C96.1302 93.0103 99.4213 110.876 99.4213 110.876L102.213 149.22L153.836 156.917Z" fill="#F0C350"/>
<g filter="url(#filter4_d)">
<path d="M107.896 164.078L132.156 172.446L143.618 164.078L130.819 168.08L107.896 164.078Z" fill="#EADB7C"/>
</g>
<path d="M153.266 66.0482H101.551C100.447 66.0482 99.5513 66.901 99.5513 67.953V163.464C99.5513 164.516 100.447 165.369 101.551 165.369H153.266C154.371 165.369 155.266 164.516 155.266 163.464V67.953C155.266 66.901 154.371 66.0482 153.266 66.0482Z" fill="#1B7EC2"/>
<path d="M103.903 69.3135H115.163C115.163 69.3135 116.646 72.1046 118.025 72.399C119.404 72.6934 137.405 72.676 138.551 72.399C139.697 72.122 140.794 69.3135 140.794 69.3135H151.752C152.735 69.3135 153.532 70.1881 153.532 71.267V161.864C153.532 162.943 152.735 163.817 151.752 163.817H103.903C102.92 163.818 102.123 162.943 102.123 161.864V71.267C102.123 70.1881 102.92 69.3135 103.903 69.3135Z" fill="white"/>
<g filter="url(#filter5_d)">
<path d="M124.627 141.628H151.031C151.416 141.64 151.78 141.797 152.043 142.064C152.306 142.332 152.448 142.688 152.436 143.054V150.613C152.448 150.98 152.306 151.336 152.043 151.603C151.78 151.87 151.416 152.027 151.031 152.039H124.627C124.242 152.027 123.878 151.87 123.615 151.603C123.352 151.336 123.21 150.98 123.222 150.613V143.054C123.21 142.688 123.352 142.332 123.615 142.064C123.878 141.797 124.242 141.64 124.627 141.628V141.628Z" fill="white"/>
</g>
<path opacity="0.66" d="M149.266 143.056H133.838C133.364 143.056 132.98 143.421 132.98 143.872C132.98 144.323 133.364 144.688 133.838 144.688H149.266C149.74 144.688 150.124 144.323 150.124 143.872C150.124 143.421 149.74 143.056 149.266 143.056Z" fill="#F6B1B1"/>
<path opacity="0.66" d="M149.266 145.777H133.838C133.364 145.777 132.98 146.142 132.98 146.593C132.98 147.044 133.364 147.409 133.838 147.409H149.266C149.74 147.409 150.124 147.044 150.124 146.593C150.124 146.142 149.74 145.777 149.266 145.777Z" fill="#F6B1B1"/>
<path opacity="0.66" d="M149.266 148.226H133.838C133.364 148.226 132.98 148.591 132.98 149.042V149.314C132.98 149.765 133.364 150.13 133.838 150.13H149.266C149.74 150.13 150.124 149.765 150.124 149.314V149.042C150.124 148.591 149.74 148.226 149.266 148.226Z" fill="#F6B1B1"/>
<path opacity="0.66" d="M129.838 143.056H126.409C125.62 143.056 124.98 143.665 124.98 144.416V148.77C124.98 149.521 125.62 150.13 126.409 150.13H129.838C130.627 150.13 131.266 149.521 131.266 148.77V144.416C131.266 143.665 130.627 143.056 129.838 143.056Z" fill="#F6B1B1"/>
<g filter="url(#filter6_d)">
<path d="M152.898 152.873C156.03 147.044 168.9 138.142 172.438 137.804C175.976 137.466 182.582 140.222 179.45 146.051C176.319 151.88 161.723 160.697 159.91 161.121C158.098 161.545 149.766 158.703 152.898 152.873Z" fill="#E6CB21"/>
</g>
<g filter="url(#filter7_d)">
<path d="M144.803 141.842C148.308 135.724 162.527 125.428 166.242 124.954C169.957 124.48 175.639 129.42 172.133 135.537C168.627 141.654 153.728 149.588 151.815 150.089C149.902 150.591 141.297 147.959 144.803 141.842Z" fill="#E6CB21"/>
</g>
<g filter="url(#filter8_d)">
<path d="M144.3 123.974C147.629 119.08 160.359 112.681 163.567 113.063C166.776 113.444 171.383 119.276 168.054 124.17C164.725 129.063 151.537 133.122 149.872 133.164C148.206 133.207 140.972 128.868 144.3 123.974Z" fill="#E6CB21"/>
</g>
<path d="M144.985 126.312C145.578 123.679 151.283 121.362 151.283 121.362L155.722 127.179C155.722 127.179 151.698 132.05 149.72 131.52C147.743 130.989 144.391 128.945 144.985 126.312Z" fill="white"/>
<path d="M145.973 143.673C146.392 141.195 150.016 138.599 151.177 138.259C152.337 137.919 157.769 144.375 157.769 144.375C157.769 144.375 153.535 149.008 150.587 148.831C147.638 148.655 145.554 146.15 145.973 143.673Z" fill="white"/>
<path d="M154.357 154.699C154.791 152.259 158.393 149.681 159.542 149.338C160.691 148.994 166.009 155.305 166.009 155.305C166.009 155.305 161.788 159.891 158.875 159.739C155.962 159.588 153.923 157.138 154.357 154.699Z" fill="white"/>
<g filter="url(#filter9_d)">
<path d="M131.484 79.3144H157.889C158.273 79.3265 158.637 79.4834 158.901 79.7508C159.164 80.0182 159.305 80.3741 159.293 80.7405V88.2998C159.305 88.6662 159.164 89.0221 158.901 89.2895C158.637 89.5569 158.273 89.7138 157.889 89.7259H131.484C131.1 89.7138 130.736 89.5569 130.472 89.2895C130.209 89.0221 130.068 88.6662 130.08 88.2998V80.7405C130.068 80.3741 130.209 80.0182 130.472 79.7508C130.736 79.4834 131.1 79.3265 131.484 79.3144V79.3144Z" fill="white"/>
</g>
<path opacity="0.66" d="M156.124 80.7421H140.695C140.222 80.7421 139.838 81.1076 139.838 81.5585C139.838 82.0093 140.222 82.3748 140.695 82.3748H156.124C156.597 82.3748 156.981 82.0093 156.981 81.5585C156.981 81.1076 156.597 80.7421 156.124 80.7421Z" fill="#EC4D4D"/>
<path opacity="0.66" d="M156.124 83.4633H140.695C140.222 83.4633 139.838 83.8287 139.838 84.2796C139.838 84.7304 140.222 85.0959 140.695 85.0959H156.124C156.597 85.0959 156.981 84.7304 156.981 84.2796C156.981 83.8287 156.597 83.4633 156.124 83.4633Z" fill="#EC4D4D"/>
<path opacity="0.66" d="M156.124 85.9122H140.695C140.222 85.9122 139.838 86.2777 139.838 86.7286V87.0007C139.838 87.4515 140.222 87.817 140.695 87.817H156.124C156.597 87.817 156.981 87.4515 156.981 87.0007V86.7286C156.981 86.2777 156.597 85.9122 156.124 85.9122Z" fill="#EC4D4D"/>
<path opacity="0.66" d="M136.695 80.7421H133.266C132.477 80.7421 131.838 81.3513 131.838 82.1027V86.4565C131.838 87.2079 132.477 87.817 133.266 87.817H136.695C137.484 87.817 138.124 87.2079 138.124 86.4565V82.1027C138.124 81.3513 137.484 80.7421 136.695 80.7421Z" fill="#EC4D4D"/>
<g filter="url(#filter10_d)">
<path d="M95.4834 89.9268H121.888C122.272 89.9388 122.636 90.0958 122.9 90.3632C123.163 90.6305 123.304 90.9865 123.292 91.3529V98.9121C123.304 99.2785 123.163 99.6345 122.9 99.9019C122.636 100.169 122.272 100.326 121.888 100.338H95.4834C95.0987 100.326 94.7347 100.169 94.4714 99.9019C94.2081 99.6345 94.0669 99.2785 94.0788 98.9121V91.3529C94.0669 90.9865 94.2081 90.6305 94.4714 90.3632C94.7347 90.0958 95.0987 89.9388 95.4834 89.9268V89.9268Z" fill="white"/>
</g>
<path opacity="0.66" d="M120.123 91.3545H104.694C104.221 91.3545 103.837 91.72 103.837 92.1708C103.837 92.6217 104.221 92.9872 104.694 92.9872H120.123C120.596 92.9872 120.98 92.6217 120.98 92.1708C120.98 91.72 120.596 91.3545 120.123 91.3545Z" fill="#4EB6FF"/>
<path opacity="0.66" d="M120.123 94.0756H104.694C104.221 94.0756 103.837 94.4411 103.837 94.892C103.837 95.3428 104.221 95.7083 104.694 95.7083H120.123C120.596 95.7083 120.98 95.3428 120.98 94.892C120.98 94.4411 120.596 94.0756 120.123 94.0756Z" fill="#4EB6FF"/>
<path opacity="0.66" d="M120.123 96.5246H104.694C104.221 96.5246 103.837 96.8901 103.837 97.3409V97.6131C103.837 98.0639 104.221 98.4294 104.694 98.4294H120.123C120.596 98.4294 120.98 98.0639 120.98 97.6131V97.3409C120.98 96.8901 120.596 96.5246 120.123 96.5246Z" fill="#4EB6FF"/>
<path opacity="0.66" d="M100.694 91.3545H97.2655C96.4765 91.3545 95.8369 91.9636 95.8369 92.7151V97.0688C95.8369 97.8203 96.4765 98.4294 97.2655 98.4294H100.694C101.483 98.4294 102.123 97.8203 102.123 97.0688V92.7151C102.123 91.9636 101.483 91.3545 100.694 91.3545Z" fill="#4EB6FF"/>
<g filter="url(#filter11_d)">
<path d="M121.484 106.253H147.888C148.273 106.265 148.637 106.422 148.9 106.69C149.163 106.957 149.305 107.313 149.293 107.68V115.239C149.305 115.605 149.163 115.961 148.9 116.229C148.637 116.496 148.273 116.653 147.888 116.665H121.484C121.099 116.653 120.735 116.496 120.472 116.229C120.209 115.961 120.067 115.605 120.079 115.239V107.68C120.067 107.313 120.209 106.957 120.472 106.69C120.735 106.422 121.099 106.265 121.484 106.253V106.253Z" fill="white"/>
</g>
<path opacity="0.66" d="M146.123 107.681H130.695C130.221 107.681 129.837 108.047 129.837 108.497C129.837 108.948 130.221 109.314 130.695 109.314H146.123C146.597 109.314 146.981 108.948 146.981 108.497C146.981 108.047 146.597 107.681 146.123 107.681Z" fill="#F28989"/>
<path opacity="0.66" d="M146.123 110.402H130.695C130.221 110.402 129.837 110.768 129.837 111.219C129.837 111.669 130.221 112.035 130.695 112.035H146.123C146.597 112.035 146.981 111.669 146.981 111.219C146.981 110.768 146.597 110.402 146.123 110.402Z" fill="#F28989"/>
<path opacity="0.66" d="M146.123 112.851H130.695C130.221 112.851 129.837 113.217 129.837 113.668V113.94C129.837 114.391 130.221 114.756 130.695 114.756H146.123C146.597 114.756 146.981 114.391 146.981 113.94V113.668C146.981 113.217 146.597 112.851 146.123 112.851Z" fill="#F28989"/>
<path opacity="0.66" d="M126.695 107.681H123.266C122.477 107.681 121.837 108.29 121.837 109.042V113.395C121.837 114.147 122.477 114.756 123.266 114.756H126.695C127.484 114.756 128.123 114.147 128.123 113.395V109.042C128.123 108.29 127.484 107.681 126.695 107.681Z" fill="#F28989"/>
<g filter="url(#filter12_d)">
<path d="M99.4834 126.934H125.888C126.272 126.946 126.636 127.103 126.9 127.37C127.163 127.638 127.304 127.994 127.292 128.36V135.919C127.304 136.286 127.163 136.642 126.9 136.909C126.636 137.176 126.272 137.333 125.888 137.345H99.4834C99.0987 137.333 98.7347 137.176 98.4714 136.909C98.2081 136.642 98.0669 136.286 98.0788 135.919V128.36C98.0669 127.994 98.2081 127.638 98.4714 127.37C98.7347 127.103 99.0987 126.946 99.4834 126.934V126.934Z" fill="white"/>
</g>
<path opacity="0.66" d="M124.123 128.362H108.694C108.221 128.362 107.837 128.727 107.837 129.178C107.837 129.629 108.221 129.994 108.694 129.994H124.123C124.596 129.994 124.98 129.629 124.98 129.178C124.98 128.727 124.596 128.362 124.123 128.362Z" fill="#BDE2FC"/>
<path opacity="0.66" d="M124.123 131.083H108.694C108.221 131.083 107.837 131.448 107.837 131.899C107.837 132.35 108.221 132.715 108.694 132.715H124.123C124.596 132.715 124.98 132.35 124.98 131.899C124.98 131.448 124.596 131.083 124.123 131.083Z" fill="#BDE2FC"/>
<path opacity="0.66" d="M124.123 133.532H108.694C108.221 133.532 107.837 133.897 107.837 134.348V134.62C107.837 135.071 108.221 135.436 108.694 135.436H124.123C124.596 135.436 124.98 135.071 124.98 134.62V134.348C124.98 133.897 124.596 133.532 124.123 133.532Z" fill="#BDE2FC"/>
<path opacity="0.66" d="M104.694 128.362H101.266C100.477 128.362 99.8369 128.971 99.8369 129.722V134.076C99.8369 134.827 100.477 135.436 101.266 135.436H104.694C105.483 135.436 106.123 134.827 106.123 134.076V129.722C106.123 128.971 105.483 128.362 104.694 128.362Z" fill="#BDE2FC"/>
<defs>
<filter id="filter0_d" x="171.617" y="20.9421" width="57.2401" height="40.4786" filterUnits="userSpaceOnUse" color-interpolation-filters="sRGB">
<feFlood flood-opacity="0" result="BackgroundImageFix"/>
<feColorMatrix in="SourceAlpha" type="matrix" values="0 0 0 0 0 0 0 0 0 0 0 0 0 0 0 0 0 0 127 0"/>
<feOffset dy="3"/>
<feGaussianBlur stdDeviation="3"/>
<feColorMatrix type="matrix" values="0 0 0 0 0 0 0 0 0 0 0 0 0 0 0 0 0 0 0.161 0"/>
<feBlend mode="normal" in2="BackgroundImageFix" result="effect1_dropShadow"/>
<feBlend mode="normal" in="SourceGraphic" in2="effect1_dropShadow" result="shape"/>
</filter>
<filter id="filter1_d" x="95.3433" y="0.11438" width="57.2401" height="40.4786" filterUnits="userSpaceOnUse" color-interpolation-filters="sRGB">
<feFlood flood-opacity="0" result="BackgroundImageFix"/>
<feColorMatrix in="SourceAlpha" type="matrix" values="0 0 0 0 0 0 0 0 0 0 0 0 0 0 0 0 0 0 127 0"/>
<feOffset dy="3"/>
<feGaussianBlur stdDeviation="3"/>
<feColorMatrix type="matrix" values="0 0 0 0 0 0 0 0 0 0 0 0 0 0 0 0 0 0 0.161 0"/>
<feBlend mode="normal" in2="BackgroundImageFix" result="effect1_dropShadow"/>
<feBlend mode="normal" in="SourceGraphic" in2="effect1_dropShadow" result="shape"/>
</filter>
<filter id="filter2_d" x="182.188" y="80.2623" width="57.2401" height="40.4786" filterUnits="userSpaceOnUse" color-interpolation-filters="sRGB">
<feFlood flood-opacity="0" result="BackgroundImageFix"/>
<feColorMatrix in="SourceAlpha" type="matrix" values="0 0 0 0 0 0 0 0 0 0 0 0 0 0 0 0 0 0 127 0"/>
<feOffset dy="3"/>
<feGaussianBlur stdDeviation="3"/>
<feColorMatrix type="matrix" values="0 0 0 0 0 0 0 0 0 0 0 0 0 0 0 0 0 0 0.161 0"/>
<feBlend mode="normal" in2="BackgroundImageFix" result="effect1_dropShadow"/>
<feBlend mode="normal" in="SourceGraphic" in2="effect1_dropShadow" result="shape"/>
</filter>
<filter id="filter3_d" x="48.5142" y="41.0759" width="49.094" height="40.4788" filterUnits="userSpaceOnUse" color-interpolation-filters="sRGB">
<feFlood flood-opacity="0" result="BackgroundImageFix"/>
<feColorMatrix in="SourceAlpha" type="matrix" values="0 0 0 0 0 0 0 0 0 0 0 0 0 0 0 0 0 0 127 0"/>
<feOffset dy="3"/>
<feGaussianBlur stdDeviation="3"/>
<feColorMatrix type="matrix" values="0 0 0 0 0 0 0 0 0 0 0 0 0 0 0 0 0 0 0.161 0"/>
<feBlend mode="normal" in2="BackgroundImageFix" result="effect1_dropShadow"/>
<feBlend mode="normal" in="SourceGraphic" in2="effect1_dropShadow" result="shape"/>
</filter>
<filter id="filter4_d" x="101.896" y="161.078" width="47.7211" height="20.3685" filterUnits="userSpaceOnUse" color-interpolation-filters="sRGB">
<feFlood flood-opacity="0" result="BackgroundImageFix"/>
<feColorMatrix in="SourceAlpha" type="matrix" values="0 0 0 0 0 0 0 0 0 0 0 0 0 0 0 0 0 0 127 0"/>
<feOffset dy="3"/>
<feGaussianBlur stdDeviation="3"/>
<feColorMatrix type="matrix" values="0 0 0 0 0 0 0 0 0 0 0 0 0 0 0 0 0 0 0.161 0"/>
<feBlend mode="normal" in2="BackgroundImageFix" result="effect1_dropShadow"/>
<feBlend mode="normal" in="SourceGraphic" in2="effect1_dropShadow" result="shape"/>
</filter>
<filter id="filter5_d" x="117.222" y="138.628" width="41.2147" height="22.4116" filterUnits="userSpaceOnUse" color-interpolation-filters="sRGB">
<feFlood flood-opacity="0" result="BackgroundImageFix"/>
<feColorMatrix in="SourceAlpha" type="matrix" values="0 0 0 0 0 0 0 0 0 0 0 0 0 0 0 0 0 0 127 0"/>
<feOffset dy="3"/>
<feGaussianBlur stdDeviation="3"/>
<feColorMatrix type="matrix" values="0 0 0 0 0 0 0 0 0 0 0 0 0 0 0 0 0 0 0.161 0"/>
<feBlend mode="normal" in2="BackgroundImageFix" result="effect1_dropShadow"/>
<feBlend mode="normal" in="SourceGraphic" in2="effect1_dropShadow" result="shape"/>
</filter>
<filter id="filter6_d" x="146.201" y="134.776" width="40.0691" height="35.386" filterUnits="userSpaceOnUse" color-interpolation-filters="sRGB">
<feFlood flood-opacity="0" result="BackgroundImageFix"/>
<feColorMatrix in="SourceAlpha" type="matrix" values="0 0 0 0 0 0 0 0 0 0 0 0 0 0 0 0 0 0 127 0"/>
<feOffset dy="3"/>
<feGaussianBlur stdDeviation="3"/>
<feColorMatrix type="matrix" values="0 0 0 0 0 0 0 0 0 0 0 0 0 0 0 0 0 0 0.161 0"/>
<feBlend mode="normal" in2="BackgroundImageFix" result="effect1_dropShadow"/>
<feBlend mode="normal" in="SourceGraphic" in2="effect1_dropShadow" result="shape"/>
</filter>
<filter id="filter7_d" x="137.972" y="121.923" width="41.2595" height="37.2266" filterUnits="userSpaceOnUse" color-interpolation-filters="sRGB">
<feFlood flood-opacity="0" result="BackgroundImageFix"/>
<feColorMatrix in="SourceAlpha" type="matrix" values="0 0 0 0 0 0 0 0 0 0 0 0 0 0 0 0 0 0 127 0"/>
<feOffset dy="3"/>
<feGaussianBlur stdDeviation="3"/>
<feColorMatrix type="matrix" values="0 0 0 0 0 0 0 0 0 0 0 0 0 0 0 0 0 0 0.161 0"/>
<feBlend mode="normal" in2="BackgroundImageFix" result="effect1_dropShadow"/>
<feBlend mode="normal" in="SourceGraphic" in2="effect1_dropShadow" result="shape"/>
</filter>
<filter id="filter8_d" x="137.435" y="110.046" width="37.7736" height="32.1183" filterUnits="userSpaceOnUse" color-interpolation-filters="sRGB">
<feFlood flood-opacity="0" result="BackgroundImageFix"/>
<feColorMatrix in="SourceAlpha" type="matrix" values="0 0 0 0 0 0 0 0 0 0 0 0 0 0 0 0 0 0 127 0"/>
<feOffset dy="3"/>
<feGaussianBlur stdDeviation="3"/>
<feColorMatrix type="matrix" values="0 0 0 0 0 0 0 0 0 0 0 0 0 0 0 0 0 0 0.161 0"/>
<feBlend mode="normal" in2="BackgroundImageFix" result="effect1_dropShadow"/>
<feBlend mode="normal" in="SourceGraphic" in2="effect1_dropShadow" result="shape"/>
</filter>
<filter id="filter9_d" x="124.079" y="76.3144" width="41.2147" height="22.4115" filterUnits="userSpaceOnUse" color-interpolation-filters="sRGB">
<feFlood flood-opacity="0" result="BackgroundImageFix"/>
<feColorMatrix in="SourceAlpha" type="matrix" values="0 0 0 0 0 0 0 0 0 0 0 0 0 0 0 0 0 0 127 0"/>
<feOffset dy="3"/>
<feGaussianBlur stdDeviation="3"/>
<feColorMatrix type="matrix" values="0 0 0 0 0 0 0 0 0 0 0 0 0 0 0 0 0 0 0.161 0"/>
<feBlend mode="normal" in2="BackgroundImageFix" result="effect1_dropShadow"/>
<feBlend mode="normal" in="SourceGraphic" in2="effect1_dropShadow" result="shape"/>
</filter>
<filter id="filter10_d" x="88.0781" y="86.9268" width="41.2147" height="22.4115" filterUnits="userSpaceOnUse" color-interpolation-filters="sRGB">
<feFlood flood-opacity="0" result="BackgroundImageFix"/>
<feColorMatrix in="SourceAlpha" type="matrix" values="0 0 0 0 0 0 0 0 0 0 0 0 0 0 0 0 0 0 127 0"/>
<feOffset dy="3"/>
<feGaussianBlur stdDeviation="3"/>
<feColorMatrix type="matrix" values="0 0 0 0 0 0 0 0 0 0 0 0 0 0 0 0 0 0 0.161 0"/>
<feBlend mode="normal" in2="BackgroundImageFix" result="effect1_dropShadow"/>
<feBlend mode="normal" in="SourceGraphic" in2="effect1_dropShadow" result="shape"/>
</filter>
<filter id="filter11_d" x="114.079" y="103.253" width="41.2147" height="22.4115" filterUnits="userSpaceOnUse" color-interpolation-filters="sRGB">
<feFlood flood-opacity="0" result="BackgroundImageFix"/>
<feColorMatrix in="SourceAlpha" type="matrix" values="0 0 0 0 0 0 0 0 0 0 0 0 0 0 0 0 0 0 127 0"/>
<feOffset dy="3"/>
<feGaussianBlur stdDeviation="3"/>
<feColorMatrix type="matrix" values="0 0 0 0 0 0 0 0 0 0 0 0 0 0 0 0 0 0 0.161 0"/>
<feBlend mode="normal" in2="BackgroundImageFix" result="effect1_dropShadow"/>
<feBlend mode="normal" in="SourceGraphic" in2="effect1_dropShadow" result="shape"/>
</filter>
<filter id="filter12_d" x="92.0781" y="123.934" width="41.2147" height="22.4115" filterUnits="userSpaceOnUse" color-interpolation-filters="sRGB">
<feFlood flood-opacity="0" result="BackgroundImageFix"/>
<feColorMatrix in="SourceAlpha" type="matrix" values="0 0 0 0 0 0 0 0 0 0 0 0 0 0 0 0 0 0 127 0"/>
<feOffset dy="3"/>
<feGaussianBlur stdDeviation="3"/>
<feColorMatrix type="matrix" values="0 0 0 0 0 0 0 0 0 0 0 0 0 0 0 0 0 0 0.161 0"/>
<feBlend mode="normal" in2="BackgroundImageFix" result="effect1_dropShadow"/>
<feBlend mode="normal" in="SourceGraphic" in2="effect1_dropShadow" result="shape"/>
</filter>
<linearGradient id="paint0_linear" x1="113.087" y1="190" x2="113.055" y2="245.608" gradientUnits="userSpaceOnUse">
<stop stop-color="#F1F1F1"/>
<stop offset="1" stop-color="#797979"/>
</linearGradient>
</defs>
</svg>
