<svg width="247" height="239" viewBox="0 0 247 239" fill="none" xmlns="http://www.w3.org/2000/svg">
<path d="M40.267 218.416C55.2241 215.632 59.0793 213.697 94.7597 214.039C130.44 214.381 155.777 214.634 191.773 220.038C227.769 225.441 223.037 236.659 206.392 233.012C189.747 229.365 187.568 239.731 150.429 238.959C113.29 238.187 113.953 236.459 85.0788 233.012C56.2051 229.565 45.2169 228.646 34.9324 225.173C24.648 221.701 25.3103 221.2 40.267 218.416Z" fill="url(#paint0_linear)"/>
<path d="M49.2006 188.204C49.2006 188.204 115.554 228.537 169.006 201.905C222.458 175.272 227.58 128.026 243.994 78.5654C260.409 29.1048 206.293 48.2455 161.785 32.604C117.276 16.9625 91.3944 -12.5477 49.2006 5.84171C7.0067 24.2311 4.91361 61.2506 0.283813 98.3462C-4.34599 135.442 49.2006 188.204 49.2006 188.204Z" fill="#BDE2FC"/>
<path d="M239.458 84.3809H172.186C168.183 84.3809 164.937 87.5022 164.937 91.3527V129.279C164.937 133.13 168.183 136.251 172.186 136.251H239.458C243.461 136.251 246.707 133.13 246.707 129.279V91.3527C246.707 87.5022 243.461 84.3809 239.458 84.3809Z" fill="#1B7EC2"/>
<path d="M240.618 86.3329H171.606C169.364 86.3329 167.547 88.0809 167.547 90.2371V130.116C167.547 132.272 169.364 134.02 171.606 134.02H240.618C242.86 134.02 244.677 132.272 244.677 130.116V90.2371C244.677 88.0809 242.86 86.3329 240.618 86.3329Z" fill="white"/>
<path d="M210.172 136.251H203.212V146.848H210.172V136.251Z" fill="url(#paint1_linear)"/>
<path d="M175.376 95.8147C176.176 95.8147 176.825 95.0656 176.825 94.1415C176.825 93.2174 176.176 92.4683 175.376 92.4683C174.575 92.4683 173.926 93.2174 173.926 94.1415C173.926 95.0656 174.575 95.8147 175.376 95.8147Z" fill="#989898"/>
<path d="M200.892 93.3049H178.565V94.9781H200.892V93.3049Z" fill="#989898"/>
<path d="M175.376 102.229C176.176 102.229 176.825 101.48 176.825 100.556C176.825 99.6315 176.176 98.8824 175.376 98.8824C174.575 98.8824 173.926 99.6315 173.926 100.556C173.926 101.48 174.575 102.229 175.376 102.229Z" fill="#989898"/>
<path d="M200.892 99.7191H178.565V101.392H200.892V99.7191Z" fill="#989898"/>
<path d="M175.376 108.643C176.176 108.643 176.825 107.894 176.825 106.969C176.825 106.045 176.176 105.296 175.376 105.296C174.575 105.296 173.926 106.045 173.926 106.969C173.926 107.894 174.575 108.643 175.376 108.643Z" fill="#989898"/>
<path d="M200.892 106.133H178.565V107.806H200.892V106.133Z" fill="#989898"/>
<path d="M221.191 107.249C221.991 107.249 222.64 106.499 222.64 105.575C222.64 104.651 221.991 103.902 221.191 103.902C220.39 103.902 219.741 104.651 219.741 105.575C219.741 106.499 220.39 107.249 221.191 107.249Z" fill="#989898"/>
<path d="M240.618 104.739H218.291V106.412H240.618V104.739Z" fill="#989898"/>
<path d="M221.191 111.153C221.991 111.153 222.64 110.466 222.64 109.619C222.64 108.772 221.991 108.085 221.191 108.085C220.39 108.085 219.741 108.772 219.741 109.619C219.741 110.466 220.39 111.153 221.191 111.153Z" fill="#989898"/>
<path d="M240.618 108.922H218.291V110.595H240.618V108.922Z" fill="#989898"/>
<path d="M221.191 115.614C221.991 115.614 222.64 114.928 222.64 114.081C222.64 113.234 221.991 112.547 221.191 112.547C220.39 112.547 219.741 113.234 219.741 114.081C219.741 114.928 220.39 115.614 221.191 115.614Z" fill="#989898"/>
<path d="M240.618 113.105H218.291V114.778H240.618V113.105Z" fill="#989898"/>
<path d="M125.502 84.3809H74.7586C68.1928 84.3809 62.8701 89.4999 62.8701 95.8146V216.566C62.8701 222.881 68.1928 228 74.7586 228H125.502C132.068 228 137.391 222.881 137.391 216.566V95.8146C137.391 89.4999 132.068 84.3809 125.502 84.3809Z" fill="#1B7EC2"/>
<path d="M77.0785 87.7273C77.0785 87.7273 78.5863 87.5343 79.0879 88.7775C79.5896 90.0207 79.3692 92.5646 81.7599 92.6998C84.1507 92.8351 117.761 93.1056 119.308 92.6998C120.855 92.2941 120.552 90.0207 121.277 88.7775C122.001 87.5343 123.473 87.7273 123.473 87.7273C126.626 87.7273 129.65 88.9319 131.879 91.0761C134.109 93.2204 135.361 96.1286 135.361 99.161V214.335C135.361 217.368 134.109 220.276 131.879 222.42C129.65 224.564 126.626 225.769 123.473 225.769H77.0785C73.9254 225.769 70.9015 224.564 68.672 222.42C66.4425 220.276 65.1899 217.368 65.1899 214.335V99.161C65.1899 96.1286 66.4425 93.2204 68.672 91.0761C70.9015 88.9319 73.9254 87.7273 77.0785 87.7273Z" fill="white"/>
<path d="M63.1599 104.181H62V109.758H63.1599V104.181Z" fill="black"/>
<path d="M63.1599 115.336H62V126.212H63.1599V115.336Z" fill="black"/>
<path d="M87.3718 91.0739C87.9323 91.0739 88.3867 90.6369 88.3867 90.0978C88.3867 89.5588 87.9323 89.1218 87.3718 89.1218C86.8113 89.1218 86.3569 89.5588 86.3569 90.0978C86.3569 90.6369 86.8113 91.0739 87.3718 91.0739Z" fill="white"/>
<path d="M77.6579 126.491C79.2594 126.491 80.5576 125.242 80.5576 123.702C80.5576 122.162 79.2594 120.913 77.6579 120.913C76.0565 120.913 74.7583 122.162 74.7583 123.702C74.7583 125.242 76.0565 126.491 77.6579 126.491Z" fill="#FF8484"/>
<path d="M124.922 122.308H83.4575V125.096H124.922V122.308Z" fill="#FF8484"/>
<path d="M77.6579 137.645C79.2594 137.645 80.5576 136.397 80.5576 134.857C80.5576 133.317 79.2594 132.068 77.6579 132.068C76.0565 132.068 74.7583 133.317 74.7583 134.857C74.7583 136.397 76.0565 137.645 77.6579 137.645Z" fill="#FF8484"/>
<path d="M124.922 133.463H83.4575V136.251H124.922V133.463Z" fill="#FF8484"/>
<path d="M77.6579 148.8C79.2594 148.8 80.5576 147.552 80.5576 146.012C80.5576 144.471 79.2594 143.223 77.6579 143.223C76.0565 143.223 74.7583 144.471 74.7583 146.012C74.7583 147.552 76.0565 148.8 77.6579 148.8Z" fill="#FF8484"/>
<path d="M124.922 144.617H83.4575V147.406H124.922V144.617Z" fill="#FF8484"/>
<path d="M124.922 159.676H74.7583V177.524H124.922V159.676Z" fill="#BDE2FC"/>
<path d="M174.506 115.615H201.472V125.933H174.506V115.615Z" fill="#FC8F8F"/>
<path d="M172.458 64.7872C168.822 67.8156 164.198 69.5212 159.389 69.6067C147.618 69.7991 137.906 60.2783 137.695 48.3426C137.484 36.4068 146.854 26.574 158.625 26.3815C170.395 26.1891 180.108 35.7099 180.319 47.6457C180.409 51.8971 179.236 56.085 176.938 59.7179L182.674 66.227L172.458 64.7872Z" fill="#FFAAAA"/>
<path d="M125.111 75.0892L113.88 77.2485L118.984 70.8066C115.185 67.1034 113.048 62.1143 113.034 56.9121C113.034 45.5915 123.095 36.415 135.506 36.415C147.916 36.415 157.978 45.5918 157.978 56.9121C157.978 68.2323 147.916 77.4092 135.506 77.4092C131.901 77.4175 128.344 76.6235 125.111 75.0892Z" fill="#1B7EC2"/>
<path d="M123.472 59.0036C124.433 59.0036 125.212 58.2545 125.212 57.3304C125.212 56.4063 124.433 55.6572 123.472 55.6572C122.511 55.6572 121.732 56.4063 121.732 57.3304C121.732 58.2545 122.511 59.0036 123.472 59.0036Z" fill="white"/>
<path d="M134.491 59.0036C135.452 59.0036 136.231 58.2545 136.231 57.3304C136.231 56.4063 135.452 55.6572 134.491 55.6572C133.53 55.6572 132.751 56.4063 132.751 57.3304C132.751 58.2545 133.53 59.0036 134.491 59.0036Z" fill="white"/>
<path d="M145.51 59.0036C146.471 59.0036 147.25 58.2545 147.25 57.3304C147.25 56.4063 146.471 55.6572 145.51 55.6572C144.549 55.6572 143.77 56.4063 143.77 57.3304C143.77 58.2545 144.549 59.0036 145.51 59.0036Z" fill="white"/>
<defs>
<linearGradient id="paint0_linear" x1="123.5" y1="214" x2="123.464" y2="273.601" gradientUnits="userSpaceOnUse">
<stop stop-color="#F1F1F1"/>
<stop offset="1" stop-color="#797979"/>
</linearGradient>
<linearGradient id="paint1_linear" x1="207.256" y1="146.848" x2="207.546" y2="136.256" gradientUnits="userSpaceOnUse">
<stop stop-color="white"/>
<stop offset="1" stop-color="#0062A5"/>
</linearGradient>
</defs>
</svg>
