<svg width="83" height="195" viewBox="0 0 83 195" fill="none" xmlns="http://www.w3.org/2000/svg">
<g clip-path="url(#clip0)">
<path d="M36.0017 194.985C33.9164 194.985 31.7892 194.866 29.6793 194.631C27.6012 194.4 25.524 194.055 23.5054 193.605C21.4972 193.158 19.534 192.605 17.6704 191.961C15.7967 191.314 14.0115 190.57 12.3645 189.752C10.6918 188.92 9.14864 188.004 7.77794 187.03C6.37368 186.031 5.13656 184.961 4.10093 183.849C1.90986 181.497 0.609044 178.965 0.234641 176.326C-0.118963 173.833 -0.0363091 171.301 0.480315 168.8C0.893617 166.8 1.58401 164.815 2.53232 162.901C4.10292 159.731 5.87449 157.801 5.98659 157.68H60.4784C60.5403 157.735 61.121 158.256 61.9264 159.142C62.7094 160.003 63.8708 161.396 64.9576 163.139C66.1789 165.099 67.0589 167.093 67.573 169.067C68.2157 171.534 68.2855 173.976 67.7805 176.325C66.6835 181.427 62.9949 186.112 57.3941 189.516C54.5567 191.241 51.3223 192.587 47.7806 193.517C44.0725 194.491 40.1096 194.985 36.0017 194.985Z" fill="#FFE287"/>
<path d="M5.99547 157.696C5.84109 157.863 4.09658 159.783 2.54815 162.909C1.60062 164.822 0.910828 166.806 0.497923 168.805C-0.0181542 171.303 -0.10067 173.833 0.252671 176.324C0.626696 178.961 1.92628 181.49 4.11534 183.841C5.15022 184.952 6.38648 186.021 7.78979 187.019C9.1597 187.993 10.702 188.908 12.3738 189.739C14.0201 190.558 15.8044 191.301 17.6773 191.948C19.5401 192.592 21.5025 193.145 23.51 193.592C25.5278 194.041 27.6042 194.386 29.6815 194.617C31.7906 194.851 33.9169 194.97 36.0014 194.97C40.1073 194.97 44.0684 194.477 47.7746 193.503C51.3143 192.574 54.547 191.228 57.3827 189.505C62.9797 186.103 66.6658 181.421 67.762 176.323C68.2665 173.976 68.1968 171.536 67.5548 169.071C67.041 167.099 66.1617 165.106 64.9413 163.147C63.8552 161.405 62.6944 160.013 61.9118 159.152C61.1264 158.288 60.5547 157.772 60.4699 157.696H5.99547ZM5.9771 157.666H60.4862C60.4862 157.666 70.0142 166.022 67.7984 176.328C65.5826 186.634 52.897 195 36.0014 195C19.1058 195 1.76709 187.264 0.215978 176.328C-1.33513 165.392 5.9771 157.666 5.9771 157.666Z" fill="#707070"/>
<path d="M7.74965 159.015C6.35589 160.314 5.19903 161.769 4.31443 163.334C3.445 165.07 2.83042 166.883 2.4834 168.736" stroke="white"/>
<path d="M10.8516 161.625H60.8181" stroke="white" stroke-width="2"/>
<path d="M38.2975 140.793C29.1217 140.583 8.99407 132.645 4.88766 123.307C0.78125 113.969 24.1804 104.347 24.6496 95.4992C25.1187 86.6513 -0.837746 74.0114 2.69243 55.6834C6.22261 37.3554 18.1004 11.0188 31.7081 1.5423C45.3157 -7.93422 51.9502 29.1021 57.1215 34.7034C62.2929 40.3047 82.9974 40.1889 82.9974 52.5233C82.9974 64.8576 57.1215 84.0413 57.1215 84.0413C57.1215 84.0413 48.7218 91.2617 51.7455 99.6851C54.7693 108.109 68.4308 112.075 66.0572 121.411C63.6836 130.747 47.4736 141.004 38.2975 140.793Z" fill="#CCEAFF"/>
<path d="M34.4287 157.611V45.9624" stroke="#707070" stroke-width="3"/>
<path d="M34.4287 123.494C36.7098 121.596 39.539 120.19 42.6593 119.406C47.6625 118.221 54.4425 118.753 54.4425 118.753" stroke="#707070" stroke-width="3"/>
<path d="M34.6641 66.7538C34.6641 66.7538 38.8802 62.3429 44.7969 59.7826C50.7137 57.2224 58.3307 56.5133 58.3307 56.5133" stroke="#707070" stroke-width="3"/>
<path d="M34.4274 127.821C34.4274 127.821 31.2312 123.954 27.0147 122.482C22.7982 121.01 17.5615 121.935 17.5615 121.935" stroke="#707070" stroke-width="3"/>
<path d="M34.6639 57.2724C32.8335 55.7724 30.695 54.5433 28.3445 53.6401C24.5398 52.2061 19.4424 51.537 19.4424 51.537" stroke="#707070" stroke-width="3"/>
</g>
<defs>
<clipPath id="clip0">
<rect width="83" height="195" fill="white"/>
</clipPath>
</defs>
</svg>
