<svg width="754" height="510" viewBox="0 0 754 510" fill="none" xmlns="http://www.w3.org/2000/svg">
<path d="M501.458 160.246C578.87 166.583 634.388 183.376 683.91 217.596C733.433 251.816 688.994 256.728 699.549 297.126C710.104 337.525 797.683 344.021 726.135 379.191C654.588 414.361 108.228 523.571 12.829 508.599C-82.5705 493.628 386.773 369.29 344.548 319.306C302.323 269.322 237.031 269.639 244.459 237.875C251.888 206.111 310.012 211.655 374.262 192.248C438.511 172.841 424.045 153.909 501.458 160.246Z" fill="#CCEAFF"/>
<g filter="url(#filter0_d)">
<path d="M542.489 149H626.845C628.065 149.031 629.223 149.544 630.064 150.427C630.905 151.31 631.361 152.491 631.332 153.709V178.669C631.361 179.888 630.905 181.068 630.064 181.951C629.223 182.834 628.065 183.347 626.845 183.378H542.489C541.269 183.347 540.111 182.834 539.269 181.951C538.428 181.068 537.972 179.888 538.001 178.669V153.709C537.972 152.491 538.428 151.31 539.269 150.427C540.111 149.544 541.269 149.031 542.489 149V149Z" fill="white"/>
</g>
<path opacity="0.66" d="M621.339 153.485H571.454C570.157 153.485 569.106 154.534 569.106 155.83V157.002C569.106 158.297 570.157 159.347 571.454 159.347H621.339C622.635 159.347 623.686 158.297 623.686 157.002V155.83C623.686 154.534 622.635 153.485 621.339 153.485Z" fill="#00A0D3"/>
<path opacity="0.66" d="M621.926 162.278H570.867C569.895 162.278 569.106 163.066 569.106 164.037V166.382C569.106 167.353 569.895 168.141 570.867 168.141H621.926C622.898 168.141 623.686 167.353 623.686 166.382V164.037C623.686 163.066 622.898 162.278 621.926 162.278Z" fill="#00A0D3"/>
<path opacity="0.66" d="M621.926 171.072H570.867C569.895 171.072 569.106 171.859 569.106 172.83V175.175C569.106 176.147 569.895 176.934 570.867 176.934H621.926C622.898 176.934 623.686 176.147 623.686 175.175V172.83C623.686 171.859 622.898 171.072 621.926 171.072Z" fill="#00A0D3"/>
<path opacity="0.66" d="M560.89 153.485H546.804C545.184 153.485 543.87 154.797 543.87 156.416V174.003C543.87 175.622 545.184 176.934 546.804 176.934H560.89C562.51 176.934 563.824 175.622 563.824 174.003V156.416C563.824 154.797 562.51 153.485 560.89 153.485Z" fill="#00A0D3"/>
<g filter="url(#filter1_d)">
<path d="M578.489 78H662.845C664.065 78.0309 665.223 78.5442 666.064 79.4271C666.905 80.3101 667.361 81.4906 667.332 82.7092V107.669C667.361 108.888 666.905 110.068 666.064 110.951C665.223 111.834 664.065 112.347 662.845 112.378H578.489C577.269 112.347 576.111 111.834 575.269 110.951C574.428 110.068 573.972 108.888 574.001 107.669V82.7092C573.972 81.4906 574.428 80.3101 575.269 79.4271C576.111 78.5442 577.269 78.0309 578.489 78V78Z" fill="white"/>
</g>
<path opacity="0.66" d="M657.338 82.4846H607.453C606.156 82.4846 605.105 83.5345 605.105 84.8296V86.002C605.105 87.2971 606.156 88.347 607.453 88.347H657.338C658.634 88.347 659.685 87.2971 659.685 86.002V84.8296C659.685 83.5345 658.634 82.4846 657.338 82.4846Z" fill="#00A0D3"/>
<path opacity="0.66" d="M657.925 91.2782H606.866C605.894 91.2782 605.105 92.0656 605.105 93.0369V95.3819C605.105 96.3532 605.894 97.1406 606.866 97.1406H657.925C658.897 97.1406 659.685 96.3532 659.685 95.3819V93.0369C659.685 92.0656 658.897 91.2782 657.925 91.2782Z" fill="#00A0D3"/>
<path opacity="0.66" d="M657.925 100.072H606.866C605.894 100.072 605.105 100.859 605.105 101.83V104.175C605.105 105.147 605.894 105.934 606.866 105.934H657.925C658.897 105.934 659.685 105.147 659.685 104.175V101.83C659.685 100.859 658.897 100.072 657.925 100.072Z" fill="#00A0D3"/>
<path opacity="0.66" d="M596.89 82.4846H582.805C581.184 82.4846 579.87 83.797 579.87 85.4158V103.003C579.87 104.622 581.184 105.934 582.805 105.934H596.89C598.51 105.934 599.824 104.622 599.824 103.003V85.4158C599.824 83.797 598.51 82.4846 596.89 82.4846Z" fill="#00A0D3"/>
<path d="M667.573 456.168C692.48 455.441 712.122 436.532 711.443 413.934C710.765 391.337 690.024 373.608 665.117 374.336C640.21 375.063 620.569 393.972 621.247 416.569C621.925 439.167 642.666 456.896 667.573 456.168Z" fill="#1B7EC2"/>
<path d="M690.31 388.593C687.518 390.857 695.517 392.258 695.517 392.258C695.517 392.258 679.728 418.089 675.483 416.827C671.239 415.564 667.094 397.763 661.016 396.783C654.938 395.802 628.678 436.258 628.678 436.258L635.47 444.482C635.47 444.482 658.463 407.155 661.182 410.007C663.901 412.86 667.605 431.141 676.982 428.502C686.958 425.695 701.086 398.779 701.086 398.779C701.086 398.779 702.538 404.71 703.994 403.716C705.45 402.723 713.435 378.815 711.405 377.192C709.376 375.569 693.103 386.33 690.31 388.593Z" fill="#C72855"/>
<path d="M423.269 231.003C428.529 233.001 434.083 234.116 439.706 234.301C448.456 234.45 458.269 231.598 458.269 231.598L458.167 237.598C451.944 238.972 445.596 239.705 439.224 239.786C433.764 239.652 428.353 238.714 423.167 237.003L423.269 231.003Z" fill="#ABDAE4"/>
<path d="M423.269 285.003C428.529 287.001 434.083 288.116 439.706 288.301C448.456 288.45 458.269 285.598 458.269 285.598L458.167 291.598C451.944 292.972 445.596 293.705 439.224 293.786C433.764 293.652 428.353 292.714 423.167 291.003L423.269 285.003Z" fill="#ABDAE4"/>
<path d="M423.269 339.003C428.529 341.001 434.083 342.116 439.706 342.301C448.456 342.45 458.269 339.598 458.269 339.598L458.167 345.598C451.944 346.972 445.596 347.705 439.224 347.786C433.764 347.652 428.353 346.714 423.167 345.003L423.269 339.003Z" fill="#ABDAE4"/>
<path d="M423.269 393.003C428.529 395.001 434.083 396.116 439.706 396.301C448.456 396.45 458.269 393.598 458.269 393.598L458.167 399.598C451.944 400.972 445.596 401.705 439.224 401.786C433.764 401.652 428.353 400.714 423.167 399.003L423.269 393.003Z" fill="#ABDAE4"/>
<path d="M461.056 246.395V344.82L428.694 327.594L422.03 365.739L461.061 398.96V428.28H500.092C500.092 428.28 533.04 441.987 565.482 456.749C597.924 471.511 641.263 480.209 645.065 424.063C648.867 367.917 619.213 292.263 568.017 243.763C516.821 195.263 461.062 204.75 461.062 204.75L461.056 246.395Z" fill="#00A0D3"/>
<path d="M417.735 211.814C417.735 211.814 415.108 268.447 415.108 322.572C415.108 376.697 417.735 428.315 417.735 428.315H384.799V401.587C384.799 401.587 331.894 438.814 316.969 443.187C302.044 447.56 285.869 441.408 281.431 403.72C276.993 366.032 308.286 297.441 308.286 297.441L320.681 286.649L343.181 282.679C343.181 282.679 356.93 260.455 374.158 241.746C391.386 223.037 417.735 211.814 417.735 211.814Z" fill="#00A0D3"/>
<path d="M424.292 363.208L430.028 329.177L414.928 317.977C414.928 317.977 407.064 311.163 404.057 306.613C401.05 302.063 393.998 296.681 391.457 295.125C382.248 289.485 393.196 306.613 393.196 306.613L370.254 290.299L368.785 293.168V295.126L367.578 295.526L366.437 298.035L366.889 299.094L365.704 299.648L364.317 302.701L364.851 303.967H363.741L362.859 305.907L362.007 307.781L362.859 309.004L361.301 309.334L360.801 310.441L359.296 313.753L386.062 335.553L424.292 363.208Z" fill="#FFB1B8"/>
<path d="M368.292 295.815C370.702 298.516 373.277 301.064 376.003 303.446C379.068 305.945 382.368 308.14 385.856 310.003" stroke="#CF9E9E"/>
<path d="M366.32 303.584C366.32 303.584 371.32 308.493 375.62 311.857C378.096 313.814 380.74 315.549 383.521 317.041" stroke="#CF9E9E"/>
<path d="M310.795 253.182L349.965 253.172L379.168 320.491L341.534 323.166L310.795 253.182Z" fill="white"/>
<g filter="url(#filter2_d)">
<path d="M309.792 254.173L349.161 254.066L378.679 321.654L340.861 324.437L309.792 254.173Z" fill="#3E3E3E"/>
</g>
<path d="M459.309 112.14C464.742 111.95 469.326 116.902 469.546 123.201C469.644 125.985 468.611 130.091 464.432 134.235C460.253 138.38 455.86 139.674 452.828 139.78C447.395 139.97 450.092 130.189 449.871 123.89C449.65 117.591 453.875 112.33 459.309 112.14Z" fill="#FFB1B8"/>
<path d="M456.085 130.817L458.361 126.095L458.89 121.908L460.219 124.452L463.083 124.631L459.472 126.817L456.085 130.817Z" fill="url(#paint0_linear)"/>
<path d="M385.087 106.789C384.628 114.849 384.912 122.933 385.933 130.94C387.629 143.166 388.66 152.438 396.146 165.728C396.805 166.898 397.445 167.989 398.23 169.271C404.537 179.578 409.314 182.417 415.877 184.102C423.074 185.951 436.789 179.86 441.744 176.566C446.699 173.271 451.49 165.304 451.49 165.304L450.616 140.377L453.905 111.791L453.427 98.1577L429.311 88.8624L403.848 96.775L385.087 106.789Z" fill="#FFB1B8"/>
<path d="M418.686 174.803C418.686 174.803 418.472 178.713 420.626 191.259C422.259 200.01 424.46 208.646 427.216 217.111C427.216 217.111 437.227 221.927 445.971 220.659C454.715 219.391 462.192 213.559 462.192 213.559C462.192 213.559 457.883 198.225 455.092 181.118C452.301 164.011 452.647 156.724 452.647 156.724L418.686 174.803Z" fill="#FFB1B8"/>
<path d="M411.677 150.858C413.608 150.79 415.088 148.275 414.981 145.241C414.875 142.206 413.223 139.801 411.292 139.869C409.361 139.936 407.882 142.451 407.988 145.486C408.095 148.52 409.746 150.925 411.677 150.858Z" fill="#FFB1B8"/>
<path d="M411.66 150.358C413.315 150.3 414.578 148.017 414.482 145.258C414.385 142.499 412.965 140.31 411.31 140.368C409.654 140.426 408.391 142.709 408.488 145.468C408.584 148.227 410.004 150.416 411.66 150.358Z" stroke="#707070"/>
<path d="M406.691 164.808C409.994 165.454 413.358 165.736 416.722 165.648C421.472 165.398 426.173 162.174 426.173 162.174" stroke="black" stroke-width="2"/>
<path d="M450.226 118.158C432.925 124.129 431.1 128.961 431.1 128.961L450.226 118.158Z" stroke="#707070"/>
<path d="M423.275 140.216C420.487 140.313 417.882 139.391 415.942 137.618C414.184 136.011 413.133 133.878 413.059 131.764C413.025 130.793 413.207 130.033 413.615 129.438C413.995 128.883 414.587 128.455 415.424 128.131C417.205 127.44 419.938 127.293 422.819 127.192C425.71 127.09 428.71 127.038 430.822 127.598C432.926 128.155 433.893 129.214 433.956 131.032C434.027 133.038 432.912 135.295 430.974 137.068C428.865 138.998 426.131 140.116 423.275 140.216Z" fill="#FFB1B8"/>
<path d="M422.837 127.691C420.001 127.791 417.313 127.935 415.605 128.597C414.094 129.183 413.501 130.095 413.559 131.746C413.628 133.727 414.62 135.732 416.28 137.249C418.123 138.933 420.601 139.809 423.258 139.716C425.995 139.62 428.616 138.549 430.637 136.699C432.468 135.024 433.522 132.911 433.457 131.049C433.402 129.467 432.575 128.579 430.694 128.081C428.648 127.539 425.691 127.591 422.837 127.691ZM422.802 126.692C429.147 126.47 434.301 126.6 434.456 131.014C434.611 135.428 429.638 140.493 423.293 140.715C416.948 140.938 412.715 136.195 412.56 131.781C412.405 127.367 416.457 126.914 422.802 126.692Z" fill="#707070"/>
<path d="M398.11 141.094C395.274 141.193 392.626 140.271 390.655 138.498C388.87 136.892 387.804 134.76 387.73 132.648C387.696 131.679 387.881 130.919 388.295 130.325C388.683 129.768 389.285 129.34 390.137 129.014C391.948 128.322 394.726 128.172 397.654 128.07C400.592 127.967 403.639 127.913 405.786 128.472C407.925 129.029 408.908 130.087 408.971 131.904C409.041 133.909 407.908 136.165 405.939 137.939C403.794 139.872 401.014 140.992 398.11 141.094Z" fill="#FFB1B8"/>
<path d="M397.672 128.569C394.788 128.67 392.055 128.816 390.316 129.481C388.777 130.069 388.172 130.982 388.23 132.63C388.299 134.608 389.305 136.611 390.989 138.126C392.864 139.813 395.387 140.689 398.093 140.594C399.523 140.544 400.923 140.237 402.255 139.68C403.483 139.167 404.641 138.436 405.605 137.568C407.465 135.891 408.537 133.78 408.472 131.921C408.417 130.341 407.576 129.454 405.661 128.956C403.579 128.414 400.573 128.468 397.672 128.569ZM397.637 127.57C404.081 127.345 409.317 127.472 409.471 131.886C409.626 136.3 404.573 141.368 398.128 141.593C391.683 141.819 387.386 137.079 387.231 132.665C387.076 128.251 391.192 127.796 397.637 127.57Z" fill="#707070"/>
<path d="M407.893 129.445L413.887 129.235" stroke="#707070"/>
<path d="M421.691 135.308C422.52 135.308 423.191 134.637 423.191 133.808C423.191 132.98 422.52 132.308 421.691 132.308C420.863 132.308 420.191 132.98 420.191 133.808C420.191 134.637 420.863 135.308 421.691 135.308Z" fill="#545454"/>
<path d="M421.691 134.808C422.244 134.808 422.691 134.36 422.691 133.808C422.691 133.256 422.244 132.808 421.691 132.808C421.139 132.808 420.691 133.256 420.691 133.808C420.691 134.36 421.139 134.808 421.691 134.808Z" stroke="#707070"/>
<path d="M396.691 136.308C397.52 136.308 398.191 135.637 398.191 134.808C398.191 133.98 397.52 133.308 396.691 133.308C395.863 133.308 395.191 133.98 395.191 134.808C395.191 135.637 395.863 136.308 396.691 136.308Z" fill="#5B5B5B"/>
<path d="M396.691 135.808C397.244 135.808 397.691 135.36 397.691 134.808C397.691 134.256 397.244 133.808 396.691 133.808C396.139 133.808 395.691 134.256 395.691 134.808C395.691 135.36 396.139 135.808 396.691 135.808Z" stroke="#707070"/>
<g filter="url(#filter3_d)">
<path opacity="0.62" d="M391.815 107.826C396.567 106.726 399.072 106.604 406.515 103.426C413.958 100.248 414.286 97.9651 421.847 96.6001C429.097 95.3444 436.55 96.0346 443.447 98.6001C449.162 100.907 448.89 107.829 448.89 107.829C448.89 107.829 448.128 117.115 448.89 120.749C449.652 124.383 451.938 122.364 451.938 122.364L454.986 114.75V99.7501L443.447 90.7501H426.03L407.306 96.0571L395.767 101.825L386.143 104.896C386.143 104.896 387.063 108.926 391.815 107.826Z" fill="url(#paint1_radial)"/>
</g>
<path d="M409.927 65.8401L377.836 66.9644C377.836 66.9644 365.32 66.1535 362.989 79.9743C360.657 93.7951 373.656 102.748 373.656 102.748C373.656 102.748 378.899 107.265 391.249 104.796C403.6 102.327 410.873 92.6059 423.056 92.8573C435.24 93.1086 441.528 93.1883 447.924 100.146C451.935 104.506 451.364 112.667 450.175 117.571C449.56 121.41 448.644 120.682 448.644 120.682C449.034 119.202 449.756 117.829 450.755 116.669C451.754 115.509 453.004 114.591 454.411 113.986C459.061 112.2 460.615 112.739 462.249 113.994C463.882 115.249 468.029 123.977 468.76 120.704C469.492 117.43 483.3 96.616 479.786 82.2618C476.272 67.9076 463.49 60.9727 452.467 58.5133C441.444 56.0538 418.879 65.5264 409.927 65.8401Z" fill="#4E4E4E"/>
<g filter="url(#filter4_d)">
<path d="M293.685 268.735C292.562 269.876 289.676 279.12 291.069 287.682C292.22 297.611 297.683 301.861 299.061 303.638C301.912 307.323 317.829 303.73 327.364 302.722C336.899 301.715 336.444 301.771 337.594 299.289C338.745 296.806 336.568 294.63 336.568 294.63C336.568 294.63 338.451 294.076 338.71 292.642C338.968 291.207 337.95 287.398 337.71 286.672C337.469 285.945 334.637 285.873 334.605 285.73C334.574 285.586 336.559 285.834 336.645 284.79C336.615 283.271 336.029 281.817 334.996 280.703C334.06 280.011 330.784 280.628 330.784 280.628L332.933 280.25C333.191 280.002 333.393 279.702 333.525 279.37C333.657 279.037 333.717 278.68 333.699 278.323C333.571 277.216 333.41 276.35 332.422 275.823C331.435 275.296 324.004 276.371 323.922 276.072C323.839 275.773 331.063 275.946 331.169 274.625C331.275 273.304 330.03 271.043 330.03 271.043C330.03 271.043 320.841 266.723 311.758 266.142C302.675 265.562 295.855 266.531 293.685 268.735Z" fill="#FFB1B8"/>
</g>
<g filter="url(#filter5_d)">
<path opacity="0.32" d="M420.174 187.754C420.544 188.238 420.814 188.791 420.97 189.38C421.126 189.969 421.164 190.582 421.082 191.186C420.829 193.765 422.852 201.009 422.852 201.009L425.468 207.853C425.618 209.957 425.879 212.052 426.252 214.128C426.736 216.89 430.984 217.828 432.594 218.638C432.733 218.713 431.585 219.604 431.585 219.604L442.135 220.697L432.594 197.822V189.703L440.382 175.122C440.382 175.122 436.411 179.656 431.582 181.584C427.897 182.874 424.062 183.689 420.171 184.011L420.174 187.754Z" fill="url(#paint2_radial)"/>
</g>
<g filter="url(#filter6_d)">
<path d="M462.191 204.289C462.191 204.289 487.291 201.935 490.156 204.289C493.021 206.643 492.387 236.064 490.156 240.183C487.925 244.302 477.086 229.003 476.767 235.77C476.448 242.537 466.429 350.103 466.429 350.103L462.191 204.289Z" fill="#1F94BA"/>
</g>
<g filter="url(#filter7_d)">
<path d="M351.091 352.169C351.091 352.169 343.644 387.637 344.439 389.307C345.233 390.978 353.287 394.741 354.95 385.456C356.613 376.171 351.091 352.169 351.091 352.169Z" fill="#0A8BB4"/>
</g>
<g filter="url(#filter8_d)">
<path d="M532.489 9H616.845C618.065 9.03087 619.223 9.54417 620.064 10.4271C620.905 11.3101 621.361 12.4906 621.332 13.7092V38.6689C621.361 39.8876 620.905 41.068 620.064 41.951C619.223 42.834 618.065 43.3473 616.845 43.3782H532.489C531.269 43.3473 530.111 42.834 529.269 41.951C528.428 41.068 527.972 39.8876 528.001 38.6689V13.7092C527.972 12.4906 528.428 11.3101 529.269 10.4271C530.111 9.54417 531.269 9.03087 532.489 9V9Z" fill="white"/>
</g>
<path opacity="0.66" d="M611.339 13.4846H561.454C560.157 13.4846 559.106 14.5345 559.106 15.8296V17.0021C559.106 18.2971 560.157 19.347 561.454 19.347H611.339C612.635 19.347 613.686 18.2971 613.686 17.0021V15.8296C613.686 14.5345 612.635 13.4846 611.339 13.4846Z" fill="#00A0D3"/>
<path opacity="0.66" d="M611.926 22.2782H560.867C559.895 22.2782 559.106 23.0656 559.106 24.0369V26.3819C559.106 27.3532 559.895 28.1406 560.867 28.1406H611.926C612.898 28.1406 613.686 27.3532 613.686 26.3819V24.0369C613.686 23.0656 612.898 22.2782 611.926 22.2782Z" fill="#00A0D3"/>
<path opacity="0.66" d="M611.926 31.0718H560.867C559.895 31.0718 559.106 31.8592 559.106 32.8305V35.1754C559.106 36.1468 559.895 36.9342 560.867 36.9342H611.926C612.898 36.9342 613.686 36.1468 613.686 35.1754V32.8305C613.686 31.8592 612.898 31.0718 611.926 31.0718Z" fill="#00A0D3"/>
<path opacity="0.66" d="M550.89 13.4846H536.805C535.184 13.4846 533.87 14.797 533.87 16.4158V34.003C533.87 35.6218 535.184 36.9341 536.805 36.9341H550.89C552.51 36.9341 553.824 35.6218 553.824 34.003V16.4158C553.824 14.797 552.51 13.4846 550.89 13.4846Z" fill="#00A0D3"/>
<defs>
<filter id="filter0_d" x="532" y="146" width="105.333" height="46.3781" filterUnits="userSpaceOnUse" color-interpolation-filters="sRGB">
<feFlood flood-opacity="0" result="BackgroundImageFix"/>
<feColorMatrix in="SourceAlpha" type="matrix" values="0 0 0 0 0 0 0 0 0 0 0 0 0 0 0 0 0 0 127 0"/>
<feOffset dy="3"/>
<feGaussianBlur stdDeviation="3"/>
<feColorMatrix type="matrix" values="0 0 0 0 0 0 0 0 0 0 0 0 0 0 0 0 0 0 0.161 0"/>
<feBlend mode="normal" in2="BackgroundImageFix" result="effect1_dropShadow"/>
<feBlend mode="normal" in="SourceGraphic" in2="effect1_dropShadow" result="shape"/>
</filter>
<filter id="filter1_d" x="568" y="75" width="105.333" height="46.3782" filterUnits="userSpaceOnUse" color-interpolation-filters="sRGB">
<feFlood flood-opacity="0" result="BackgroundImageFix"/>
<feColorMatrix in="SourceAlpha" type="matrix" values="0 0 0 0 0 0 0 0 0 0 0 0 0 0 0 0 0 0 127 0"/>
<feOffset dy="3"/>
<feGaussianBlur stdDeviation="3"/>
<feColorMatrix type="matrix" values="0 0 0 0 0 0 0 0 0 0 0 0 0 0 0 0 0 0 0.161 0"/>
<feBlend mode="normal" in2="BackgroundImageFix" result="effect1_dropShadow"/>
<feBlend mode="normal" in="SourceGraphic" in2="effect1_dropShadow" result="shape"/>
</filter>
<filter id="filter2_d" x="303.792" y="237.086" width="80.8868" height="107.655" filterUnits="userSpaceOnUse" color-interpolation-filters="sRGB">
<feFlood flood-opacity="0" result="BackgroundImageFix"/>
<feColorMatrix in="SourceAlpha" type="matrix" values="0 0 0 0 0 0 0 0 0 0 0 0 0 0 0 0 0 0 127 0"/>
<feOffset dy="3"/>
<feGaussianBlur stdDeviation="3"/>
<feColorMatrix type="matrix" values="0 0 0 0 0 0 0 0 0 0 0 0 0 0 0 0 0 0 0.161 0"/>
<feBlend mode="normal" in2="BackgroundImageFix" result="effect1_dropShadow"/>
<feBlend mode="normal" in="SourceGraphic" in2="effect1_dropShadow" result="shape"/>
</filter>
<filter id="filter3_d" x="380.143" y="87.7501" width="80.843" height="44.1733" filterUnits="userSpaceOnUse" color-interpolation-filters="sRGB">
<feFlood flood-opacity="0" result="BackgroundImageFix"/>
<feColorMatrix in="SourceAlpha" type="matrix" values="0 0 0 0 0 0 0 0 0 0 0 0 0 0 0 0 0 0 127 0"/>
<feOffset dy="3"/>
<feGaussianBlur stdDeviation="3"/>
<feColorMatrix type="matrix" values="0 0 0 0 0 0 0 0 0 0 0 0 0 0 0 0 0 0 0.161 0"/>
<feBlend mode="normal" in2="BackgroundImageFix" result="effect1_dropShadow"/>
<feBlend mode="normal" in="SourceGraphic" in2="effect1_dropShadow" result="shape"/>
</filter>
<filter id="filter4_d" x="273" y="250.247" width="81.5438" height="79.2476" filterUnits="userSpaceOnUse" color-interpolation-filters="sRGB">
<feFlood flood-opacity="0" result="BackgroundImageFix"/>
<feColorMatrix in="SourceAlpha" type="matrix" values="0 0 0 0 0 0 0 0 0 0 0 0 0 0 0 0 0 0 127 0"/>
<feOffset dy="3"/>
<feGaussianBlur stdDeviation="3"/>
<feColorMatrix type="matrix" values="0 0 0 0 0 0 0 0 0 0 0 0 0 0 0 0 0 0 0.161 0"/>
<feBlend mode="normal" in2="BackgroundImageFix" result="effect1_dropShadow"/>
<feBlend mode="normal" in="SourceGraphic" in2="effect1_dropShadow" result="shape"/>
</filter>
<filter id="filter5_d" x="414.171" y="175.122" width="33.9641" height="61.5751" filterUnits="userSpaceOnUse" color-interpolation-filters="sRGB">
<feFlood flood-opacity="0" result="BackgroundImageFix"/>
<feColorMatrix in="SourceAlpha" type="matrix" values="0 0 0 0 0 0 0 0 0 0 0 0 0 0 0 0 0 0 127 0"/>
<feOffset dy="10"/>
<feGaussianBlur stdDeviation="3"/>
<feColorMatrix type="matrix" values="0 0 0 0 0 0 0 0 0 0 0 0 0 0 0 0 0 0 0.161 0"/>
<feBlend mode="normal" in2="BackgroundImageFix" result="effect1_dropShadow"/>
<feBlend mode="normal" in="SourceGraphic" in2="effect1_dropShadow" result="shape"/>
</filter>
<filter id="filter6_d" x="456.191" y="200.243" width="41.8834" height="158.86" filterUnits="userSpaceOnUse" color-interpolation-filters="sRGB">
<feFlood flood-opacity="0" result="BackgroundImageFix"/>
<feColorMatrix in="SourceAlpha" type="matrix" values="0 0 0 0 0 0 0 0 0 0 0 0 0 0 0 0 0 0 127 0"/>
<feOffset dy="3"/>
<feGaussianBlur stdDeviation="3"/>
<feColorMatrix type="matrix" values="0 0 0 0 0 0 0 0 0 0 0 0 0 0 0 0 0 0 0.161 0"/>
<feBlend mode="normal" in2="BackgroundImageFix" result="effect1_dropShadow"/>
<feBlend mode="normal" in="SourceGraphic" in2="effect1_dropShadow" result="shape"/>
</filter>
<filter id="filter7_d" x="338.146" y="348.861" width="25.8074" height="52.1111" filterUnits="userSpaceOnUse" color-interpolation-filters="sRGB">
<feFlood flood-opacity="0" result="BackgroundImageFix"/>
<feColorMatrix in="SourceAlpha" type="matrix" values="0 0 0 0 0 0 0 0 0 0 0 0 0 0 0 0 0 0 127 0"/>
<feOffset dy="3"/>
<feGaussianBlur stdDeviation="3"/>
<feColorMatrix type="matrix" values="0 0 0 0 0 0 0 0 0 0 0 0 0 0 0 0 0 0 0.161 0"/>
<feBlend mode="normal" in2="BackgroundImageFix" result="effect1_dropShadow"/>
<feBlend mode="normal" in="SourceGraphic" in2="effect1_dropShadow" result="shape"/>
</filter>
<filter id="filter8_d" x="522" y="6" width="105.333" height="46.3782" filterUnits="userSpaceOnUse" color-interpolation-filters="sRGB">
<feFlood flood-opacity="0" result="BackgroundImageFix"/>
<feColorMatrix in="SourceAlpha" type="matrix" values="0 0 0 0 0 0 0 0 0 0 0 0 0 0 0 0 0 0 127 0"/>
<feOffset dy="3"/>
<feGaussianBlur stdDeviation="3"/>
<feColorMatrix type="matrix" values="0 0 0 0 0 0 0 0 0 0 0 0 0 0 0 0 0 0 0.161 0"/>
<feBlend mode="normal" in2="BackgroundImageFix" result="effect1_dropShadow"/>
<feBlend mode="normal" in="SourceGraphic" in2="effect1_dropShadow" result="shape"/>
</filter>
<linearGradient id="paint0_linear" x1="456.085" y1="130.817" x2="465.114" y2="120.293" gradientUnits="userSpaceOnUse">
<stop stop-color="#D57F7F"/>
<stop offset="1" stop-color="#352424"/>
</linearGradient>
<radialGradient id="paint1_radial" cx="0" cy="0" r="1" gradientUnits="userSpaceOnUse" gradientTransform="translate(524.893 2573.62) rotate(45.8104) scale(153.856 68.1916)">
<stop stop-color="#FC969F"/>
<stop offset="1" stop-color="#7E4B50"/>
</radialGradient>
<radialGradient id="paint2_radial" cx="0" cy="0" r="1" gradientUnits="userSpaceOnUse" gradientTransform="translate(533.75 2666.71) rotate(45.8103) scale(49.0872 96.5969)">
<stop stop-color="#FC969F"/>
<stop offset="1" stop-color="#7E4B50"/>
</radialGradient>
</defs>
</svg>
