<svg width="84" height="65" viewBox="0 0 84 65" fill="none" xmlns="http://www.w3.org/2000/svg">
<g clip-path="url(#clip0)">
<path d="M61.211 38.3123C60.4361 38.329 55.3096 38.444 49.1075 38.691C42.9202 38.9374 34.3668 39.3693 28.7558 40.0275C26.7552 40.2622 25.0336 40.6007 23.6386 41.0337C21.1208 41.8152 20.1597 42.7438 19.5855 43.2987C19.3426 43.5334 19.167 43.703 18.9757 43.7624C18.7311 43.8383 18.435 43.741 17.9196 43.4153C17.6587 43.2504 17.1659 42.5145 17.0935 42.405L14.6758 29.6842C14.677 29.6252 14.6841 29.3045 14.7015 28.9687C14.7365 28.2918 14.7806 28.1627 14.7933 28.1392C14.855 28.0249 14.9622 27.9474 15.1306 27.8951C15.4183 27.8058 15.8516 27.7984 16.4514 27.7881C17.7348 27.7662 19.6744 27.7331 22.4386 26.8751C23.5219 26.5388 24.6502 26.0985 25.7922 25.5664C29.4916 23.8425 37.3286 19.4693 43.2516 16.1042C49.2296 12.7078 54.5113 9.62851 55.2507 9.19693L61.211 38.3123Z" fill="#1B7EC2"/>
<path d="M55.1968 9.32168C54.1957 9.90573 49.0654 12.8941 43.2842 16.1788C37.3597 19.545 29.5203 23.9198 25.8183 25.645C24.6732 26.1786 23.5415 26.6202 22.4549 26.9575C19.6806 27.8187 17.7347 27.852 16.4472 27.874C15.8533 27.8841 15.4242 27.8915 15.1465 27.9777C14.9569 28.0365 14.8918 28.1192 14.8599 28.1773C14.8506 28.2011 14.8099 28.3393 14.777 28.9906C14.7613 29.3015 14.7544 29.5949 14.7528 29.6714L17.1655 42.3671C17.3307 42.6169 17.7467 43.2065 17.9602 43.3415C18.4497 43.6508 18.7388 43.7492 18.958 43.6812C19.1314 43.6274 19.3009 43.4635 19.5356 43.2368C20.1152 42.6767 21.0852 41.7394 23.6211 40.9522C25.0205 40.5178 26.7466 40.1783 28.7518 39.9431C34.3653 39.2846 42.921 38.8525 49.1099 38.606C55.0886 38.3679 60.0681 38.2524 61.1143 38.2294L55.1968 9.32168ZM55.3063 9.06805L61.31 38.3969C61.31 38.3969 39.6174 38.8403 28.7593 40.1141C26.5643 40.3715 24.9126 40.7272 23.655 41.1175C20.0614 42.233 19.6797 43.633 18.9919 43.8465C18.7296 43.9279 18.4232 43.8369 17.8773 43.492C17.5798 43.304 17.0197 42.4457 17.0197 42.4457L14.5969 29.6971C14.5969 29.6971 14.6231 28.289 14.7262 28.0982C14.8021 27.9576 14.9302 27.8689 15.1127 27.8123C16.0354 27.5259 18.3547 28.0544 22.421 26.7922C23.4271 26.4798 24.5397 26.0581 25.7651 25.4871C32.9223 22.1517 55.3063 9.06805 55.3063 9.06805Z" fill="#1B7EC2"/>
<path d="M56.5168 6.81755L54.0627 7.54626L61.1256 41.004L63.5796 40.2753L56.5168 6.81755Z" fill="#1B7EC2"/>
<path d="M74.7503 5.10532e-05L61.5986 9.15698L62.721 11.3189L75.8727 2.16193L74.7503 5.10532e-05Z" fill="#1B7EC2"/>
<path d="M81.2497 16.8536L66.2183 20.4021L66.6107 22.8128L81.6421 19.2643L81.2497 16.8536Z" fill="#1B7EC2"/>
<path d="M84.0023 33.7548L68.735 33.4109L68.7 36.0246L83.9673 36.3685L84.0023 33.7548Z" fill="#1B7EC2"/>
<path d="M16.348 64.8839L9.56575 46.5108L9.54048 46.4423L9.47746 46.4591L8.5864 46.6956C8.09956 46.8248 7.60166 46.8904 7.10654 46.8904C6.37141 46.8904 5.6459 46.7482 4.95018 46.4678C4.26693 46.1923 3.63139 45.7915 3.06122 45.2764C2.48595 44.7567 1.99447 44.1361 1.60042 43.4318C1.19269 42.7031 0.899187 41.9015 0.728064 41.0492L0.242564 38.6308C0.0482467 37.663 0.0245731 36.6805 0.172201 35.7104C0.314802 34.7734 0.610394 33.8874 1.05077 33.0771C1.49114 32.2667 2.05408 31.5728 2.72395 31.0147C3.41744 30.4369 4.19581 30.0306 5.03746 29.8072L11.5719 28.0724L14.9707 45.0008L14.8163 45.0418L14.7268 45.0656L14.7627 45.1628L21.1732 62.5286L16.348 64.8839Z" fill="#1B7EC2"/>
<path d="M16.3888 64.7677L21.0721 62.4816L14.6917 45.1974L14.6199 45.003L14.799 44.9554L14.8783 44.9344L11.5142 28.1787L5.05479 29.8936C4.22326 30.1143 3.45426 30.5156 2.76917 31.0864C2.10738 31.6378 1.55122 32.3234 1.11613 33.124C0.681047 33.9247 0.389004 34.8 0.248128 35.7257C0.102285 36.684 0.125683 37.6547 0.317667 38.6109L0.803167 41.0292C0.972286 41.8715 1.26233 42.6637 1.66524 43.3839C2.05464 44.0798 2.54033 44.6931 3.10883 45.2067C3.67233 45.7157 4.30043 46.1119 4.97568 46.3841C5.66319 46.6613 6.38011 46.8018 7.10654 46.8018C7.59582 46.8017 8.08788 46.737 8.56906 46.6092L9.46011 46.3727L9.58616 46.3392L9.63671 46.4761L16.3888 64.7677ZM16.3071 65.0001L9.49479 46.5454L8.60374 46.7819C8.10206 46.9151 7.60033 46.979 7.10654 46.979C4.08897 46.9791 1.36077 44.5944 0.652947 41.0691L0.167447 38.6508C-0.637055 34.6439 1.53557 30.6458 5.02012 29.7208L11.6297 27.9661L15.0632 45.0672L14.8336 45.1282L21.2743 62.5756L16.3071 65.0001Z" fill="#1B7EC2"/>
</g>
<defs>
<clipPath id="clip0">
<rect width="84" height="65" fill="#1B7EC2"/>
</clipPath>
</defs>
</svg>
