<svg width="64" height="64" viewBox="0 0 64 64" fill="none" xmlns="http://www.w3.org/2000/svg">
<path d="M49.3334 1.33337H4.00004C2.52671 1.33337 1.33337 2.52671 1.33337 4.00004V36C1.33337 37.4734 2.52671 38.6667 4.00004 38.6667H12V50.6667C12 51.1667 12.2787 51.624 12.7227 51.8534C13.16 52.0774 13.6974 52.0467 14.108 51.752L32.4267 38.6667H49.3334C50.8067 38.6667 52 37.4734 52 36V4.00004C52 2.52671 50.8067 1.33337 49.3334 1.33337Z" fill="#1B7EC2"/>
<path d="M60.0001 12H54.6668V37.3333C54.6668 39.5427 52.8761 41.3333 50.6668 41.3333H33.2814L22.0814 49.3333H34.2628L49.9268 59.776C50.3401 60.0507 50.8668 60.072 51.2948 59.8427C51.7294 59.6107 52.0001 59.1587 52.0001 58.6667V49.3333H60.0001C61.4734 49.3333 62.6668 48.14 62.6668 46.6667V14.6667C62.6668 13.1933 61.4734 12 60.0001 12Z" fill="#1B7EC2"/>
</svg>
