<svg width="100" height="88" viewBox="0 0 100 88" fill="none" xmlns="http://www.w3.org/2000/svg">
<path d="M29.1667 27.7567L35.125 33C38.9375 29.645 44.1875 27.5733 50 27.5733C55.8125 27.5733 61.0625 29.645 64.875 33L70.8334 27.7567C65.5 23.0817 58.1459 20.1667 50 20.1667C41.8542 20.1667 34.5 23.0817 29.1667 27.7567ZM50 5.5C37.3959 5.5 25.9792 9.99167 17.7084 17.27L23.5834 22.44C30.3542 16.4817 39.6875 12.815 50 12.815C60.3125 12.815 69.6459 16.4817 76.4167 22.44L82.2917 17.27C74.0209 9.99167 62.6042 5.5 50 5.5ZM61.8959 36.685L38.1042 36.6667C35.4792 36.6667 33.3334 38.555 33.3334 40.865V76.4867C33.3334 78.7967 35.4792 80.685 38.1042 80.685H61.9167C64.5417 80.685 66.6875 78.7967 66.6875 76.4867V40.865C66.6667 38.555 64.5209 36.685 61.8959 36.685ZM62.5 73.3333H37.5V44H62.5V73.3333Z" fill="#1B7EC2"/>
</svg>
