<svg width="64" height="64" viewBox="0 0 64 64" fill="none" xmlns="http://www.w3.org/2000/svg">
<path d="M54.911 33.5719C54.157 31.7829 50.395 30.2169 48.98 29.6819L47.163 28.0229C47.101 27.9659 47.031 27.9169 46.956 27.8769C45.541 27.1279 42.459 26.7729 41.527 26.6789C40.965 26.3419 39.46 25.4759 38.492 25.2339C37.315 24.9389 34.651 25.7469 33.56 26.1069C33.382 26.1659 33.224 26.2739 33.103 26.4189C32.09 27.6439 28.783 31.8009 28.783 33.8749C28.783 34.9139 29.785 35.8569 30.946 36.9489C31.474 37.4459 32.357 38.2769 32.45 38.5479C32.477 38.9229 32.579 39.4159 32.699 39.9859C32.96 41.2369 33.396 43.3309 32.864 44.1559C31.475 46.3089 31.084 50.1799 32.01 52.6099C32.592 54.1349 33.525 54.6789 34.205 54.8669C34.471 54.9409 34.747 54.9739 35.032 54.9739C36.996 54.9739 39.355 53.3509 41.467 51.8979C42.447 51.2229 43.374 50.5859 43.914 50.3749C45.747 49.6579 46.624 47.2849 47.266 45.5529C47.435 45.0969 47.626 44.5789 47.735 44.4079C48.205 43.6689 49.483 42.4429 51.537 41.4169C53.584 40.3959 55.835 35.7699 54.911 33.5719Z" fill="#1B7EC2"/>
<path d="M32 1C14.907 1 1 14.907 1 32C1 49.093 14.907 63 32 63C49.093 63 63 49.093 63 32C63 14.907 49.093 1 32 1ZM32 61C24.955 61 18.491 58.473 13.461 54.281L15.419 51.344C16.211 51.082 17.49 50.545 17.959 49.701C19.332 47.23 17.594 43.597 17.076 42.622C17.032 42.029 16.891 40.518 16.564 39.699C16.169 38.713 14.535 37.759 13.617 37.287C12.946 36.139 11.607 33.536 11.607 31.999C11.607 29.829 13.4 29.472 14.016 29.405C16.287 29.013 17.638 27.387 18.153 26.634C19.113 26.342 21.239 25.572 21.959 24.314C22.729 22.967 21.863 19.847 21.359 18.314C21.491 17.637 21.724 15.998 21.238 14.622C20.746 13.228 19.505 12.149 18.962 11.728C18.646 11.011 17.695 9.018 16.407 7.568C19.834 5.373 23.748 3.879 27.952 3.289C27.473 4.314 27.078 5.39 27.395 6.263C27.748 7.232 29.148 7.948 30.319 8.391C30.169 9.535 30.144 11.428 31.375 12.412C32.58 13.376 34.091 12.962 35.09 12.686C35.217 12.651 35.377 12.607 35.51 12.57C35.663 13.354 35.743 15.117 35.687 16.796C35.678 17.056 35.771 17.309 35.946 17.501C36.057 17.624 38.692 20.501 41.448 20.888C41.589 20.908 41.73 20.917 41.874 20.917C44.376 20.917 47.28 18.054 48.246 17.022C49.297 16.77 52.779 15.897 55.343 14.816C58.895 19.629 61 25.573 61 32C61 47.991 47.991 61 32 61Z" fill="#1B7EC2"/>
</svg>
